<mxfile host="65bd71144e">
    <diagram id="XosLdehUHOk1rnNSKgIr" name="Page-1">
        <mxGraphModel dx="1477" dy="529" grid="0" gridSize="10" guides="1" tooltips="1" connect="1" arrows="1" fold="1" page="0" pageScale="1" pageWidth="850" pageHeight="1100" math="0" shadow="0">
            <root>
                <mxCell id="0"/>
                <mxCell id="1" parent="0"/>
                <mxCell id="38" style="edgeStyle=none;html=1;entryX=0;entryY=0.5;entryDx=0;entryDy=0;" edge="1" parent="1" source="3" target="37">
                    <mxGeometry relative="1" as="geometry"/>
                </mxCell>
                <mxCell id="3" value="User" style="shape=umlActor;verticalLabelPosition=bottom;verticalAlign=top;html=1;outlineConnect=0;rounded=1;" vertex="1" parent="1">
                    <mxGeometry x="-354" y="272" width="30" height="60" as="geometry"/>
                </mxCell>
                <mxCell id="40" style="edgeStyle=none;html=1;exitX=1;exitY=0.5;exitDx=0;exitDy=0;entryX=0.001;entryY=0.411;entryDx=0;entryDy=0;entryPerimeter=0;" edge="1" parent="1" source="37" target="46">
                    <mxGeometry relative="1" as="geometry">
                        <mxPoint x="-108" y="302" as="sourcePoint"/>
                        <mxPoint x="3" y="399" as="targetPoint"/>
                    </mxGeometry>
                </mxCell>
                <mxCell id="37" value="Enter in a Account/Lead &lt;br&gt;Register" style="html=1;align=center;verticalAlign=middle;rounded=1;absoluteArcSize=1;arcSize=10;dashed=0;fillColor=#1ba1e2;fontColor=#ffffff;strokeColor=#000000;labelBackgroundColor=none;" vertex="1" parent="1">
                    <mxGeometry x="-252" y="282" width="140" height="40" as="geometry"/>
                </mxCell>
                <mxCell id="44" style="edgeStyle=none;html=1;entryX=1;entryY=0.5;entryDx=0;entryDy=0;fontSize=36;" edge="1" parent="1" source="41" target="42">
                    <mxGeometry relative="1" as="geometry"/>
                </mxCell>
                <mxCell id="41" value="&lt;font style=&quot;font-size: 36px;&quot;&gt;X&lt;/font&gt;" style="text;html=1;strokeColor=none;fillColor=none;align=center;verticalAlign=middle;whiteSpace=wrap;rounded=0;labelBackgroundColor=none;" vertex="1" parent="1">
                    <mxGeometry x="678" y="75" width="28" height="30" as="geometry"/>
                </mxCell>
                <mxCell id="42" value="Return to Previous Page" style="html=1;align=center;verticalAlign=middle;rounded=1;absoluteArcSize=1;arcSize=10;dashed=0;fillColor=#FF0000;fontColor=#ffffff;strokeColor=#000000;labelBackgroundColor=none;" vertex="1" parent="1">
                    <mxGeometry x="488" y="16" width="140" height="40" as="geometry"/>
                </mxCell>
                <mxCell id="46" value="" style="shape=image;verticalLabelPosition=bottom;labelBackgroundColor=default;verticalAlign=top;aspect=fixed;imageAspect=0;image=data:image/png,iVBORw0KGgoAAAANSUhEUgAAAuYAAAHjCAYAAABvvNp9AAAAAXNSR0IArs4c6QAAAARnQU1BAACxjwv8YQUAAAAJcEhZcwAADsMAAA7DAcdvqGQAAP+lSURBVHhe7L0HgBxHlf//7Th5865yTs7ZxgGcwAHbZH7knA/4E+4IR7gDjoPjgCNc4o7MHRzJGIPNEQ7jjHHGloNyWGm1eXd28kx3z/zfq+7eHY12Ja2klbTa95Fqp7u6urq6p2f6W29evdJqBARBEARBEARBOKbowasgCIIgCIIgCMcQEeaCIAiCIAiCcBwgwlwQBEEQBEEQjgNEmAuCIAiCIAjCcYAIc0EQBEEQBEE4DhBhLgiCIAiCIAjHASLMBUEQBEEQBOE4QIS5IAiCIAiCIBwHiDAXBEEQBEEQhOMAEeaCIAiCIAiCcBwgwlwQBEEQBEEQjgNEmAuCIAiCIAjCcYAIc0EQBEEQBEE4DhBhLgiCIAiCIAjHASLMBUEQBEEQBOE4QIS5IAiCIAiCIBwHiDAXBEEQBEEQhOMArUYEy8cV3KpalZJaUVmCIAgnNhr9r0uCIAjC3OK4E+bFAjDUCxTotVQBPI8yRZgLgjAXIDFuGEAsArS0UWoHbFoWBEEQ5gbHhTD3XGCw308uCXE2FInFSBCEuYr6xTD4ZjZMYN48oGM+oIvzoSAIwgnNMRfmA31Afy8Jcse3FAmCIAh7w8YLywbmLyKB3hVkCoIgCCccx0yYu/Sg2bYByObogWMFmYIgCMKUOPS92dkBLF4h1nNBEIQTkWMizCtl4MnH6cEi7iqCIAjTolql704DOOUMwDSDTEEQBOGE4KjbXJwK8MSfAYOOLKJcEARherClnCNWPUnfo2pwvCAIgnDCcNSF+danxZdcEAThcAiNGuwOKAiCIJw4HFVh3r0dKJbFUi4IgnC48Pcoj9HhAfSCIAjCicFR8zEvFYEN6+mAR91GLwiCcAJD3+AnnwnYdrAuCIIgzFqOmjB/mkQ5i3MR5oIgCEcOHgzKkVqWrAwyBEEQhFnLUZHJLP1LBRHlgiAIRxoeDDo8NDEhkSAIgjB7OSpSub+HHhriVy4IgjAjVEmUj5A4FwRBEGY3My7M+WfW3j2QAZ+CIAgzBX2/Dg+I1VwQBGG2M+PCnOPs8nT7IswFQRBmBv5+zedFmAuCIMx2Zt5i7opvuSAIwkzCwpwnHeIILYIgCMLsZcYlc0Ws5YIgCEcFsZgLgiDMbmbeYi5TRguCIMw4rMld118WBEEQZifiZCIIgiAIgiAIxwEzPsHQ2CiweQNgGEGGIAiCcMThgfannw1EokGGIAiCMOsQi7kgCIIgCIIgHAeIMBcEQRAEQRCE44CZF+YSJUAQBEEQBEEQDohYzAVBEARBEAThOECEuSAIgiAIgiAcB4gwFwRBEARBEITjABHmgiAIJwAy66cgCMLsR4S5IAiCIAiCIBwHzPwEQyPApqepB3AEJxjSNP91NluIDuYcuMyhnmO474HqOJRjHE67puJwz5U53DbNxHkdDo3tOdbtO1bHP5TjzsVrVfWAM86VCYYEQRBmM2IxP4bM5IP7YOs+luLleON4uxby3hw6x/rayXsnCIIgHArHTJizRelQ4YfewT74pnOcgy17OG1nDtaaxmUO51gHexxmOud+sHUeLIdbJ+97pM9zOkzn2jUynfYc7jkeTjuZw3mPpnOejfBxp7P/4RzraB1nOhyt4wiCIAjHnmMizMMHzYEeOEdqO79Op+z+mE6dk3Gw+9SXO9A+R2r7dOo5lGMeKO9AdU7Gwe7P28Lth3uckPo665lu3lT1TMaBytXXGVJf/3T2n6zsgfafjAPVebAcaN8jVf+B6qnfvr9y02Gqeo70cQRBEITjm2PuyjLdB05j+QM90A6Go1EnM539GzkSbToYjsRxJit7pNvJHE6dM9EeZqbqrWc2t326NLbpeDz3o9WmmTqOIAiCcPxwTIR56HoQpqmYbFt93v72D7fVp6k42LIHW46ZbNvB7BcSljnQPgfaVv86FWEdYZqMxu1TlWPqy4VMlsfU50+2fX801rm//cOy9Wk6TFZ+sroa10Mmyw/zJts2FQcqO1l99Xn1+Y00lpus7GR5B+JAde6PsPzB7H8wZaaift8D1TGdsgfLZHU0HmOyMoIgCMKJxVER5vJAEQRBEARBEIT9c8xdWQRBEARBEARBEGEuCIIgCIIgCMcFIswFQRAEQRAE4ThAhLkgCIIgCIIgHAeIMBcEQRAEQRCE4wCtRgTLM0J6BNj0FPUAjCBDEARBOOJ4LnDW+UAkGmQIgiAIsw6xmAuCIAiCIAjCcYAIc0EQBEEQBEE4DhBhLgiCIAiCIAjHASLMBUEQBEEQBOE4QIS5IAiCIAiCIBwHHBVhXq0GC4IgCIIgCIIgTMpRCZe44QnAkHCJU6JplIIukqe7qNE/16VeE23gZNR0aPRPOjiCIEyF5wFnXyDhEgVBEGYzIsyPFSTGLQtwHKC7OIYeulBD6SLCd8PQNURsUy0n4xaaE1F0RpvQbsbVfi7tJwiCECLCXBAEYfYjwvwoY5DW9uiSbxjtx7aeDNLFArTQXE6QHodp6LAtPy9K4lzTWKQbsExdWdAjmoWutiQWWk2+kJ/Rd1AQhNmACHNBEITZjwjzowTPfFrRHDzePYAn9/Sj7Hi+qwopcdeb8FGpuFXEI76lnIlHbOXqEo+aSqSzOI9FLUQsUwn4NjuOBVES6OLmIghzGhHmgiAIsx8R5kcBtpLvHE3j9o3bkS1WglzArRqoeg6cOmFeT8TSlfg2DQ1REuKJqK0EeiJmIRYhca6s6UDUsLA41YR4LTLuCiMIwtxChLkgCMLsR4T5DGOSKL/9id14eM8uWCSwHa8Gr+pf8rLrqYcpvwXFkspSbi4hiRgP+aQ3idR3PGKolIpHSKCTMCdR3pQioR6xEbUNVeeyeCuSJj2VRZwLwpxDhLkgCMLsR4T5DKKbNfzX/Y9jYDSvXFaUAHc8ZdUuFulBSmI6V5mwoO+PpG0rkd+aMpGKsfU8QssRtFCKR20l1osVF0viLWi14odnOefegIh7QZhViDCfOdR3N31pG/Qgi0QiQa4gzDwcoc2jZFriEjxXOCrC/On1c++GYp/y7933KIZyReVLXnE9uCTE8wWO606vJMgbLzzr4TgJ8Hq4XD2mrqOrxVJ+6O1NMUpRtFJKxGxlRa+Q8J8fa0K7lZgyvCKPNTV4bCkd0KHqOTLMqJVBmVbYx53bGbfpAWTZaHaSvksNfSmwH7uEbBSE4xMW5uc8Y24Jc5dUyxNPrsdZZ54d5OyfKn2BPfDA/TjzzLMQi8WC3AMzOjqKSy+9FO3tHbjjjtuD3BMDlgCZTAbNzc1BzpHlj/c9gKefegKFfB5Llq3GtddcgWj0+LtJC4WCuhaJRCLIOTT4mbplI90zg76ojsaBtacALW1BgWny8+8Dj94LnHQW8Kq3B5kHwZangYfuoWOfRt8LFwWZwqxAhPkMwKL8+39ajz76sjNISBcq9Okk6HOPXLmi3FUidEH0+EKsjplY3qVj6aIKFjYtgGFZsLQaNMNUAh6OjrFKEVv35PBAdze29OZUXU1RGx0tJjqbWZzH9hLnDonrrmgS7WZy3HLObaKmoFCsorswhGzORVErw6MHFQ8oNak9HKJROa03wH7unldFG33DLLLbVLhGEeiCcHwxF4X5T37yE7z//e/Hm9/8Vvzd330yyJ2a7p3duPCiC3HDDTfg61//epB7YNLpNK666ir67rPwxz/+Mcg9Mfj3f/8avvSlf8J///d/46KLjpyCu/+BR/HhD70fw8PDar1UKinxz69/9Vd/iTe+8U0q/3ggT52GK664gj5DHn7wgx/gpJNOCrZMjx2b6Xp+Fkim/JDG/Jzk5y4bwxJNwNs/DDS3BIUPklt+DDz+J2DhcuCN7w0yD4IffwNY/yCQagU+/I9BpjArYLupcARhI8wvH9+I3SMNorzoi3KLBPfK5CKcv/B0vObcdrz6WQtx7dkrcHLHOjRZPIAzBqsah+nYsL0IbN1CV6wJl6xZiA9ecyE+/pJzsW5xMzKlCobGHAyOFTGcKWI0U0Kp7KoILyy0ewtZsK7ngacZr4gtQ8O4c8tO3L17K/ZksijpZUQjJlpSMRL0ESRZ1Ed8S3xT3B5PLPRtqo8jwmTdEh4b24WtoyOoGqQC9tXwgiAIR42WlhbYto37779PiaoDsbN7B1pbW9EyXXUUwML8RIOFsmmaSpweKSqVCt75F29Rdc+bNw8vf/nL8fGPfxxXX3MV5s+fj//7v98HJfeFf9VohO2Hk+U3cjBlQurL8jJb8dlVaWhoKMidPtkx0P3I7QUuvAK49iXAGRf44twtA9/6J7rehaBwHQfT7ElsZgred7KobNwO/qX7BLxlT3jEYn6E4KvIIvix7kH86skNiFmmirbCiUU5C/SEGcPapqVYsSaGM7tqaGlqm/ZEQfzhTCaAnz28Gb99rFsJ585mG/NaE2hvjqKjJUaCOgKDuujpXBG5ooNMvqzioCdJaDMswHlAKcMRXxjbNEjI15TbzVSwmwz7yrO7C5/w2lSXiggzs3eQIAgHw1y0mO/cuRPPe97zlN/3vffeq0Q609PTgxt/9hOcecZZuPTSy+h7y7dB/cd//Ae+/e1v4+1vfzve/OY3qzx2h3nsscfwwx/+CDt3bMf8BYvx3OdePW4hZ0KLeTwex5133qnyQjZv3opf/OImPHD/AyRwLZx/wYV49Wteja7O9qAE8NRTT+FnP7sRDz/0MJqpM/HMZ16KF77w+ejs7AxK+LAo/N3vfoe7774bvXv2YPGSpXjlK1+Bk08+Gb/61f/i97//P4xRW84480y86lWv2seyWyjk1f6//e3v1P6nnno6XvySF+Hcc88NSuzLl770ZXznO/41Oe+881QHZ+nSpViyZInaziL7nnvuwU03/Ry7d3WrNt1ww/XKtYevx2T09/er68WC98tf/rJaDmGXkWw2Q4J9fpADPProo7j55l/gqSefQDaXU+Kdxfy6deuUJf/PtJ07D7zP69/wepx//vnBnsDg4CCV+T4eevBB5On8LSq3aPFivPWtb6XzP3X8Wcc8/fRT+OlPb8T6xx9HemyMOmjN+Po3vqHqvv7661Eul/HqV7+Gzn8JHMfB5Zdfrjosf/M3f4O2tjZ84QtfpHtsQul+61vfxC2/vAUfp+187Z54GPjR1/3n9If+EUgF3kFbnwK++88kykkLvPWDvnsJu7rcRf2T3p1AmfJZRM9bBFxCl2o+vYbNDi3mi1YAb3iPn8fup2wNf+BuoEj9KdZXHfOAK24A6PZV3PJD4OF7gGa6Dd//d36eMDsQYX4EqZkOPvvLB5GMTQz0ZNivPGklsK5jBZasNnHhgtRhz9xp0fPnkV178J07nkYyamNpVwQdzXG0NcXoy7BGorysRLcvwjnCi6VcVfjdjlKeqsPQlRjnVxbc+6P+NuEY7GyNL5QqWNXRgU5jwmVGEIRjw1wU5myRfcELXqDE2V133YVkMqny2Tr7i1/8AiMjI3jooUewYAGpFuJd73wX7rjzDiXQn/WsZynh+K//+s8kuP6JyiwkobuORP0e7CIBesEFF+B73/uesqJOJcxvvfVWvPvd70YqlVLHTiTi1JYhLFy4EL/+9a9VmR//+Cf46Ec/oiyyXV1dqiPAPutc14033qhEMLOHhDSLQxaELCZXrlypOhh8jtzhYNHYQd+3vI0HorKI//Wv/xdr165T+7OAfsMb3ozHH38U7e3tlL+Wlh9X1+av/vKv8K53v0uVa4SF+Y9+9EOMkVDlY/F3/WWXXaYEMbf1L//q/SQ+b1VtZ8Hc19eHgYEBEscX4Ac/+P6kvyLwdWdRy9fur/7yL/H/XvayKQfN8jX4wAc+QNd/gRLB7PvPHSkW8Pz+8H587nz9OJ+P/V//9d/0/j1TtfW6665THTR+DwzDpPdqVLnM8PX84Q9/iIsvvlgdh++P173udeo4XDcfh9+H//mf/1HXiq89d0r4vWay2SzdF1/A2WefjWuuuUa9L3/4wx9UWSZHHYgrr7xSLb/yVa/A+9/3l3sJ8w98bsJtpUga4B9JkLN1+0WvB86+EPjnT1Gnog+w6bIoizppAt5vdIhE/efrBPYkwvw3NwJ/vM1f5s87P36dMtVB3wGf+U8//7c3AfdRmVbq+733wF5ewnGEuLIcIXSzis/e/BCJXl+hhiERc9SbbW9NYl3nCixfZ+KC+ckjMp0+DzA5e/FCvOGyk5EulDGUKSNfdLFnKK8s5Mkg1jnDojwk1M8RU1fWfOVXPk1sy+9lcf1b6eHAvXdBEISjDYu1U089TYmmTZs2qjwWc3/605/UID4WaE888bjKZ3G3Y+cOJbxWr16t8tiC/U//9GUltm677fdKiP/mN7/GS1/6KjzyyCMqbyo2bdqED37wg8qSygKQhd9vfvNbJdy//OUvqTIsdj/3uX9Q7bj55p/j97//vRJ37/n/3qNE4LveNSGWf/nLXyoxyJbwhx9+GDfddJOqi63qLED5GLfddpuqgzsYLFjZPzzkc5/7HB544D61P5dhH3pu02l0fb717W8poToVfFy2Cj/44IPKOv6tb31L5f/4Rz/GH267nUT4haotYZvYWv7oo4/gy1/yz7MRPl92M2LR/uWvfEWJ9I/89UfQ3d0dlPDh94p9utndhQXw/fffr9r8nve8TwlntmRzJ+uhhx7C7XTduD7unLCYZ7iTwtf3Jz/5qWoXD8zlc+Brxp2If//3f1flmB+SAOfj8HvP14fL8y8l55xzTlCCLdEO3knX9otf/AK+9rV/V2MRVqxYoSz33IH60Y9+FJT0f93YvXu36sycesppQe7kFLKsCfzlWPAjw/NeSYL5E8BffwH4MAlxtrC3kYhmy/dvfuaXmYw81fXg3epHa7z0Df6+f03p/X9Pdb46KEREg7HNKtCDMKuQt+wIwL3dDT1jqOmuiprCVuiQjjYS5R2rsHKtiTPaYqi60xfCU8EC//zlC3HRyZ1Y1J5UAjwRNSd1VWHYehGK9bJbVdu4qVNNcFQP18dlub9RrvCspX6ebZlYn9mlQkMKgiAcbc4771wlXP/4xz+pdRbULJpf9KIXK+HOgpZhSzYLQxbsbNlmbrn1VmVd/sY3vqUsrvydxuLvNa95mdp+889vVq+TwdZyPu5LXvwSnHbaaWo/FpIsSE866WRV5j++9p/Kuv2KV7wSa9asVd/BXO4tb30Lli1bpiy9O3bsUGUZro8FKVvIuSy3tb2jS7WLLdZcP6fTzzhd5Q0NDQZ7Qon2FcuX4/3vf586Bm9n8f7yV7xcRV359f/6FvzJ4OOymOVjsAANXYJ+QgKYj/f+9/1/4z7Y/PqRj3xE5f+MhPpkcLlbb70F11/nu4ew1f63v/utcjviXzj4V4l6uK1syeZz5za/4hUvUx0XZumylSovSe8PW/K5LHd4QjjCzmmnnaraxefB1vAbbniB2pajDkc9vO/ixcvVuXKdvA/n1XMGXdvnPvc6XH/9Der687V8yUtepMrdfvvtylLOsPsNu/vwrwqrVvkdvXoefwD4053Ab38O/CcJZzo19Uv38jX+9hVrSR/Mpzx6JFfpVPl5vtw3xiOf8V8ng+tgt1l+Xf8IkB4lDWL4UV8uvDQoRFgR/1e0yMEHHxKOE46KMKfPygkLn5tXc/Hff3ocyWjgr0N5FRK78UgSJ3euQarTwCmtMRg1+jQdIfiDWaDe/S8e3QyehqglGVHWb7Zm13cM6l1U+IuuWJ4Iv8guL/ydFAks4PuDB5Vyvcr1xdTHv8w4YkvZcbGHu/F7f78JgnAUUR/7E/i7dirYj5jF2D333K2+49hazuL4RS96oRJ7LNTZ53lgoF+JZLaAJhK+y0t/f58SZ7/73W/w3ve+By972ctVdI5XvvKVSpxGYzwnxOQXdfv2bUqAPuuyy4OcveH9Hnv8z6rM2WedFeT6sEsGW2FZtG7atD3InRyLnY+JqdoRwpbbCJ3L1772H3jHO96BF77whbjg/AvwD//wD+ocW1v3H68vFML19Pb0KJcb9mmvZ82aNVhJ15HbPxVNTc34xCc/Qdf29/jKV76CZz7zmUrMs+X+bW97u3rPpoKfL+EzZrKBjfV0d+/Ae97zHlxx+eUqqgwf56tf/ZI6lsZWswaCH7OnhK34jVx77XWq3ZyefPJJlccdHT4Gd4aWL1+m8kLYKs4+3jd+C7j7N6QHSnRO1JS3fGDCkt3fA/zP14Av/Q3whY8Af/9+4IE7/G2TNHscdn25+sVAmep86lHgXz4JfOVvgZu+RyK9btwq3zZchoW/MLs4KsL8RIY+l7hzY4+KwBLCYtjWTSxJLUC0hb6AO+nDoR0ZUc7fzSzKN+wewY8efhxDhdw+ejj4PlNUHBLUwTcRu9dwWMTwC96f7t9vd337J4PL8W5cVyjoQ2JRG1uGh1DFvl/sgiAIM8n8+QtJBDZh/fr1ykf59tvvUJZfdk9585vfpFxXnn76aRLS25X1ky2hLJYZw7CUxfPHP/4xenp6sXjxIjXo8DOf+Qy+8c3vKpeGRotqI/sbMB9+105exN+mH0FfAxaOv/71b5VgPuWUU/CBD34AX/zCF/Gzn/1MDQKdLjX6x+c/WaegXjzvj4UL5yuXkH/+53/Gxz/2cbXP1q2bcf/9DwUlDh0W99df/zw1WNaORJRF/m8+/nG89KUvn7SjcaiwCwwLcI7o84tf/Bx9ff24/4H7lV//617/hvH7KYRuKVzyHODy64BnPx94yZt8l5MF/nhaZNLAP5Og3vKUHz3lFOq3Pf/VwOnn+dsPxHmXAO//NAl0ekuXrPJdW3kwKFvmQ1afDJx0BnVczw0yhFnDzAvz4PPMn+sTLTG5oovfrd+JWKT+S0pDZ+tCtM1vwtLOPLr0hOr1T1bHdBJjWFX8/s+78ZsNGxGPWkposwU7xHE8ZUEPiUYMOFVd5TOu66EchHDkOlmQx6gLblP3ml85nGM9pWA/jo3O1nIOncg6P2wPww8mbsNgrkjXYO82S5Ik6eikuUpHR5uyPrO7BlvGe3p2q4GbDItwdltg4bZ9+w4lzF/84gmBumTJIiXmP/LRD+PGG3+KL33pS8razELy/PPOUpbtqVi2dBld9xp+9atbgpy94efBZZdepoT/Aw/uLUJZNG7cuElZ5Vet9Ad/Hi7hrwDf+tY38J3vfAef/exn8bKXvQzXPvdadX0OhUWLFqvr89hjvp9+yObNm7Fr925lMZ4Mvi5chn2267n0skvHLdI5ji14mIShDbnOb3zj6/jUpz6F17z2tVh30ukqfzqEQt409/0Fmd+nj338b9Rx7rvvfuXLzvcGD4S94op9fzFhocyi/IZXAFdcT4KbxHH9rdTXQ+t06Xj+wDe+H3jR60jIP3tiwOeBYOHPvuiXPRd4y1/5dTA8ALQn8Ixi15aXUofgjIkANsIsYeaFeUD9A+RESezX9Uh3LyK2jmidO0ichPiC5nYkW4GVdid9mCfff7qJNfN37nsM23K9JMonvhDVjKKlQGzzep3PeKnsoeo59EDy28fbI7apJhYK4QdIhKcnI6oNvxuG58XCm9tQrHiI2sFkRA3syA/Rl9vebQ7TZBxsOeZgyx5sOeZwyk5FY7nplJ2KxnLTKTsVjeWmU3YqGstNp+xUNJabTtmpaCw3nbJT0VjuSJQ9mHL72zZXYGsluxqw1fxz//APSpw/+9nPUdvYj3jJksXK//ree++h61TD4sUT6ue6665X7i1ve+s7xifCCbnppl8oi+hU3PC85ynR/atf/Ur5G4fwQEp2p2He8MY3qIGQHCpx27ZtKo/56le+ovzdV6xYrVxrjgSve91rVXt5wqV6WEx+5zvfC9Ymh68dh3Rs5IUvfIE6R56AqJ5Pferv1bV84Qt8X+5Gdu3aRe/Bs/GqV75SDdzkKC1btmzFS1/6/9T7xenc8yYGXR4q7AMeGsTqOw+bN+7dkTgQ7K4TWr1/+YtfKpG+/onH9vJlf/azr6RrWVPX+POf/7w67g3XX69+nZmM/X0k691LBurc7dPB4eoez/vA/uhf/VvgT3fRMYJyGdqPDWalkq9LmNt/BXzkLcDn/9pfF2YPR02Yn4iwNr1n6y7EGqJAtSU6EG3S0GVP7UM3HdT3Tq2Ar93+EErBg4K/FMKfF/nLgsVy6FvO+aXAKs54Xm08SgxTLDvKUl4/6DNFupz9ENlybgVfUPWwxZzFeYyOw/VzfRxmMSQetVGkzsFQJeO3t4GgaQdksnJT7Xu06jycPEbq3Bup88AcbJ2TfdbmItc99xrl1vCn++9XQumZz7wk2AISgy9TLh7szsL+6PXwQL9//dd/VcvPec5zVCzqq6++mvLPwHvf+24VrrCeHIfZCuAY4uyewYMBX/Oa1+Ccc8/DeedfoOr48Id9NcTfqR/72MeVwGM3iwsvvFBFAfn2d76jvsO/9jX/2PWw5b+eTCa9TwfBcdx9/Ltf+9rXqoGVHGmE3Xie8YxnKJ9rjlrzb//2L0qgT8ZrX/caFTaQI9JwvPOzzjobb3qTPysn18lhIrnOU045VS3zNbz//j+q+j/wwQ+qco1wpJpUqgmPr1+PN7zhDeravuQlL1Z+/mzlZr/3hQsXqWvAop3PuVgkVVkHX7PGa8FwXnjuPJbgfLrebJn/xCc+gdNPP129dz/56U9UWMXG+O28b6MVn2FRzr7p3Jbb77hDvYfPu+EFuPsuUr91/PymnykRH4Z0/MxnPxts8Qk/j/xjwP4+60tW+on9zr/7Fd+//NPvBe6/HRjsB1bV3aZsfee6+JXx6NHOp3/rD4C/o3143//5d9+fvHP+hLvME48Ai5b6Ql6YXRifJILlGYED6g8OnHgPEP5Zan3vAB7Z0Y+muN/9TUQN+tAm0dU2H53zNKyM0cm7/s+LhwNfu+8++DgyxbKamTMkFOL8BeGS+J7M1zH0Ha+RkOat9YNBeRtHZuEJGVJJC9GIRqK9qqwFYd0hoYWcj8GiPHSX4UOGRVm4ZyplLEo0T/mlVF/+QBxsWakzWDkAUmewsh9mc528vnCxP+hrrsFCadWqVZRWkhB8o4oBHsL5bLVmkfaWt7xFRWEJYWHI4fOuvuY6EpJxmCZHQzFx+eWXqdjaLPK4DFve2Z2BBe9FF10Y7A21L8e45s6AbdlYtGgJrrn2OfjQhz6kxCnDsdF5QGk0GqP3qIp5XfNIpL4En/70p9Xg1BCOfQ6thiuvuHI8tjnT3t6Gzq4OXHbZ5coVh+G6+R44lzoDHBGG4ecAhyVkUZlqaqLvbEP5RF9//XX4yEc+qsIMTkY8FleilM+RJ0jisIXve99f0TFaVJ1s+T5p3UnU/ohya2E3IZ68hwdccsdjMvhascvQokWL1LIaJLliJQn0K1VH5bLL/PAhfG25IxCN2SoEY/37xu/pySefpOLNp1L+c3T58lV0DXTVXvah5/Zxh4cj3ESjCSpRxYL5C3HV1Vep+PKveMUrxi3hq9ecRJ8NDZdf9ix1TzTCnSYOsViDidbmJjV49kUvepG6LiGu6+DHP76ROmNZujfOVJM/1ZNsYkMZHesUYC2J6yk8fajdvotJcys9N6l6/ii3d9G9Qm/lNS8Bzn+mX4ZppbfNJVF+0pm+6OZfzk+nfeN0uuwOw9FZ5tPt8gy6pM971cTnfyGV3b0LOO/iiWgvwuxg5icYGgaeWj9xk50ocFD//7jtMfRlM0jGTJVKFQ/LutZi/pI4FqdKmF9t2e9PUgcDH+drtz2KkWIBEfpCYn1smDFETMcfuKmZtEyZASyO2Q+cMUh0+/7f/hcTi3Cehp9hgc7CnKfaT8Ui6GhL0YMFyOSAIh2rSAK7Hhbj/gRF/u2i/tKfsuuNCwSHlnOFCs7qXIwkf9sIgnDU4O+ac3mCIQmPJghHHP7FgX322U2Hl2/+xc+xiHvCgnCEOSpyeWal/7GBz6k7Pab8y60gVniMRG8iEUFzMwl1PXnYotwwa/jdoz3oGcuMd2zYI8XUK/SqKV9yl7rSxYafOdWU+QS7sNRb0dmqzu4mTH2kFl9QV9U5sUHGoC43u7TU0yjKudbQnYUnK2K4A8ADUnvy6SktBYIgzAwn4vesIBwPsPvLa179ahV3nqP8/OVf/qWIcmHGOCrC/ERkSx9PXFD1hantW6TjTR1o6SBxTqK0SZvwRTwkSPlmig5+sX4DbMv3B2frNMMiueBMCGe7TgWzLzinEJ4+v34wKIvpUGCzIGcKFQdOpaQ6EqG/fOgCUw//7MiJxT6Lf7bOc31hR4DhfkDGLarR5oIgCIIw2+HxC3fceacac/Dud79TxbkXhJlChPkhwJr1nm1b1XLoNqJpOjrjHUg0GWjxNLjlZpV/yNguvvr7hxCvG74d+n1ziEatWhgX3CUS1vnShOsJu7uwIGdYKNdHYOFtodWcFtXkQFwtu66M5fxyqYR/zEarOcOinhNPSsQdAD5/FushPBMob9+U61XHFgRBEITZDI9R2LRpIx5++GG8853vDnIFYWYQYX4ImHYVm3pySEUt5cdtmwaS0RjizRrmR6qI7BvUZFpwuKNNOzMYzBSU6B0frE4CuhJYudlqzYLarYb+4zwDpz/a3JfvPlyGB2qGIp49WNi/nF1Z6suxkC+XiyCNjwhP+WuYe7nBhHB7fPeXqu/eQnks9v1t/iuHY8yUyyfcuAJBEARhbpJMptRg3XAwqSDMFCKdDoFCsYq8U1GhjtiVhaOaRFOtSCTp1daglw7vg8tC964d25AMRoPzuooPTsuhdZrFMSfUfDFeAfuFm2pQCovxekIrd0gozBmO1uJS5ao+ei2XfWt6LGarY/EERvWwSw13ArgZStrTfy6nQicGh+B13r6lVDc/sCAIgiAIgrBfRJhPExbju0oZJGwTNonR0O7cHGvG4iRHOmGxq7IOmVzBw86BXLDGvuA8cJMHbPrCWAlyggdzcp5Xo86AV1YuLUoREyy8w0mHuHy9GOdp+rkYr7N7TCj2K65LdXD9oA4GV8UDW/cexRnGLg+n6OddOdqLH3aRBDttC6O9DI3ROWiHeTEEQRAEQRDmCCLMpwkLz56dJRW9hAdlqinx7QiiyRoWdWqI5NnH2i97KLD7x47MoIonzuTKZRQcB+ylEujnIEShfxAW1jr8srzs8Fy9apkHck5MOsQRWsL9GRbq4XrF8evj6fcrlTLKlRrYUG4HFvvJBoIyvuXcd2fhxDOQsmsPC3SOL8tkys5exxUEQRAEQRAm56gIc9aGJ0piNo1NzAbH7iNRy0ZT0kT7Aha57DYy+b4Hk5h0xndPYdidhQeAckegXBfppFwXCSW0oO9DXXZ9ZBaGre1h9Bbl6qKWeBBoBYWCf/zmJClqUtWNVvNGQl/0cPr+sDKeDXRXeWifc5QkSdIMpL0/4oIgCMIsRCzm04RdR4YyZcRtU1mdGbYusytH3NXV9sOCqmTRzHC9bLTmiX/4wVtPGDuc88NZOJl663ax4o27r7B2rhfw9T7nTFiOKVfKyBX8fWLRmLKKN/qaNxKKcx4Iy4TrxYqLbLWolgVBEARBEISpEWE+TRz6N5xx1IDMGClmFud2LIa2hIGy5g+8DDTpIcFWr+aUpepgd+5ymd1QWOiy+A8K1cGRUUJ3FaZ+mV1KQr3N2fVinP3M61bVNk4ck1y5xLBjO9GUpGOzu45h7iXOp3JvYfi47NLCxCIWhvIF5aIjCIIgCIIgTI3IpWnCwrzCSjkQ3zzrp2nF0JUgQVvSoDmHd0nZ4r4g2YyIxYLbF+M84JSFeiiyOXZ4qKlZTIdi3I/KMqG2eTmclZQJLfxMvY85Ux/Nhf3UeaazkEQ461CwnUU6H5Mt9abui3adG1kHDxL1Y5wDo24epcD3XRAEQRAEQZgcEebTJBS+ocblAZCxmIXmhIYg0uBh05GMY2FbHFHSw9EopVAXB24ye8UXp8VQULPYrtY5mrJ4LlX8uOfcTh7kGcLnEe7H1Lu5uCTSSzzhEE9uSsRjUNP0c1jICL06nqtEOXums5sLr/Nyoy86H5MnIopYJgYrObGaC4IgCIIg7AeRStMkFOaxiC9CldsGpaY4UDf55mFB+hcrF7YGaz48+DMIkqKip9SL86jtu5hwuMS9XEyoqeE2HvxZL8QnoxK4r4SUykU6X385GffPl4U4D3bl47BrC88qqlpClXtVT1nQ6+Ft7G4zWMoc8PiCIAiCIAhzmRkX5ieSFmMtzKEEQ0IRzOIz1MlHQnyyF8mZXfNQCmf8bIBFeePgTYbzwzCFTL3rCrePY4uH1G2aIMjj0IrKPYZSeBzb0pTVXIVHrDs2H8OifM7hbbwfW85D6znnsVuLaRro99IqTxAEQRAEQdiXo2IxZ++KQOfN+uS49WLXXzbpBHlbSOM+h5LmpVJoa2b/bRK1JH4NOhaLaT6k8u8Oj10nxCM2CWTemeCtbKkO4Wy2bodotI2rCEMmMqEV3q+BI6qUMTLmx2jkw6RM3++cxT8XNTSeUEijOhwlxLlNYbt81xbfes7iPULCfKxUVvuF5yhJkqQjlwRBEITZz1ER5icSPG09S09OLHRrMGCQeI43uHAcLix6L1u6Ts30qcQu/WcLPQtcnnE0JNDBCnZFmXAl8Wf3DIWyitBS50fuW939/JB6C3so2D3XpXr52NQJiMepTFB/zVPi29Y9RCxbZfFER9xR4M4BJ+5AhINC+Tgebc+5dcHYBUEQBEEQhHFEmE8D1riFUlpN+sOwUK7qPPkPX8Yja7LiwC+nrWoat5izIOdlFtQ8qJLhqCdhzHOGhXKgw5XIrg+lyELbDicAInh7WDaEzye0uIeDQfkvh07kQ7Kfe0dbhPblcIjsZ26gqtnUJhLkhgavpsHWSiTCefZTP+xivdsLi/NdpWE67kSeIAiCIAiC4CPCfBqw8beUaw7W9oYt05nCkRWcumfh1KXtJHCDjAZYWNuqU+ATIeU84Uqio1CeGCTKorg+KovrOHsJdaZUccf3Dy3pZadC+WoRK1IcfYYHoUaV5dxGQeXHMUZ/SaxTnqvFYYLEuRG41dSJf9VRoJa5dZFjhP3D3kA8GDh8pT7RXkkQBEEQhBMHebRPk5zmi1EmUieKlZ4lHVpnID5s2CX88uVr/LoJtpAzsciEoA4t4kyZxLYOF6bG4QyrJMopM9jOL5G6wZ8cxlAJ9TqRXD84NLR0sw8509Wko3N+DScvtnDBGhOd7RG4RpPalqu1qvIGPOWXnq1w6EjfH73eYs7wcXsdGQS6P/j9ZtE9kCli/Y4R/HnHbjzasxGP79mAnbu2YHvPZvQObMFAdhsqxRG4FS98m4U5TN0QEkEQBGGWIsL8IFHCh1KuOiHM66nRlawFAvpIwcdkEb60rXncMs6v4cRB7G4SWsQZHmxZhUnN1OiNrSJmTUwSNOE/XkNUd6iER0Kf8jQdlmkgHrXHRTRXGVbL7jFMKsF5vvuLYVVRKbsqnKKyqFPKFIoYypaQy+WRy2QojaE4OoixdBrp0bR6HcsWkC2UUfAqIiSngK9vHwnyhzYOYvdQDqVqDjXPQzN1dpqKOhx6r3QjAj1uIkH/ajXqDDm9dF27US4MolLKwKlklUiTazzHkPdbEARh1iPCfDqQaHLdDAnZYJ3Q4VuvQ8NzKGiPFKR5cdGqJeqhq8Q5vfLzl/3a648VI7EcMTimuONvJ/FNEpoKV5RPOidbcxHRPRiRGDTDom2+TzrHOOeBo2GoRRvuXtY313Wxs8/Bk9tKuPX+Mdx89yCe3jmE0XQGu/rT6O5Lo7+/D/2Dw9g9mEH3YFal7SMV9AznsGckQ695DI5mMDSSxnA6j0KtGNQuMHzpC6UCHqFrvKWvpN46GPRa48G+eRQN3w1Jr9nQTQ/Rmkl5GmpWhd7XCKI2dawMF5qdg2kX6P3to/e2n+6FAjy3rER6mARBEARBOD7Rao2+BkeY0WHgiUdJUEx4X8xa2Mf31ke244mh3ehIRdDRHIcdS2LtyoW47nQDW3pqKPdx2MBghyMED7r88aOPI1f2ZzAytTLcWjDbEBHMwakiorA7Cg/GjAYDVNmPnCPJNEU12kdHLMqCnFU3NZLeFB5YqnkVeIaNOIl9VQ/HT6F1rerAsCJU3EPZqSqBni+7pPWLSJcMEolFEo0VxOwydVBMRKxmNclQlHoufFfxdRjJFcGTj44VSfx71JnQTSQsB2ctWovFTS1zXiiqjlHNRfdQGdtGaohoDuLUqfKoA2VqNRhmga6RgaReQdTjd5r2aYmi2eRracOqafQeca4OK+KpcRDFjIamzioJcpPy/EmjalUdlWKLyqvxzzvEkb5PhWOLR33xC54FRGNBhiAIgjDr8J/QwmFTrNZgF2em90F6GOcsWzA+vb4vyn2TdswYU2KNYX9zFso6iV+Q2ONZPw0Sd6FvedwM/BtIvbEYt8BT6Wtoi1JeKcde6XC8GioksmNeDg4JwrGRYaRHRjA0nMaugSyGRsaw0N6EF558Oz7xwh/i48/9N/zVVf+C85flgs5KSol9Vn1tMR3L2xOY19GOeU02WmIeUiTih/PU1rIfznEuwwM6c9lB3LOliG3DNcRIkJuVMkp5DwZd+6qepQ4RR7bRad3/qFb5lxJ61xzDUqKc8ej+0A0S8lac6mxC87wqcqPUVbLp/XUTVGczbLQiGh9FS2oA8USe7hE/9v5c7xgJgiAIwvGECPMjRIbE5kzB4mlZqgMdTTGWzirPt51Sh8Dzo8S0xz01wZCpeSTOuQxtJ+WbsDxE9cBqyoKd8jSnoNxW2IWFB2yOVWOINrWqMhybvVQsYCjnoJhNY+ewhz3pMk5uXY8PXfF1fOr5/4RXPfOXOG/FAzCcIarUop2akCl2qP2jJOvtaJzaQ8KSmmCwRbhUQDxioTkWUQNSObW2R+bsYDXVIakV8PRmFw/20HVwNbBh2y1Tx8vX2kBkmP5oaLYdaPR+hu+3RoK9VrWhewWkTT8vEudfHproPa3BsKmj5rQj1V5FYUwjwZ4nsU7inj/pbE43DXQmXSzszGB+R0Z1DmTQoCAIgiAcH4gwP0gmsyyydZkplVzkS+EwyZmBQw2e2jmPxJWJqFlVkwxZJLj8ZWpLVUPKKtI7GiWxxVPia4gbLoljnjWUgyfWoFVdEuVcxiTBZvrx0DneuOfAKeZQLORRLeWQL7roGfOglXvwpvNuxidv+CpecN6taE6kYYOt9Xzb6KgGUVlcjsait8KiV0+3EEeJ8gxU6PqUqF1RHmRKcGeAr2NLMoYUtXMuwkI4OwY8uqWGPW4BpqsjWqG31a7ArDp0jTSY7WOkoaskyF2UK3E00Xvnkpp3ItSxSnp05XN070XREsxCW3XTiKccRLQKknozmuJZJKiz1Nyko5jXULVySNlFtEYiSJgxNUCYJ7Di6haTQO9spV4lvS9iPRcEQRCEY4sI88OAo6OoxKLJ9V0KZgq2ai7taFViKkZKPBHhqCsk2Ej42iTQecZPZYkl2aWR6GIf81LVd2FhQcwTALEIr3F8cdrO0TxY4vHkQU6pCM+poFhyMFbSsLR1N153zs1499XfwUmLtiLCAwRqNiW/vhDdy6rXKm1zDd+xld1jWJyzn7ryWaeGB1EeFRxF5qoVJ9Hxqc45Br89m3c5WN+XRUUvwSBRbrDrkFFCtVih901D2SjCNl24JRtxEt8gwe5VDVh0n9VItBvUAWTLd5zecx/qnCUjiGsFxO0IYhES6NTpiiVcuk+SSMZryIzVkK4UUKYOmF43uZPGgyaIRNTDvBZ2b5FoOYIgCIJwLBFhfphwyMKKW4MKCT7DoiZuRLCmM4lK1UbB4XCJGokvyrc5fKJLgjsGnnUzYpOo0x2kjAosjYQ6iXB/9C03kOQhCWflh05ijQd4srV9pKhhGQny91z6r3jled/ASQu2keJmq7ZvlZ0Mz2yhzQ7S+kUkxIFUyp9UiEU5W+gzSFDHAcg7/oVJ54tYtXA5oral1ucK3GHyvCr+tHUY3XQNTJNDRvLvC9QZsjwS5y50um5upIxIsgCvYqKdOlOWXkaU7i+HrnGOOmN2kd6rWgoxusKm5l/DZFuVOk5FJKvU+TKpk+j5IS05RUwHUctCMlFDLs2/nHAQTY5MT28KFajx4IWACInzrsRosCYIgiAIwrFgxoU5i9VqIFpnc1Ln4r8oeNn1PDVbJlMo+nmT7XukElvNT5q/CoVSCU2RGiKWRuLND5tIm0mAlxGL2CTG/UGioUCrkqAntYcavfKgT83Jwy1ztA9gtGzCJqH4N1d/AS877+tIRehEvITa/0AYbprqsPDo5ivRZPrhDyMR9oH2nZabkFfuPqQtkS9XsLpzAda1zFPn0XhuJ2ri658ulnHHloIS401GCcV8FbrjwDMs2JUih0ai969GnalR1ZGyLBdZeh9KOl073UOKrpfHjvlEJDpKnamJj20Xdapa2aWFLrLGLku6f3GTcbovqJPGwjxBt0M8WcNYuaxEOZer8ZvSQMS0MD8yckJ8XudiEgRBEGY/YjGfBiyNiqY/yrPIA/UCnCLJHXowVmfQlSUkpttY0uX7dvNAz9BSDj2BtmQMDok2jlU+GWzJ5kGEvsQDKjUDLz/953jbJV+kNToBj+rVS/7GgyRdWoKi1qQGdIYCIRqdcFNhYZolYbow1YU1HctAenTOQH0mjBRKeGRXBangso5VItRRClyM6IYpR5Nq2bMcFILL1uSYaHHYIq4h6fGEUUBb0b+5vDFDuR8xUa2C4WAAqHpTy5SfpQNleKInDwZonfIiJN45BD6/R24ufH/Du6AOevN0owJungg9YS4zMjKCf/jsZ1Wo2VwuhxtvvDHYIgiCMLOIMJ8m9UM8yySQ2GrO7ixZnnXzKIiZKoms8zpXkcT246XXNEtNeNSWMFCoRpQoV+4KdbpL99hSSvsGTvAFEnvLWrfgHSTI18x/EhZsLsUl6H84KNMvuz88O4LHB1+GlOZPsV+p+H7rISNFT8UwX96xBCvbFquwj3MFJcoHgMd3ebCdGvI2D4eld6ZKnaNA9br0rlQLGRQjeZSMYcQiphLRvNXTamhxOWZOjbZVkXcyah8m6vrXO14y0Zrd21efXcjLbGmn/bSSi1GvAofrog6RTW9vxqI/XI4LNkLK3a5piKb6+UYXhOOeXbt24corr8QLX/hClZ5Ny7feemuw9dDhORtMi78XgWKxiB/96EdqWRAEYaYRYT4NJrMisk81p2LeRZEE1EzDbWhJWkgFscmjbAqlt5EHeprVHAnrsorCMhlsK2eh9/xTfoEbzvhJENecLbMN7dZIQWucx/VModCMHJ7oeRGKjh+ukYlGTSU+SyUP2TK9UjXLUsuxJNml3FfmCqH7ymPpLOySpoSy5ZSg0wPedPxJolwrQn8qJM5r8PQckrUSCe0SEtRpMkkc2yTQ/YIOXeocLE+DUwl+rXFtRIu0nCzBivsXVr3l7NBPUB8AtXQJu+l4o+s3Ib19C4n0QTSV8lhO2xNuiUMKqbIhkRrtRL2JmmUg7nJldKdM8dYLxydz6TMW4jgObDuCm2++WaXb/vAH3HDDDePb7rrrLiWqt2/bjrGxMfzyF79Qwr0cTNbGbN68SZW55Ze/JBFeUHlNTU145iWX0EfCf0RG6BiCIAhHAxHm06SW8wfdhROm1kjE8ESaShdNIYiPKHQIdgdZ0TlfrVarHtrjGmqVjBpgWN3P03lZxy6859LPYV3X07Rj8KBhEc63gcY+JvzKqo59GdhaxOKwzvSuoAYYWWwcezF6s6fAQiXI53ZVVRuKTg0VLYrT2k5DSyw5twQenWvFLeKhbgfxQgSFaBUREsKuYaGq86RBhi/KCR6MGeNJgFBGq01imzpJFZ2neeIBmv5151CWGu3jcR2Vgkr8q4RH71ey7Fv0GNOgbhdde4Y7Bhx9Zc/mAUSpXNf8JsSiEXS1xZGIUCfBLaBNK6HJ8UWITjewQa0wDcCKaIgrH/PpuTQJwrGAw4sy/H3MbieceJlF+Wtf81r8goR4enQUb3jjG/CmN70RGzZuxN13343Xv+71qkxPz2585CMfVWX+dP/9VOYtqFQq6Ovrx9vf8Xaqj78fBUEQjh4izKcBC8yS7Q9yZK3pW8vLKGd9B5dYOQxZOLNwR2Bpaj5iloW2RBTpQgmpWASJqI14ZEKshfCza9l8A9eedBPt7FvaFVp5Yl1ZzvmV1JkWiu1Gkc/hFgvYmHk5dgxcspco57CR7MoyzAMbawmc0rpK+SrPNUhr49GdBfVa5NCFugsOF2+TQGYXltCNhbG9CspWH0x6Q81yBQZdw7jHrinq7lKDaPnO8pwiqjVPJbaat2sZJAtUd8p3b+GILoEmV8vsDMOzwKYyvWhpTSqJn2pKoZxIYGR4GGPpNNLDg3T8MXR4edpmwaWOQVO0hkTSRGczta2WHx8EKgjHM319vbjmmmvw3Oc+F8985jPRP9CHbDaDJ596Ep/5zGfwjr/4C7zuda/DWWedjQ996EP4x3/8R2zZuhUDAwNYtGgxfvrTn+J1r389PvjBDyqhvmdPD313Bd+HgiAIRxkR5tNEq/pWRkaFSlSBAoF83jkqPyWz4GOlxYJpaWsXCmUHLfEoiW+NBOC+b2dnXMdpi1JYmGrBo+nPY0f5UuWGAvYhDy38RjhtaeDeoKzlDB1IlSWMDIrVNty59ZPY2X8+nfXEKE4W5bmcQ22pYnlqGZa0LDsq1+J4pOA4yNciWJBPwOOBmfS/mtTUrymxpIFKJM7zO8FwynDVDK3AIlLVfmSWBug9ZVHOFNwxlXxIenfEADOu1ng/vh+SLlvfGQ26k1ZhM6MRDxa9lkmYRwoF9PcMoZwbUKVGxsoYHhpC1NTR2hKBFo9RP43e2VQSJ6+LY1FHCRxpUxCOZ+bNm49bbrlFpdtvvx3zuuZDV+Fh92ayXxN5YOdb3vxmXHrppXjjG9+IUkl+KRIE4dgy48I8tLgpd49ZnhhHb0Iu0LH8PV8J/HqP5nkqsUeCaWHTAtjsfzAJPKlPhDYtaOdJZkh0kcizKiX0jz4fG0f+FlnjdL8gC281XzvDtlU+EToIW80N7oSQOLRb8Fjvm3H7zg9QZySCJp7lKIA7JCzKrepiEv8nwdASvqW1oc1zIfGvJTuGyuhEFJ5FYpuuf4zEN0c3VFeWzdq0wJ2rmOmhFE1TJlu4ATvWTPvr0OO0n7q8PICXt9A9Vy2jym5CY2Pwai6SWgnJEl1knTpQtH97qkadsxrcmAGDb0Tab7gvTe9N4C9LotuiG+L+ux9CoeAr7RKJc6c0RkepYXh3GpWKC8syEIuRmKcUiVpY0OFizfxRFW2Iq53snCUdP2muwp+TSCSiUjQaHf/cHAzf+973sGr1atxzzz246aab0NzSFmwRBEE4Nsy4MD/RsAoTg4BCUc64FXoYBOL8aGGTgutMdgZrE0RJ2LXHdBJVKbS3auAZHTlpmkf7eCiUurC59w14dORT6M6+Dj3ZKzHgrYYb7VApZyxCf/ks7Epfh3t7P4K7Nv4F+nKnosnw/S3z5bJyW2FR7iGFDns5CcPUXvG15yKek0PZqSDTVMFYRxm6oaFi1VDVXFQtDZkU9XUiJIXpPvH4/agWkfBK6jeXilOAaUWVhTrp+lZyp+z/WuGSMC8Nj1GGi4Tri20rQpXwMt12JYd/vSGxT8dqS1aRjFSRao5CHxjA9qd24anHtuORW2+j29NCMsmz1FJyTGWNL2X74Iz1Y5TEeW4go6IMGZaOaNKGnYiQUDGxomuYyqrDCsJxhet66O/vw1e/+lV8+ctfVm4qDz74oLKOh/7mIew7HsLbOa1atUr5nN95x534OQnz0ZEhEvhRhBGswt1z+eCXQ0EQhBnG+CQRLM8IPMh9oNe3Es52+NfRx7uHMVzMI2Kz6whbNU20J9pJzGhYELGUS8nRgh8aFomokaIfPo8FuU1iMGJqaCFhtbAlBXr8wKB1ngLfjVahOf4bofMkRG4MxcoipHEO8tnTMDB2iZ/S52FH7kKMZjthk/A2dFMNJnTGB1ZVSTTG6DiL0WK2Um3ij8mkKwPorZL6DjBJeJdMdlGpoGoDcRLDWtRGzK0gbwzRw7+CtvIYvWcx6HYMll1CzYkiiQLGSG3zwE/u7XlVF0/0ZNAVB5Y2J9UkUs1t/Ga3ooXEup3UwUF62JedBxTwjygOdxDoLS5W6OhDI+hYvhodbWydd0iYc8EaxjIWJepguXScGHUkCi6sqkbHJVFTow4dVUh3DJoqeWRdizoAfohO4fiEreaLl9N9N4c+jslkEqtXr0EikUBrayti0ShWrlyFefPnYfWq1Vi7dq2KrNLW1only5di4cKFar/Ozg6cccYZOPnkk7Fq5Urcc++9KJZK+PCHPozlK5bDti3MnzcPp512mrLEL160mPbnmEaCIAgzi0ZCa8KkMAMMDwJPPOKL2tkOP/C++aeH0N1fRDLBU+GTGtJtrOtYh3ibjnOaSFyRMD6q0OG25LtRKGSU+0pHXFcdhq7OJsSUUiPNFXdQKlqIRB0YRg35nA3XqsImwefWbOjsewIT2XJJRQqJmiZy5TLcOp9M9iP33BrKJRNJcykiFs/wGWwU1P29ZXQM/WpiIJ+Sm4eOIr1FdKHoYnlmElEtCa08gExpFBFnFCm3TJ2bJrikpqNGBCaJ7FrRpg6Qh0rR9ynPloewfvMozlvbhtNbkmhpSyLVFEXNbscCKue1ThzTMwzorqcGeT69fgcJdBdLlnZi6dmnorCnF4XsMLKZCkZHK6hVRrGpZKOLbpx5rc1ILo+jFXG4C+KY78ZRiUVhkEg3HRLzXg0P9S5QvwIIxyds5L3wMuqgx4IMQRAEYdbhKzdh2kRJmIbk9ayyJCt9e7ShbtWyWLtabIvpymLPVvQYCTSl2imxtbtWYws/i3J2xdEQpf3Yv1hX8bLZmcIX39X5NVQ8DzF7IrpLsejCyRmIuWvQFl0Bm+oWUb4vZRLhe0GdIKNWhueU/LeCKNfyKFdc6hFTvkudqXB0JZui6T1x8yMoF0bGRXnZy5OArqjxAkuCsrmMP0CNulR7iXI3Qu8t1VOjNycc6Nbe0YbmthTsYhEtrS2wok0YHiljrbUVp7XuwPWtjyOFArpHMxjaMIoKHdvsLWBocAjDpSEM5YfgVvKwa1nEY1WqW1UrCIIgCMIMIML8ECkFE7Q47NwbcoyMiZYWR6q5JZxfRk30kyEhxkrPMFwMkHbjmR6rJM45z7XYJYVluYZCsz/RxlgxA4NEndZbRoGEYDpf8EVYbgFS2gqkIiv8Xz1EmE2KW8ki5/kdHKZUy8HwfH9wvo5Oxb/OGkfyqXLM+TASTgAV8twc3JJN75Xf6WOLu1P1/WLXJfe9uSqVIRijE87fpmnAcF2MDY1iqD9NHTQLbW06Ou0moKUJ6dE0Nm/owVktG2FaafT39CGbd9FVvA+rc3ehNDCILVsyGOylzgEJcmugBCNdwWi6QG1zscCUGUEFQRAEYSY5KsK8ziNiVtNoLdxLlDPHTLRoWGEvUtZQhif5YTeUkuPCcQ0k0jp0vYYRDmhOmI6OXNxVvsQY1JAtkQDTI8pSXi5EYVQ6Eakso7QKthWHru0bG13YG3Y9Qdm3XnO8cUaruXCpt+S6FXpPajDdMejVMSpL151dW+iG4X+lahkWipTlfxyrVYdEeQ5erYJqNovR3SX6pO4tzMfS7CJTQ78zxgf0M8tlNWnK4HAGvXuG0dFhINXSAcxLoUodrfLOu3CS/TByuTGMjuSQaGpC1NbpuFXq3BUx6mYwRPdEXx8J+2G6R9L9SqCzxXw440ErDx2zzqcgCIIgzAXEYj4dGoS32yjMjyU1DfOMxUjoXXDzvuVWWb4LBYwVHKTzFWijbOkfxQiLtP4yRsY0El4m3FIS3lg7zCIJ8dpSGLUmEvIixqfDSN6Da/nCvEIiWyexzVEhKk7Zj33v5ZWm9RN3inLsea6oeAXkigV6LapwiJVqiXS4gWq5hOG0pqL/hBEt06O+i0shV0ZmjMQ8/SsOZVWeW8hh29PbsfuprWhta0Ei1QTTMkmUk+D+8/1Ib3uMRHkelbKDRIL92NnST52ySJS+CXTE3Sx13gykqYWDQyMkzjU4FTqvchbl3CBcp0DtnpjKXBAEQRCEI4sI88PADAZXHk/ErHbldmIWVsHItatUrSTgFRIoj6QwWlwKq7QSen4NbG85zOpCWNUOGGaStZlwiIzWQrcVtobXYJC4dlxPifIaiW3QeqHkoEii2HVG/LKUKvTXJRFeC2S6V3XgUNlKtYiRgSjKtBzJacqq3RO4uOSDQPr5bBmlbD9yKGOQ3VA292Ls8duhpVKwbd+0XXOL6OvpRnbnnYg2tSIe50mHqB7abNs6Yok4mpqT6C3o1Cmg41JLSlYbCo6LbCaL/gEPmZw/GNUtZVSEC0EQBEEQZgZ5yk4TrxQNltiD4Jj5ruwX1oYcnlI3W1Qy3Hkwap3QjBak3CR4Ao4wfCWPORQOD/a990q+aGYHFY0Si/CamyNBS8K7MqgGejKaNxEPmaU429h5AGjESCgxzpMMhcSsLIaLtE+ppCzm+WFf0BeLJWX5ZkbHIsiP9aOQ6UNu2z2IWH4HIRH3fc8LJQ+1zQ/AtG3KM2FHI0qMx+KU6DUSi+E3D0fxnS0GopUSxrQq8t4YCXU6RsVBoVCE5+kYy0S4vzHegRAEQRAE4cgjwnwasDAxolNP2ewGATaONaztWHDXJzbP1hs7RZAfOdwKCWC7GbGyAa+ahzk+sLNK2/rVUq3GEwrtPUkJvwW9Gnuaayr6Cuf4rz6RqIfEmIGm2GiQA+zO+tt530zGd2HJ5mzseXIIKWcH8s7EhFNOOYNizyOwYlklyiMc/tAwSLxbiNkRrH+4jM/f342vP5XF9Yv8+7q6J6ms8zwwpD/vR5nJZnPKjT1N4lzTJibYEgRBEAThyCLCfJp4xYkgwY3adorZ8Y85SpzLOz1jVL0htKVtFCMeDBK0HHZS8zLB/THxq4pbGYFpJ4K1ifvHgT/LoFZ3R3GIxN50nXV6xBfhXdGocjNhq7lTcZS7CUfYSbhPqO2OllSvTLGoIV7sUWLcjkSUG4oRjVEbSGCbFrZbIxhz2/HpazxcvLIDHdEqsoXdqI74HQEv+EWIhToPFB5wU9KhEwRBEIQZ5KjJNY7xPdsTY8QmYlWzS0g9bDGfbD9JJ25it6ERjv1t6NBdF2bVRansD5B0KoPqlSnrVRQG00q0h4QfvjDgIbuJmEEEnIznoFQ/uDjvW7R5RlCj7C/z/VchcT4yPIqIMUaC26I2TdyTydwOEuVVRGNRFUoxmkghSsJei8ehN6fwqmvOwdeunY9nrO5QfufJ1N4z07glvy4exDoyQm2PNqkIS5NdB0nHRxIEQRBmN0dl5s/HH9rbjWK2wjN/fvvBiZk/TV2DZkSwYsFidDQ34fRYHLFg0J0wN9B0D70DPUBpKfZYoyjpQyjmh9U2p9yrXkOqXg1Ftx3NKfY7963SbVVd2dQTgUy39Kga/OkNj2DzaA2nZnvRN1hBG8/H35YC4lEsTUQR5Q+UZSkbe7l7D36x60nYbhXXrDsHsZYU2hYvxPz8g0g2e9DsCFIcMcY0UY1PiO8aiXqnVEFxsEBlyhjqL+HbPSuxkI361CgXcZza4Uea4TZaK6+BRfe4cHzCM39efOXcnfmzWCyit7cXI6PDKBUlepAgCIeOZZlIpZqxZMkievVDUR8tRJhPAyXMH3gY3QOF8Sn5nZopwnwOoxsedo8WYOZTSJsjGKwNoVQY2UeUMyzMW8eeQq3rEmTcNOwyCWPbwryaATNwY4kYcZLoBnIDO1HePYS1qWHc+7iBxUuSwKIOwNDRReK8JWKrD5VGn97+zVtxe/p+FPJFXGBdhNNWtqDt5JOwOvYQCe4ozDgP8gx8wzUe+GugxiqO+O1Pn8LH7v01bn7zKxBJuPjepiWIGnSYlhZY5QpWJHxhXtUtJE65hhS6vy4cf8xVYc6PsJGREdxz74O49FnPQGtra7BFEATh0CmVSrjrrruxYsVKrFq1QrmDHg1OALl8dKmPysJYJ0KPQzhkeAIhIxsf97323Apq1YnZOOsxdA0vWaBheWEbCfoEKhELncOZOi90EuapEoqe709+wdIBrOgYRUtLIKp7htSLPjamBDbDk7k+66wSvnjDOfjY+Uvxqut9i3Z7eRe0SExZy+0oiXgqr8cSMChxHqeqpuNzj9+DU045Bf928z2IWhOx6y+PjMAOZh1ldJ26DtrEzKaCcLywa9du7NixFc9/3jUiygVBOGKw6+fVV1+FeDyKRx55LMideURVTpN6H3PGq/MZFuYerjsKzdDGhXlzlBbClQaoGNqXrMVVpyZJBFuwHBeD7Sm6hyZ8yZ2ihbjZrJaj8NTkPxes89Df54dBRPcAytQZHBxJq1W2mCfjMbz8P2/Fe257Em/74a/RtaiI5o4cNBLaUfpC0QzDF+RBu/hVNy04VhNyuRy6u7vxoJdDMfCN396no7ndRcn1MFz0/dkzzSuowzH5eQnCsWKMOqnd3Ttx7rkXjN/fgiAIR5JFixYhFoti586dQc7MclSEOQ+QOxEIJTi7sUQtPwSLbYown8toNQO6pis3p3jMJPFdQ9IpQjdIfJtx5RYSqWkwdBOvOelUErwm2lt0LNczJIxNJApllFldB5TKE9b2plQSZiSOVUtdtLZNhCkcHSnAcF1ofX3Qcxn839Pd2Nk3oAadpstF3NQ/iFhzTIlynToARtS3omu2DS1KeamUWue5R3kKf8al+qqGBd0F2tLUrngNXoW20f48AVLXvHWqnCAcT2zZshVnnXVWsCYIgjAznHLKSdizZ0+wNrMcHWF+AmtXDlXnv/IftSjMIZxKCobpG8kdy7c4t7VH0Ry1kIrZaE02o4V6cvOam7Ei8pAKnZHp2Y3Fbo8qy8I87lRRCwRyPJgYiEkkqzANDRFbx4o233GYXWdQLGMsU8RwxYOWy+LXm3erbSyyyyTOn97wNAn6CIly6iiww7FpKjGuUZ7Gg0CJUJyPjo4qH91qtYpoJArD00jUU3vMKPYU58Gzo7ATrSDNLgjHFXzPep6LZHIiRKggCMJMwL/IdXR0YnjYdymdScSVZTpMIrwnsjTR5XMMFrSlku/GwkMNNHZrqlUR14aQijcjEU0gZtto0ko4vbkJxXSadyJtXkVXMDZhuDWJWi6HWsl3GSnkdbQ7PEuo3+GLRQ3ohgE3cJkKO7lOrkRfEHmcvi5CbfAnHeKBKkw+n4duR3xLObutxEicUx2NI7At6iwwlUoFizraYcda1WGbl7lwB1z0aDZKpMgrbWtR9ceKCsJxAw/4bKbPlSAIwtGgpaWJnrv+DNwziQjzaRCKonosPQgerNWUQBPmEhU47i6ld/N6AXahAhv+7J7N2AGNNrRHR2A1NaErN4xqPgu36IvoZm0ALWMFtI/mUKUbRw3GLBRV586suTBbmxGJ+O4r1ZqGXWlfdI+O+K/MOasSaFtpY83aCTeTNIn/devWqWMzoYUcbFVkKzkL9IC2ahlLly5VP899+DU3qLwI7beKhH68ywUPSzXbl6C5ZZ7aJhzfzLXhLhxfP/yMCIIgzDQ8WZ/rznwoVhHmh8g+GpzE02TCXThxqdUisM2VgSG6hmI1gyi4N62pvA67FzW9AzGjDLfioEjCO8S2dBit/gdcZyt6jgS9TvvROvt0889mhh5FLBFHwWlFekzD4EARJu2XyVSwaJ6Bcy6Oq4GjH3vuOUqgZLNZxGIxfOYFF6r9uRHsvhL2GKtmFFRALTO1YgG//7u/wKPf+1ecvbgVQ04EqXYNbWcswaCzjDoUKVSq7UFpQRAEQRBmmqMmzNWMgbM81cPCJ2rve/lYnE+2r6QTLwEeauUx9Z4XKn1ws0MoZz1USH8Xqi0oehyTvAzLimG42UZ6JINiJq+ipah7pWCQKKdeeLUGLWqgViIBXy7DrrmYp9koeySsY0kMDbtwnSLVo6OQd3HBWc147nNaKc9VPfhIxML3//Zd+PgrrsN/feo9iLX7IeN4oCdTLVKDMhnobilsOKpBBJZ4cwqd7A1A+dX0GJ7TuQ1nrXKQS8RAOUjTybCurz9vScdnEgRBEGY/R02YnxCIRVyoQ9MMEtXNGNMzQLpPTcHvVUl853REkSaBnYXnjJFqqiBvtKHmecgNDkLjEC41C2bOv6XYlaVWdJXFnH+Yz0GDqxvwInEV6rBtgYl5LREsTJl49+uW4orLW6BRWY66wvBkQactbMVbXn4dTl9AojwYSMoDSlUiEa4Gl1IPQvmz83JlIka5N5aGMTKCBU15lHMZ5Hr24Ix5WZzUWSPxT/vLfS8IgiAIRwUR5tOgUZ/whDHskiDMTViw1uDBzPej7GSgWQMYctilqYTRgSoqTk0lzyOpbQ5jR+QyjPQNIJ/OoKfSjHw8olyi8lqfX2HFgVYqwSKh3Voropj2hfe8DhPv/ItFeO2bF2LeUguVQgmaV2UnW5V4MGmNwx0WC6g6FdUBYLFeK5dQGRxAtq8P6a1bUXzicZR7e+CODPnl6ATyff0w2aJO2KkEVl1zDfR4Al4+j6vW2Fhk7IKlTYh4QZiNZDLUSebPy0HAoUPHxngAtj+gulw+uPufo8SwO9nIyKgaIMZzBMzkxNpc9yB19Bluc6EQzHUgCMKsRlTlYcDuLGG4RGFuUra2opQbhGf0YtRLodXIop9viZqN9KDvX+CSOHcqeQzanbhj52r0berB5i1FNOX8gZxVbSJEYtH1VBSWComISsGPmsKUSIxzskhEx10HkUqZOgQFlWwS0ebYGCq5PGokuKvlIiUS5SQSeB+6SaniPAkMDq3i36+6ZaOayyCJCR+IfGYMVXq4J089hToFY7h84QhOa+nBquY/c5RHQZi13HrrLWoyooOBQ4j+7MYb1fL6J/6MjRs3qOUD8b3vfQ+33HIrdu7cgW3btuK736X1X95y0B2C6cJi/Fe/+l+1zB2CBx54UC0LgjC7EWE+TYwg2kXIXhZz0jgzaCARjkNqSrH6b3pTrqhm7uyqjUKzd8M1R1AuanC9GoolD8XaCLCgDT/fdhaGmuaRRq7BaC9Dr1nwevvp6epbvLaPjNGmGnoMEvR+EJcJqlX6H/io1wx1v3HyvCQiJMZr+YmA47qhI5aIwYhEEO+a5y+bBjTDVBbzSnFidHkma+K+RzIojoxAI3Ge6OpUlveTmzW01fqpE+r70gvCbIRjnXOM/yeefHw8rGgIRzJa/8Rj4wLaNE20BFP7R+w4bNv/vDFDQ0N4fP2fVYjREA5P+o//+Hk8/wXPxytf+QqcffbZOP/88/Gud70TZ5x5BnUKfhWU5M9qTUVBeuqpp1R76nnq6SfGJzDhGQY3bNiwl6hn6zh3FPh4jGVZeMlLXqyWp2LLli3YunWzsuaHcN6OnduDNR8+zoYNT6Gvr0+1kWcD3rp16177CYJwdBBhfojEIxNh58YR4/mcggdF2qklyDmj8PrpfqB1LUMfqYqGasGAUaihMNaPsSEDxZwGLzCMO/NoWStCS5jwCjqJ8igGoxFgJAuM+Q/dUAS7+ZqygtfcwG+ckq5X6IFpqnV/YGYShpHzP8xaRoXN86ocGUZXvuh2xFYindNYOQGHhIlbLJLw9kV8sVLGjXdmsL2vDSPdPajSg9/o6FC+6ZFUlI5fwFnzj85UxIIwExjUGWUxHI0k8aMf3YTe3l6V/8c//hGPPPIQYrEm/PCHP9qvVf2++/6IR//8CJKJVvz85zejZ4/vgnbbH+7CW97yZrS3tePxx9fj5pt/iV/e8iv8+c+PYdmyZajQ52jXrl3Kwv2LX9yC/v4B1Z4bb/ypsnRnszl885vfpbyosrT/93//N0ZH0yT+HSr/SyWaWbBv3LgR8ViLaufg4JASzTfd9HPVhka48/GNb3xdudPkckXad5PqCHAeC/vRkQx+fvMtqizn/+AHP6HvDgubNm2i5f9BJpNRrjE/+9lNqowgCEePmRfmJBJONEtb3PZFUYhhsSLniWP8dWFuwPd1azKqXJp4pVDIQ7OrKNCDsJq24VVqqAyTCC/2oZilvJFRgLYttBxocZf2i2OllsW7LiviunlZZMYqQDqnyvTuKSAajaKQJ2FcZhHtKheVTKWCMvUAdJ339284FuWMU6VjmhZ1ABwYeg3pPAl/l8qo5pHApxRHWr06ZQee7mDMcXH3H/PgH34iySR6d+jKV12dnGlAp4d/OZune36EhIDc4MczNTFuTgnPEPqMZzwDq1evxLXXXqmswTxT7s6d3bj00svRlEpg5crV2EQCdjJYzG7fvhNXPedqKrcMV155BR5+6AElakeGB9De3o50ehRPPvkkrrvuWlx+2TNx5x13KPG8ctUq1RFgMV0qV3DWWWdi3bq1aCMhzwKaBXtHRxvWrV2N8847nz73MVXmjDNOV8K6SJ3ohQsXUt5ZsG0Da9aso/p8y7pOHe/JYBHPdfE+Z555Bk4++SRlhT/11FNp/UycffaZdM5xug5bqP4S5s9vx0nr1tAxz6BjWDjttNNw+umnU/uK+1j2BUGYWWZcmLMmP1F0OWuVeiwSLvU0eLkIcwITHU2L1ZJW06FZVXg1F6PmThTKHF/FUA9Xb7gMFyXsKpLYbSdBX0mhyS3inM4xlOnBu26ZhsvPtTA0VASGMyhEKygVCqjwbJyMQ6KdE92EJXqQp0mgj5EQY69xThnNQNHwlNhgSzmHUowU++Flc3CLZeoYUF2UdBICSpRTHWyJL1Pbtg7beMlLl+IV7zwZ3YUI8iQgatQmjh7Dbi82dUT1XAYWdQQaPwOCMNsIXVP4s8IW8t/fdjceX78ROn2dn3zKyWpbI8p9pO7mb21tVYKVXVo4ZCnDLiIsaLl+hz5/za1t6rNYpf3YQu55VVjWxIRIk32W9vVH54nrNDz99FP43//9jepIZKijfCBY8C9e7H8vhYyOjmDevInJwpqamqgzsfcvBNzeergTH56fIAhHB5GSh4FOX5gWfWnFoyRglEtBsEGYM/DDdd7CMxGJJtDZshpnt63AqanlaHWXkUAnQayNQq+SOEcfjF1pLGk1UC3HYcQ8jAySYK/ylP4aaW4Hp6ymh2XKpPuIKt01iCKJ56FBkHBPBkcjXA5/yLHF6Yajh2iukEe+7mNco33LJMQrpQpqkRi9kiDPpJGoOnDyGZSowfywrdKym8/hh/9Hgr7sYXTXFsT1Ip73xlNQGB5CNZuFXjeroqE5MOsGqQrCbILv+Ubi8Thi8RSuvOISlc495xyVx4Tl+ZVTV1cXdVJjSsyzFZxdPlqaW3zhHXzxL1y4CN3dO5QFvESd3yWLF9I2D088/jgWLVqItrYW7Ni2EUXuHFM9Rf5liuAj7d2+ieUwf8uWzXjOc56Niy++CMuWLqQc31K+124Et4U7EYsXL8Fdd92thD4nbtOqVWvwx/v+PJ63Zetm5Wrj41cUnm89jeuCIMwsIswPEdZFjQNBG1aFExx+HrP7wJLkMF733DNw9TmLsXhJE05ancKK5hRSPTbM4QqquSxQJEEd3B96vIAWL4lyXxnf/7+VJMr9BztbuZ/3TBv9ff4DWx8aVq9OOaFeJ9BQq5RRK1C9dCPya5UEOOc1oiWaqLSGLFvAY0nUWKiPDqNUKGLj0/3Y05OHZRvYtHEM5f4B2K1tiLZ17PUw1u2oql/X00GOIMwu4onm8XuaZ8llNzHmRS+8QfmL/9d//Te++93vIkefVRbbsVhKbWe3jpCrnvMsfOc731U+4Dt2bsMVV16hhDxbntlCze4mS5ctVdFY1j/+GDjM4ne/+1+4+JJLlKWay779He/An+67D/fddz99dP0vBPZGiUR8Kz4P6EwkJ6IxqQ44ceGFF+OnN96o2rn+iU1YvnyZ2pZMtajtDM/6271rJ2762U1YsGA+ie4l+N73/ksldrFpb2/DWWeuC/K+p9xcOjo61LGjMb8TzscPj8k0NcnMv4JwtNHoy2pGu8NDA8Cj9/NI9yBjFsPC+wePP4J8qYxkzESUvrSjtolUywJE9ChONuNIxCa+1IQTF/7FuanJxdrWNLxML9qaTJQ9A6ViBQNDBWTSJTxMD9DynmGUUy6K6QjscgmRlfNhJHW0mzFsf2AL7GgLFrTlcMVZJXV/GfRBue2+BAbyFSxviyE6vxMrI2V0LhxQ7if8czj7lZr0AGWBHlq6WKCrdXY/CXqINe45qEGjVIY+5hW6b8OfynfR5/LXf9TR1uYLlPOW5LHylBS6zjxdnRzHOrfaO0nIl1SMdK76/sxFKHpLVDuF4w9+q591FUhkBRknOP39/crqvHz5iiBnavgxVy8469d5mYU1C/bQlaNxe7jMFml2YWFhH+YNDw/jB9//Ad7y1rco8R2W51cuH7qC8DL7iycSfkf7pz/9Ka6++mol7JnJjle/zJ9ddp2pP3ZjWYbLcWQZhi3znF8fWaYxL9zvQMcXhLnOyMgw+vr24JRT6Dk5g8gjdhrw11f9WJt9LOby/XXCwxZyj3RqS4uLJYkh5If2oCVpoAqbRHUU8ahOD2fqsEWoUDR48JEILvZnMDJcRm0sj1TRF8eVioeIVcDOPVXc9ZihwipW6aF6zqk5ZckeK1EdLJKdhHJRYRcXFuW6bijXF4ce0vzKD0/ezyNlVs5mUAmSk8+hzH7qxRKK+YJ6YOcKLrZ1F3H/hrgS5RctGsCVpwygvaMEh4R7LZuFlkxSXf6kRYxGD3mP2ua67fSQVlmCMKtoFJf167zM1uZ6/+rG7SG+NT22Vx4P/Hzlq16JW2+9Fb/97W9x331/wl133aXK1Ptn8+fvnnvuwW9/9wfc9PNbsXLlCjQ3N6tyUx2vfpnrajx24zKnUJQzbAGvF+VMY164X8hUy4IgHB1mXpgHBr0TheDXx0mh713hBIdv52QT0GmPwUv3qs4YP7uqmo2aZkGzkuhqT6C1swNNtHFkuIShoZIStopsAVkS5EiHYRF5cFUNT23x8MedS+HoCbQ162hKGRjJO9DHxkh8R1AulWDZlhLlFeWyUlMWdJ4yn91SyiS+2SLOAp3zOJVLJNxdD4ViBdm8q9LAYAmP7GiHSW1r5V99EgUS4CTe81kS9WNqYiGQmDcjdD50TNVGttRXXFRr8pAWhMno7OzEy172Mlx66aVYtWolzjvvvGDLBCyIr7nmGlxz9ZV48YtuwLnn7ltGEARBLObTJGbLCPW5Cv/iy6nTHIaR7YZTzpAqJ5Gt+aK7xgM7jQhgxmHQJ2sBKtANDU1mFrbtf9T6eguo9qdRJcGtrO9eFfmygXNf8zYsueot2Nb6FgznTVyxqkri2vc9H7P8V7Z688/obD1nQc+pEc7LF1zkiy4KJRblHu3joZJLo2eriUd2dqE9bmF1RxzzUhODO7nHqVsR5f6i4pjX+UNUqSOg/GEpiQFNEKaGLdqhP7kgCMKhIML8EIkFg4IsEl7C3CFGz1s9twXl/KBa53d/YMSBUctBG/WgJeMoJ1KY12ah2t6BZR2LsPJlb8H8C89U5ZnePXns2blTCWZr1RJc+5cfREvXIpR59vxoK/pWfgj22c+GHfE/nmyoLg0Fg7wCMa7ikzdQrlRRKpOwpiLsXs7YlobCaAF3bV6MJ9K+2G50uTJjKdhJv3437w8kVRjU0XCoc2FHoFddzM9ShyKoVxAEQRCEI48I80NF0xCx2IIownyuwBbuam4E1UpGrVc7iyjlBmEadB/Qul4rQ8uOIULids+Qg+ZsBYnTVmDJytNw2iUvxnP/+u9w7Tvfg4te9VasfMFf4tnvey/OuPS1qJRNqlzdUoHu1lFadBlS+R5k2M88zZMCTX6fsVWcp/svkch3XJ6uvwankFFp5+Yh/O62DH71QBTVga2IZLcjmtmMkdEhDOcr0GpB+MO97uEaCtmCspzrMV/IVysllPJFJIsPq3VBEARBEGaGmY/K0g888ieONhFkzGJ4HM8vtzyG/tECOlviyq2FRVkkOQ/xWBRr3TjiUe1Ec6sXQuiNTY3dj47oIGqWP3hK12qwE/OwsNN3C6k4VRi6hvLmQWx/ohdbWuah5eQr9hp/EI4xm8r6zDLZpOq3fe19WLhiNTrtdthN9CEiAW2ZOmqGRfeiqTqFrKm9chGOR8t0XBcxFOY/F250Mfp3DaPikfimdhu0XyrShMg8A1tu/S46Em1I2jXMb90EO9WmjmuZGlo7W0iQJ5FoaYIeIUHvVNRERM6ogcywiae7nouq6UeREI4veFDypVfPnagsg4OD1GdNY82aNUGOIAjCzDE0NIih4SGctG7yiciOFDNuMR8Xqbwwy1PYhTED9xUWRiyUWByZlr9dlZF04iUmNCw7JRKnRbXIAyINtweZvIc9PVkM9aZR3DyAoWoRsVQMteII1Ez2dXXxemNefWrsKvNMolW3QiK5rGYJreQyKGV5UKgLx62hakRh2NQx0HQ48fnIt12EUnQJWtedhXmnno95p52P9rXnwl62BlpyJWIrLkIun6H7tgadewB8jEoJZt1MtjVSeSrcIsHx1c2qTe3KQ/N49lEuIOl4SzNrYjn+4Nk3eeZOQRCEo0E2m0Nz08TcATOFuLIcAtFgAChbRhmeylk4wQnEj8OW6qGdsEcrsKp+ZJV8yUKmfw+J5lFU3CwG7DKiGX/6+pjnC/jpwtbPUCjX3Jx6DeFBmhZPmKIaNUHNdWDXVgZrvkU+7ASEncYq1ducXIx8uhfx6hDMmD+raK1WRSRiKnE/Tp1J3/M0FIcc6DWPOiMk2oP6OAnCsYDDAlYqjprVUhAEYSZh5xKeO2HBggVBzswhwvwIkDD3nXFRODGpNC1HOpOHmc3AK2v0AXKgwUOF+mh6MQcjPYrYiAvX6wPKA3DihzBzHtU1NLgFbe0pJI04StZQsCEgUMN6g39YLJlAVW9VvvBTwbvG154Oz2rGjp7dQS4RiHA9OhFNguOXh4yN2bSzh3OrG3Bx6V6cV/0j5uXT1DWoijgXjhlr1qzGQw/J2AdBEGaWbdu2oKVl5q3ljAjzQ0Rn/5UGJskSjiCsHdlXu86Qe1hwXUEUwIOus4Z2jDgdGB7aBaNY8Kfar2qI7tkFO1uB4bKVm/1UuLA7Hu1kOrAPetumDaC9USWVnbL7gy2AGW9SVm72B+dfbGIRHVFKEVtHpeIi3+pbwPcH/8Kz7FmvDtZ8NPbFCogE03Mz7F9eHHNQGO5B65JVsM9Yi/iaeWha2oxT123FpYvvRhK9Is6FYwLHD29ubsLmzRuDHEEQhCPLyMgI+vtHj9p4FhHmh4k17pdbhRHdFCwLRxoWz4sXezh18RgWNmUanDimT61WxsmL87ggtRtXxHbi1PjQQdXJAtScfzYSkdVIptoRNxKI9PUE2wrw9ApqxQxKg2UMjgwi1rx0WqKVyxrVCuz8o4hHo/QB3Q7D5B6EpgZpspU8SiI8GjEQjxkwTbowtA97VcVjFmKOHzFmf7BrS3zl6Vh+/pWoZEfGfclDjHEXGt9FoJSrYE9fH4qju+Ds2ArPsOEmWlG12mFYy3BexxakvAarvnD0mcZ9diKxbt06uG4NDz/8CPJ5371MEAThcHEcBxs2bMDWrTtw3nlnqdl3jwYzHpVlsB94lKOyHJ3zmVHY0njL1seQL1WQiEaQiluIR0wSaClEm5rRmv4Dms3rg9LCkYLjcp9t7kYykUPEi6Ea1TFQiOOJfPt4hJPpwPUtM/qwuNxNKxWYpy2F+/RubNNXolebv0+c75BQv66whrCiK4uq7iL/+P1ID+RgpXyLczlrwSuQMK+U0VdLQL/4HSr/YOBPok4HWT62ET0P/Zi6eho6FjkwIzUS4Gwd9z9ELJw5LKIdIYFMXxwc05ynCmef85y5CDvb3qrKTfULDh+Ht7X0/wLRgT8oC7znlNHe0YxoeyfsqA3TCvzNa1X0bhrAziczaEqk0NzeRG3qQmzFYlSTXTCoM1LYuBFPeWcjm1gWHEE4FrgOcNm1cycqSyOjo6PYvHkL3d8eEomk+kwIgiAcCoViHlWvhsWLF2HhwkVB7tFBhPk0YJ1y6zZfmHc0xxG1TcSjvjA34yksLN0D270qKC0cCfjubCoVsWTkNiSbE4i3L4bbGYE55OChkYXIxaenQrg+vuFXDzyIqNuv6tR5mk5iwJmHLamTJhXmvF/MrOAZS7aQGOUCIyhtyGAs3efP3jlURGYsg2K5RKK5qkRB8eL3wUj6oQinIvz08YtOInhtYSsSzlbc/NP/wbOfczGaF5ZRHBtFNJHwC3LvUIV0CeDeAt+YXAOrbapwQ/KFyGENyXo/nOJk8PHaBm9FYuw+tc6W867FC5UwZ+IpnknJgFMsobAnj0yfhaGRYbQ1N8OMWuha0oKa0QHNG0b3oImeFS9R+wnHjrkuzAVBEE4ExKRwBOBY5sLMwAKyUtuD/PCQmvimlN4Dd/N2lEZ3Tyk690e4TyWfGa8zl86pVHUmfx+VKLcquGjpNnhWG2rlXfB6e2FoHDophdJQBQ/++c/489NPYeO2bejeswe9574GZhAffDLU7JyU+Py4TWvMzbiwfDfajD2I2WO45rrL0LbUhGZHEO+cD506fpyMeALRtvbxdT3ZDD1Br4kmf51eT67ehs70/1HN5XHhvw+Un2+eiODC8MyhexF0AJKpZViwqg0drW2oYDe8UhX9O9NID+9E75Zh9LZdpsoJgiAIgnB4iMV8GjRazBNRCxHbQEtLM7RoAgtK98J2nhOUFg4HvivZOFyMZrClrxdXPX0vIjGNrnMbks0W0rqFnR1XQtemd2NxvTzOsW/gMZy/817UtGDQo5VC97obUDP3HTzJH5CWgVvQWV2PBfPXkoKlnOBTMzCQxvYNu7Cr7XRUIjZSLV1o7VxHSp4EPJVR4puSaYygNWdjOJFEUymDBdGdiJVKiNSGYKEIjR1XNC5IYtjTUY7w9PdV6hAYqNnWQf8szx/nYq6IGonq/Ggepdo89CWfgULsJLVddUyCtkedfnR2/7NaZot5orV9fIKhaCKqjlmhe93IdcID3ePeAPp3DMNFDrqTgGZoqHk1bDvrHfQ+SOf0WCMWc0EQhNmPCPNpwNrjV9sfQ67oC/NkzEaS/czZnzGaxHx2ZRFhfmTQxrBpbBh/3jMMw43gmmWdWDX8J0RJdP5TZRHOO3cNltUWcmTBacERBh8a2Y4Nuwdx/cIl6ChnScyacDq6SBTvK8pZWLdkdiO+7avIZWl/y0LXosWIk3h1Kx62PNmN2jPfBKd5MbQqCVUqz+EKWQBrAwU0pYClqRw6bBLLvI1TZQTV/BZVvx+LnFKyQsfy4NUcmI6DajSi4jTzbJ5sNdfroqYwNc8jYWygSmpMuawEoQ15vVYpK3FepXoqmTRyuRIGc1G0JK9AphpFZuW51Dg6FzeHBdv/Qe3HwtyOJ9Ha3oxIW4fKY3eWsb4cnJE42k46GV62DK/Qj6Fdw6hWqtSVqGBb83kwVz5TlReOLSLMBUEQZj/GJ4lgeUYo5IHebl/Uznb4HLakB1BxPcSjFmzLUH7mkUiEriSJdLcbure3e4AwDUgsVk0HvSRc/7B9Jzb3lnD2vOW4YvUKmFYK2eaTMdZ1OrpSHbhj4050zjORrAW+1weBZtSwPrcTT+wYwLOXnYz2lg648XZUm1pR0/wZMBthgW0N3g8jux7Vqg47koPuktqGiaE9u2BEW1Fc9WwSxLoS5CzktWoVXdufxCJtIwxkUanaaI37dXGqUJtNu5Xuoz2wEjl4yMOjtkXgwohFoUdsNfqbxbYRS9B9R71aFt7cu2XLOdWvUQdBtY/WOfF2je5DPjaHPjT1GlweFOo5cCoOjFoJZiaPmDMEq7eXdgR1JloRH0nDylfhaqOq0xCLRagsiX47CitioVLMYmhnGXHbQYQ7L+UqrKiL4hiJf20bSuveQN2Kaf5qEbwKRxa+/5avplth7z6cIAiCMIs4KnJZWQn5dZanRngGUMPQYRka9GCa/sn2k7T/xCKxZrsY9nbi7t2b8X/rt6IrlsSbn3E2TplH4tml7aqgX76rOYnzFi/AvZu6MRwZHs+fKikMD08UduKRzX24duXpmJdqUi7UvJ3HTzbuEyYW0kWnSmX5vSYJPdZM4ruI0YHdJKyLiMw/HR5t47I6VdjujeDCyp1YuWAYHYsdrFq3E0tanqStE0QtEs+GhWjydGjFKqKkqGKVCmoswENIbOvW3p0FncMnxmJKgDNKiPN6IuHnszjn16AHwNFb2NrOHUh1kRm6kEnsRNee32PhEz9G/+Jr4EXH6HCmmvI/l3dUsdB1Rqu2o7evG71bBlDYuQmVQjeK+SxKg48gH3sJatQhbbxmB0rMZPmSDi8JgiAIs5+jIsxPFEJxGEiccUjSoMOSR+OhoOs1lKsuCfJNuGV9LyppA28850JcsngNnIqmRHMjPDHQyZ0LsCK2APdv2o1s01iwZXI0OsaThV14escgXrr2PLQl4pPWOxlczl1+DYaGLGTTcVTKOnp7iig7ebQmlmD3giuVKNLo5jil+DROdu6n+8NFdPEQrKYc3TM1Es0ZynnUrzCA45HrVgpay7NJkOskcEk8s8kzJOwthFA9odeZZtvQ43FlNVdiPBDRTOjSwpZ2nihIWb6pfDJBZdktpuYLb8Yq57G2/0aYkYkoLxyhhgeU2jEbRjyJpvYEHLq/1z/8czz10FN46IkKHs2djd1XfBO5tc886OsozDz8a40gCIIwuxFhfgjEoyR4guUJ2NN3QrwL+4e1ZMUu4vHcTvzkiYfR36fhpaefiWtOXQePxB6L7/3B/rQXrFyAqJPE+u19cOtDCNbBAXM2lHehuz+Da5adiVjU3Ev/HhT0xprXfxal6gp0d9+NbD6PlthyFJvnwQjcBtYMPwg9360itZhWGl5PlURrCdVi3hfZmHziH426dVh0CWoWtSuwhCvY6h0SiO393lxhGUIj0a7QDRWP3EwkqTraHl2ASNveVvjycEVFlgnhAaeMyS401B6jI0Ln/gl0vuVXKD73k6hd+m7YJ10InaqTW10QBEEQjiwizA8R5S5QR8OqMAV8mSqJAp4q7MT/PvUUntw2hOesXIeXnXUSkkYMnj/Z5EHBFvUr1i7Hpt2jeCy3DWVUlHsKi/Yq1cOifGOhh7YP4xmdq5GK2YfccXJrEdjXvwWdy1+BZYOPw9MHMbjkGjUh0NqhBxB1BxGNlIPCdJ7tRWoENUbToTW4pDSijTWTmF4AzfGt2ZrBVnBDDe4ch63q5aD+yeATC91PeD92ZYnGlDDnEa/ReAzRRJq2abCaJkQ8U8y0wLKDvPD60P5smWdxfnL7TlS0BKq1/Z+HIAiCIAiHx8wL8xPJrFZ3LtHIhLiJkoAR9g93XGp6DrtKQ/jD01vw4IYhnNK0BK88/TwsSLagGkQ0mTaegTeccwH+vHkIo94A1i4v4tyVGaxOpvHE2CC2DY7gwq41aE/ED/vXDMfTYV3zTvQ//wvYveINqFpNiOW3IuIMUPtJiFtZeFoFiJWhByJaJ2FbUz0FHU5hapcb3TkVemqpWq5x7yR0T+FBoLSs3FdiMTROnz8Onxxf5GBQqJ5MqjqMaBSReBR2dD4S8XakklEYEQNmfCJVRh3EgomQnGJGRXWpOhXUgo5Ce9OI6jAd7vUTZhh+f+Q9EgRBmNWIxfww4YF1MxxxctYSXhbPcNBfTuOPvVvw+43b0YJ2vOacM3HS/C7lF3tYl4+0KEdEee1pp+FatxeL+3agfSyN5fEMzrGHcWbzCnSlkr43yWGiOhfc1oXnokb1atU8urofgUsdgkr1KeQyW1EodLN/CJ20f8Aaj1ylHWsei94JYe4l6qzhAbXaSdDbzoQWiU4M/GRLOR20xoNDSSjX+5PvBTeMt3EK3Fp0HhRK9RgavdYWIR53EI3asG0T0SYbZoLdXDjyiwHLYMHud15qlZIvzPmikdCP6h6aW7bRBlWtIAiCIAgzhAjzw8QkIaTXR9MQxjFI0FVIkT6W3onfbtiA9KiFN511Pi5etoiUqXlExDLDgrmr8AQqvTtQHusn/UhiuOjgHG0IS+zIETtOI5HhTSo0Yb68HaXQQm7oKHMc8ngQTJpFNYlc3Y7uZe028h6qEf/jVws+hRrPvJlrRS15MbRkB2VYpOYdX3Sz071BncDJTibsMfArC/OgM6CwonDzCxFZVIBT61LFmpviynXFok6lrmuINFnUbt/SXqWekuoI8Guh4B8/FsM5Hd3wqF7eXxAEQRCEmeGoCHPWEjzgbran/UU9UDM3skmR/0+y71xKTM0cwobKLtz09CPYtK2IF5x6Op5/6qlKX6qBnUfwOqnjkRAtFjzkM3mUB3apKft59kuOPT/ZPoebdL0A+6nfwI4P+Rl1JOtmeFFuKQzpZJ7+P8SLB6Kc9XMoouma6HYJxrCH2uAyuPFzSeCfDi0a9Qd0crmwbD2hWq7fxuLaWwhUViO2qgN60FFw4U8elExElUBvb0uhrTUJpzwRD75UKKKUL6pl5ddO4jxiOGhODvghJhuuhaTjIwmCIAizn6MizE9UTHPi8tXoUtbU0MY5Ap0qd7jsCJBq9pdVNuVvKffglk3duP/pPjxryWq84qxT0aQn1KDMmSITOReeVkJ2oBcDu8eQHtqJPbn5KM3EbCt0jt7Op1lF0/nqKtJLxJ7qo0SF6aJU3QlRzmh8vdgqbdF2EtFelPbnKqo86NKFZnqwKlloZYOu7Qo4tdPg1k4mYb2KBHenn2oWJfbNZ3cXG7VCE2q5ZLB9MVWmQ0twL4iOZyxE/KRm2As9ZTlXeYGQ59fOjibolQTt56FY8vdxCnnfz9yl9lDR8+Ztmkt3uCAIgiAcdUSYHyGUtZzSXPmpn32mV0SyuGTBIM5vH8L5a8dQ1EdwW+8TuH9jL1bHFuG1Z1yIRclWKsvCMdhxBmBrYTViYc+q5yHbtQw5ErY7zbOwo31VUOLIwt4i2f71SJCoZlFraEthW1N9lOjE6eQbZ77VS1XoDt0vBol2dmmh/7UolS3Y8JIG9XbKAIlyXf3EYMDK5+ke80jQ828zbN1mFx0S39VFlBZSYrHN4RbDNBkRmJGFsDosuFYrHL0dXi1Jgr+JXhNItCapTA2uRx2F3Bg1m9pX15uybQcW8sGacLwxV757BEEQTmSmUhOCsF9ay/3oGrkXlU1PQR8toHUwjTVaD0zXxv874wyctmie/xP7URQLjtmOwXlXoXfJi5GbdwYde++wgEcMOqe28jCikSicHAloLQc70qxm2jRItU96ysqfi69H8NMCwb7lNVNTIl1zSQSrWOMOjIKLaiFwLbE9EvC0HtVh1Ir0ga1QonWSyDoO4SeIiEbCPAk9ZsNMlqEleEKhGvQmHZF4S1DIp+pV6T2solr03VqYZe07Dhhjfi4T/AhxTBBhLgiCMPsRYX6E8N1Y5sgP/XSa9vAOZPqHSaR5KPZvR7VSwrLiCK5dsBRW1Z5WPPIjCouTMM0Qmcwu6BX/BGtehf5YdE3KJM4jSphPCim2fNZRQjeE3VmMAv3hXfTg3jGo4R6JZdeFm6R6yyYJeNpGgr4GQ/0y42nRgxPlenAsjUT/Xh91C5EFnTDbFiOyZD5tZ0u5ASvapLaybz4P/nQq1F6Hzo8Hkwas6thDbZg4ByGArjG9Yyg4Dvq90fFU9BzqStF1nMkbUhAEQThhEGEuTB/SGIX2JNzCGEb6csilcyile9VrwYgGhU5c4rkeNNu+kK55HJGH/dhJmLE/NjFZ98zzeCbQYKUOzaMunUcfxFKwMW+rOp22GIb1Juxu6sKeBauwa9EKdM9fSUcxKB3kx7YalKvxrLT7HlxXsfhtRBKdsBe1IrVwkcrnyY1KxRI12oVT3rcD0BkZDJYEnsupdyyHje5ObPV2o1vrwZiWQSVaVGkkNoRMYgS7rV4MaqPBXoIgCIIwOSLMp4lhTMgum2dVnKPkYqdiuPkUuNke5Pr3YHDrZmxqeUaw9QSG3v5U1herNRK71eQILVVIwFZoWyDW1d8JjGwOJoceDKh6E2KXy3JyUwa25DSsXzIffWcswnDbfNRaW2C1psDjV20SgDw5Z5/dCbO290DSvQit5NOhhfapJaA3talY5pXs3gLSKxdRzeWCNWBFx/YZHcg7G+AfRsaqeTyc7kY6MQTXraJQdFQaThewu39MpSFaHsuX0ZqIYeHyKAYiA8h51OkRBEEQhEkQYT4d9vNrNFsk/QGgcwP2Zx1dejl61rwA/UuvwbbFr0HR9kPxnaiEFu9CfjuqZhE1swzLiUMzBqDpGok1HfHI3r8Y6MUiNB5EGaw7+RG4pSyqLgl5gqU8J7PgoC3qYQfPTeSRULc85DUPTrGAcl8GpV05lLf2IFlIq/3Yx3ycWJ3QC63kk+BpMWrQ1A7iNdNG17LVvIRS2YWXz5HgdP0T53MILkBbKgvT3E/n4ASH+1/dmTE8MdZP17OixPhotoTBsSK6BzLY2pvBhl2jKq3fPoQNO4fxwIYebOkewrmr6X7pKmJU48G1QYXCnGRkZAS7d+8O1iZwHAePPro+WDswlUoF69cffPnDIUcd9L6+vmDt+GfTpk3BkiDMHmZcmM+Vh89cC5eojMP03paiC5FtWgonORG7+0QlHNgXrYyQ2DZQswrQTN//mgdKsjBXhAWJqu3P4OmV/W1epQAzmlKvbrlO3Ho6Oj0XqzPD0Df1I7m9B8t27sSidC8WYxDL9T4sjxSQpM5AVfmak0i2fLO1V2xWrweCB4+i6k+Gpe5Xm9oe8TsIDA8qTSw+Vy2zBZgHqrKvefghruUnIrKsadnhT9PPmv0w0mxk19gotjvDiJoeyo6HbKGC/tECntwxik27inByFiK1OHQ3hoF0CX/emsbj24fx8MZ+/Pju3Vi1IAKz1UNGy4o4P0wy2Qz++q//Gm9645tU+uQn/w6Dg7PD1equu+7C5z73uWBtgl/96lb82799NVg7MFu3bsUH/uoDfif6ILn11lvx1re9A+985zvx93//9ygHE6QdiCeefAyf+fvPBGtHh4ceegi/+c1vgrXp8a53vQuPPfZYsCYIswOxmB8h5prFvB4lLubIqVfp2eexWwfHDtcr0CITEUtCaux4rBZqMEoTD7xwQKxX9gVu1S3Dc+qs3a6Bk5vzWBjNoaXswSARrZH41umgE37l3P0jRRspk7C14OokALUSaibl2STUY3S8ZAG1ZAWO5ZHer6qJsWou3Z2OrozfHpVxDRLdRQvVchwVdS41lWd0xJBsWwlUDJTcKNxqFPmyjWKB9veS1AmwUKvE0N7MorIGm07KqnowtapaNg0/rzFFa37i5QidDy9btKwE+iy6dzjs5XC+hNG0H05yLF/BrsEc+gY9XL/2DPz1lc/E2y87B2+48Cy89ZKz8cHLLsNrzzsTMS2Gp7tz2NGXwQ9v245l82MoRPMo1g5OEAmTMzgwiEce+TO+9e1v4Rvf/AZaWprw4Q//tdrG78/w8DB27NiBYl1kIWZoeAS7du3aS5AWiwXspM4wW7IZFrr5/IQLVz2lUmm8Tj7O0NCQsn43imOun48T1sllR0dHVVnTNFWqh/f/7ne+i69+dUKY+3X3qG1V+gB37+ym+oaDrcC6detw089vGq+LB+Rz/T09PWq5kS1btlGH4PP47Gc+jX/913+lz2AVX/ryvwZb9yabzarrVyhMdMpb29rUdd21a+/z5XPjTlF39y5l9a+nUCioc0iP+b/48bXj6zI05F+XejKZjDomX2Nmw4YNuOeee1T9nEL4OnZ3d1Pe3j38cH8+xoc//GF87WtfC7YIwuxAoxt9Rh+LA73U470Xyk92tsOG0N/vWQ/HrZEwiaKjJY6YbaIlmYRlR1ChL4LoSFO9wfSERn0f1p3riXze/Cnh88tktmHeg9/FvIUx1CI5xOOGCqjC8cxjiThaEkkS5jq8RELtxP7lfFlKJQ0bnlqM1aeklGXdjDWT0HVgpzpRSu9BtGUBtDg9REn4ooUe+LRTlUR175YOpAu2Ov504faG7d4Hyq+v8mi9d5O1qSdB14JO+Gi14VBR7wEl0wYe29OLh3p3wDJ1tNRa8KJz16GyH42dSAG/fHgn/rRrG1YuSGDZvBROXzUf6XwRi8oL6J44/JPnADrPvh6IxoOMOcCOHdvxjne8E7/5za/VOj/OrrrqKvzv//4vvv71b5LA/TLmzZun8v/nf36ApUuX4de//l+8733vV/kWPZhu+8NtSjg+4xnPQGtrK/bs2aMEKwve97znPbjlllvU/nyMa665FgZ1vP/pi19UUZjYIvutb30Ln//859HZ2Un1L1XrCfr8szi8/vrrEaFyZ555Jr797W/jZzf9FB/564+pciy4eftnP/tZ1Xbmqaeewic/+Un85Cc/Uesf/chH8Cs6l1gshsWLl6JSKVFnIa+E95e+9CW1Py9zO26++WYlmF//utehm0RvPB7H8mXL8L3/+i9EoxMudr/7vzvx29/cgi9+8Qv0mdOwceNGfPELX6COzTeDEv51vOuu2+navgvNzc1K4N9333146OH78b73/pXqIHBHYP78+bjxxhvVd9pHqK18rdpIuPP1vOOOO5CkZ+Pdd99N9bxDtecZF1yAz9D5XnrppWhqasLAwAA+9OG/xZve+Cp13B/+8If4+Mc/jjVr1qC3t5facCf+8Ifb8elPf1qVf97zno8PfOCv8P3vfx+f+cxnsGDBAnVu3Aau/9vUQfvMZz6r3gu+Jq9+9avpPbsGv/vd79S5CsJsQIT5NODP9f6EudFvKsukfP5PPPhTwu+ru/sOpDb+Ae1LPTUQOB7XYZCosmwbKRLmEctG1TRQ5Sn0aScW5o7rYCztoqd7LRYtNZFoSih3Fv7osTjniu1kOzx66FpNtJ+jA81l3P4nG6P9MRL+mjrGdLGDgcputaY6D/xB57p4mZNJf7LlKlIRXVnVPfrj0WuV2pWKBFb/aWKYE78MhCRbdOTSVTS1+692xP9tSU3vT8eqLm1CXrOO688Nt1Wnc+POKA98pbcZA2NFbEr341krl6JK71njJFKN8HfgLY9vwfrBXVi3uAknLWtHPGqjxWlGSk0adXiIMIeynn/67z6Fn9/8cxKpo/T5jCrh9qMf/Qj33nsvvkACdO3atWp58eLFGBkZJSHZiv/8z/+EZVl405vepKzELOI818O5552LJ554Qgnm1772tSTAv0Di8Aa8/vWvx1vf+lYlSP/2b/9WuYbY9B3AonzDhqfwT//0ZXzsox/Dtc+9FhdddJFqG/s7v+xlL1NCtaWlRYlJFrsssEN+9rOf4cEHHxx3cWEB+8tf3kICN4GPfeyTOPfcM/DSl74UvdQxfPs73q6Oy1b+9773vbjpppvw85//XNX5j//4j+oc3va2t+HZz342XvnKV6r6GBbZ3GZuD18Ldqn56U9/qkR2CFujzz77bLVtyZIlap0F+oMP/Qk//tHPqH3/QN9/Ov7mb/8eF154EV7w/GuVyGbxzNfhu9/9Dr3G8JrXvApvfNNb8ZY3v0FdBxb0nNiqzQKe6z399NPp+j5NHYQN+Lu/+zSJ7v9WHSS2vre2tlAn5af0vj6ifgmJxaKqI/Kxj30c3/ve9+j9jdF7+0MMDmXwzr94C66++mrqoPyC2pFSx+FO1Cte8QrV0eroOLHHQAknDkfFlYU+H+rBph7EwbL6CZuXg8TCZzyPywavjXnhusoL8hu37/PaUM/48n5eVX1hCta5jfvDtTlO9d77TFY3v4blxvNYEHH5+ry6Mo3Lan2KvPr1+hSWn6ru8fz6vIZUX37S5eB1PPF5NeYFqT5f1T/VcpDqt+23zoZ7KXxV+9XVNZ7fuM7LjXXwOiVjZEC91wYJSY5dXWVFS+w1cZBpQqs4MPIFJbqV+KzqJBB4ACWJX3rg8wBQr5yDZljQKfG6YUXgZPJAnJSfUcWmHTYstr7T/kXHr59FM1Nyq0pIq7op8XIjFZ7Bk8vQskUinYW6SZ941r8eVcdCuCVmKOHusCIneFvSZpcX/5i8f5mOtT9YkIYd71CUc91sWWZYjEdiGjLDVVXWcaijwK+VGolIHWba/8k6fC/2SnTo8fcgeA2Xx9fD5br1cLl+n/pUv3/98lTbuMNxW/Mj2LB2C1oursDscNFJnfNnLltOHSp/Uqm9jl9XV7jMFvWrTlkO04wqF5ihdJGubxXDtfRe+6gUrIfHD5PK59RQhl/nKn19vXj5y19OIvA1+Oxn/h6f+azvA12refjyl7+M973vfUp4svBmkc4+1X/xF+8icfcx9Pf3K3H94he/WFlrWeDefvvtSmAmU0n1ym4ov/rVr6j8R0lwflvVzW4ibFG/5567lEjnermeG264AevXP6nKMCw+Q5cVdsm49pprlOhk0ZxK+eKxniqJZraOh7A7B4tR3r+puQmJRFIdp6OzAzadD8N1hYn3Z1iQcrkVy5djbGxM5YWwGwx3NN721rfh+c9/PlauXIk//elPwVYf7oy8+EUvUpZ9rpfPg+tkuN38K4BJH/ozzliDnt3bVX4mW1CdjPe///2qM8GDUhlTGTDiqj18Hizc77jjTnzoQx9SVnbext9jbGG/+uqr1PVh2OrNx+BrxNe3k86ZLfB30PvDyyzIP/WpT1Gn7HfY07NLtY87PM10nbjNYXsjkSh1BPa+BoJwPHNUhHk9ga5Qr2qR//AyfT+pPJXp56mXhrxwP5UX5IfbWVSoRfoTbg+3qf3ql9VCkDfJ6140rk9BtT7iRbDPVG1Sy7xalxfSmMevey0Hr1w3E27n/Pr6eX18Wa1wAf9VrfNi3fJ4fn1ePXTA+vKTLgevKvEqP3fq8+pSfb6ifpmoX2Z4nb5vgxV/XSV/1S/P6w33UviqCPYf3964rlboP9fBi3V5ml4lsT2I1qYWevL5PpThc1UPHgKMTqKcd6zSg5Mjsrj0sCwVK+Domkrw5kiQkThnWJzzQ8ktZtSAUE034QznkR+hByttZ1HMbWALd6bsIV+pIlfxYFFGgYQzi28+BRbvXDYU7iGstzmrSGKYEwvyEs8ySttUHtVHTfLPlRJf30yJj8FjJkg8UwVsZS/RsaYS6HytGsMn8jGDwDOKcpFrp/ZQOa63mKshltSUaPd4IO3kVatGhadUf2q8rNa5snA53F63XL/POLTP+P5E/fJU2ziNekUUjCI2ar3YvHw3BqpjE4KYywf7qFduFy+GeQwtWzBx2fKl6B2poFh2UaD7olx1VNqLYL/646u6gnxFsBweo0HjzRnYEsqW6n/5l3/BT376E5xyyinKv/hVr3oVTj3lVBLh78Tb3/Z25QLCgo2F9A9+8N+49NLLSUS+T/k+s1vLbbfdhje+8Y247fe/VwMcWcizdXr79u3YtasH/+//vYze75oSy8uWLVPCkUXf8NBQ0BLudDpKfE4G57OLB3/ep4J/eWPL82TwsY8E3/zmt/DCF74QV5EIZvedf//3f8dHP/rRcZ9uhl2r8mxYOEjY1/zd73oHTjvtDLz73f+f+nVhqvP87ve+j9///v/U9fz0p/9OXROGxX467fug7w++5tyhaqfOArsWfeUrX8bnPjf1gNQCve9tbe3BmiAc/xxdYR48rPjhr3723d/3TFB2Hzi/fr+6Ose3TbKv2h6glg/jO24qt4KasfeTca82MZPtFubtpz1TtV197wXbGq9nWG5837o6DpnGNtbV2fgzfn07Dwlu+yR3J59z/amMH+cAx5q03H7aGF7P8etHaDUPEcd/cGiO7y8QWswZLWhwNWLzTUIZahUVeljni/69kc949PCuKnFezPuDx1icW/EWOIU0CVSPBG0W3f1sYfIFt0PHqG8Hu6CUSWHzK1u7iySYWWwzvB5awCuswhtgIW9RvbydU5kS385qmepw6ZVripqaKsunp1xcKBnUCN5eoeNNZqE/WFjEszW9mK2hqU1HngRL/flNC2qG2nc6+zc2vX7fsD6mLr9QcVG1XSRIOCUTKYxkMmjyUsHWSZji8vAvCms721VnrUL3gRN0dipagzCfjLA9h37pTzhY/LFVlS2pbGllqyzDApn9rdedtA5LlixGJptVlle24rILBL9eeOEFWLRoETZv3oQHHngAGzdsVK4dF118MbZs3aLqef3rX6cGDy5ZskwJx+e94CX4xCc+QYL9JWr7tdc+Fz/68Y+UBZ3dMrjsJZdcorbxMeoHX55xxhm4949/VNZqdpfhsIONIp7L9PVOHY6wrjp1Pgxfg9A63Qhfh0arPFv6/0jt6OvtVUKYI56ceuqpqiMSctppp+POu+6k6/KgauvTTz+tOjYcfap+wGf4/cfH4HTOOWdhwYL5yiofjpvgMvVt6O/rwYoVK6gDddJ4XVX63mPr/Z133Kl83vlY7L7CrxH6zPGvFhyqkd1brr/hevXerl13Ek4//TS1zANJJ7sOLPo5cg9b0gVhtuB/ix1N6LPK4uqQoH3rnpUTBHWy1Y210aRl6qkvcMDC+xK1ecDfvjtG8nXOnUGb6pnsUAd1+PpCDTuEq/tYHMMNBzpA4/a69X3E9nTulgMdt4GDqVu9t1yuvu79tH+cKfL2ya7LCO+lerwKP2BqiHGs8iBeePhgYkEQWoh0ejjohaKynHOe63oY7pl4AJfyVZRLJG4dT82Wyg9vFuWMk+dA5hpG9/iDtVi38SFYeKds32WCBTPns2CnRbXMsMjmcmxJZ1cXtqqzlZvX62lYVZbzEK6PKVAeH5dvcyX0aR9+zrIlnfM58bmNlegcyp5ye2HBHl4Dfg3TZITWdMM6vDEZ/B5NcYgpaTxe4+G5vsYyeb2IBAmzkK5ok7q++2Oq84paBtqbfBHE4RbLlTq1FTDpvpO0a64TjyewatXKYG0CdkH51je/qXzGL7vsMuXz/KEPfVC5UTiOq0Qg+yOzEL7iiiuUy8Y7/uIdapl9tb/4xS+qepYsWao+v9ddd7Vaf8Hzn6tcLi64wJ9MjUXuf3ztP/CiF71I1ceWWXaRYVZSu9gFI2T58uVqcOQHP/hBXHnllfjNr3+tXGfqYbcSFrTsR82w/3XokrHupGVobvbHIrCIXkFlGXYtWbtmDd0bGhZTe/lcQpYuW7aX7zjDbjvPec5z8PwXvEANlGU3HR5MGR6HYX9ydm/51Kc+qdrKPul8LosWLVVuLSEL5i+k4y1T1/WjH/2Y+pXiiisux7333oeXvPSlqszKlcuUO04IR0phIX3llc/GS17yUuVXzp0qPvevfPWrKoTj5Zdfjv/8j/9Q5/Tc666j78uSyvvFL3+Lrq4uej+/q1yLuG1cnq8Ht5+vQz18bieffHKwJgizg6My+POBu/lnvCCDHywHc8S6ckog0XL4wNynxfupUz24SVTU7xfm+SuUpti3EZ2+t27rXQ/bNBCPWmhrjiEVs5CMJfyoLIUSIsOp8TpDYbffYx3E8ads+1Qc4nHqmfQ6N1JX50G1az807r/XtWtoe33ZfdrZWDbYvtc1nCRvvwR12nofzD/8JxZ1dsKLpFGz80gl/Bs7Go+hNelbUGtUsZdKwsxkUSiX0N/bj527V2FJ13zwr8MJ7r9RnXz8ZJO/P09QxINCQ379xGqky1xsYrAmW6yngrfUnwqvR0wW5tSRsHS1P+ex8GZL+3QJ94iRkGZRzp2DOHUUCiTUGT4WG+j5lX9RCq3sXJZ9TPc5Jq1yFl//0rwUvETgkH4MmPI+4CYH+VsieWxo/zPWzuvAyUtWYOeuPiz88xLotYbzqqdu/3o8w8G3Hr4fSzub0NEcoY6+iWX2AqRwEKM2p6iT4Qh1Vz1vbg3+ZPgRxgJuMtgi63kuCTd73JrOsCWZ92NBF+7LVl3O57z6spzPZTjxPrxeL2IZPg7n19cXPlob2zbVcULu++Mf8YlPfgK/+93/7XVujfVxPaFBgFO9ceBAbWDCNrOonorJ2sp1TlW/f709Vef+2sB5bN3mOrnuesJj1tfh51UoL7JXnuuy69BE2zgvXGbOO+881Rni6C2CMFvY91thpvE/owemrhyLsOCzPf66F/upMxRw9fvVC8CDbs8U8E/7IbFs0j9OkKXafaBjHcTxp2z7VBziceqZ9Do3Mt127YfG/fe6dg1tqS+7Tzsbywbre13DSfL2C5ejZ8Hw8BBKpj8wCVpVCc6QvR469GDQ6MHCOPSQyudMEnAtIJ2ufopWoZO5TkrZMRelgkfnVEM+k0el5JuScw49/KlOrpXFbeiV4otd372lnr3XfNHL7ik84JOX2YLOLi/s3sJWdE6hq0uYx+Ung9vAW9g7h4uwKOdrx37nHNGFj8EdAD4OR3lJFz1UaJ3FOJcrUzl+EO/l/06L9AxV27nDeyypb9Ze1OW3lTyMFXzXoyiqWNjZtc89uw9T1MvXwaom6Lr6BYoll+4ftXhgpmrrHKb+s9cIu4qwT3K9WGNYDNYLP4bLsLtKY1leD8vxa6MoZ8JBjfX18XL9eshUxwl5xoUX4vvf/4Fa3l994f6cV7+8v33qCdu8PyZr6/7q96/3hHhmGsswvM7lGkU5Ex6zfh8/L7pPHgv1+rbVLzMcJlFEuTDb2PsuFqYNxzEOI3I40f0EMp7jTCl+ZhHzSjvQEngzGCbH8d37YTOOacAo+gOp+CfYQoEeMuAdqbznoOq6lE9inK8JJY5Oks/wZDs1X5hXcxhmseZvVkKO3VQ4kd5Vriu8rXGgZz0soDmxGwq7n7DI94W+75euygTCkqthEc3PPBboLKJDKxcTLvFxQwHOZXl9rOT7t7M4Z2HPvumcbErs3sLPSbbYM9zmSX3TrWOszA+CVjTR9a4qX3O23LVYDrym0iHd12PUcYkmLSSiJnV2dLpuwRshCASLS3bXEA6fercbQZgtiDCfBmzhm4zxQX/65AXChze/hnXw8oHS8Qi362DPob4ME1pIj2RiJsufTjrYOoqjaTRHNFTtLIncqOqUMezGshdBxBXHc1HIl1EpLCDhSyfPkTdI0brsj1104ZLIC0UwX5ts2oXHyrtaUFbpUIyzwGbhG6HEfQEW5JzHwji0RE8l0rkcM1GXH2UlFOcFx6N9uU5fNHNYRbZK+fX77iiN8HHD7LjFriu+DzzD+7Ariy/KfYs5W/dZtHNiQd9YZwXHXphzOxtTPRy33MxHkC4WkSuXsdyKIrrS3KfcgeCOSkYrYGHww4tD90qZ7oO4N8f8TwRBEIRJEWF+iMSjE4P5SFqpV8+aOrICCy8WJeHywXCw5Y4GjQLkeGnbdIXRoWIYFWgkzGvcCTM8DmG+F/HIxMBAPQidUKpUwEEHXXQhorPDuE7b6JV/YaGbgdueHy1AqwyROh1V+YWch+GRCPIVX3wzXI6t1NkKbScBzNlshGYRnKf1IiUW3SzO6y3dk8G3oBLHVIzLs8hmsR70MZTLSyicSaOr44b1TlY3DxINDb5+nXROwQBRtq7zHnxMFvxsleey+7jMHCffQuHphZ/T+tPlSDILo20YGMtgR3qUzqmKZYtzMFLBLx8HyVAxhyeGh1U0Fu4A8eDPJBKY5Bd9QRAEYQ4iwvwIEDzHDwg/wNliFj74ZzN8Hsx0RMlsPm/DLagPC1usSQLDjPlW3tDnkV1EQtw6C3p2yL9Q7E+sOUUSrFSyRsKeY1fnfWfzQjFKB6Dk5aBTB6BczSFhTyg1vsQsvvmVhTK7pLAQpywkqEExSsoVhctRfmhFnwzWxFxOiWRa5kgvUVLlLPoZ2/AHirLFm4/JTJzZgWkwhqt9+Rqxy0sIDxBl8X68MlWn8+KxU5HO5TGQzeHhfAGr7RZoF+UOupPKb8kj6V602Q5iEb9j308ds7Vt8/cKgycIgiDMXY6KMOcH14mQlDIKKJTqY7nyRh9++O6zXx28zmWm0E3jhNsb6zpWqbHNjcv1qZHJ8pj95dfXVf/auK2RxjL15RrzGtdD6vPDbZUSu6H4IjOidfKCyrcj/oAvs25AmBkMEuRJTvJlU03ik3ciGCvHUHAaTaNcKZXJ+oM+q6U8CrlWlV1PlM3XBIvpEv0JN/N63mHLdw2sdcNyzFTiXIn6QEGzIGcRzrtxFu/DeSzW2X1mPJZ5kNiiPhks5uvhfTgrrLM5qqtj8jJbzbl8KM75Uk52zx3NFLajHr589WXYdens2knY1j+ILYP9+P7ubRi701D75avl8Xrq92H4R5YcCrh3dBt1SioqohNTqnhYGG9Fsx3fa59DTYIgCMLs56gI8xOJcHKhelcWPQgrYZcmYrXWU6+P+CEeJoa3NSamUSQcD9S372DaGZaZTUzV5lg1HyxNUKvFxmf8bHTzKJZZqFWVK0uMp7ivsY+4S/fPvgqKJ+1g3xinTBezVkU2B0QalC6L8RDeFK6ya4sfecUvTxpbCXRe4+VQgO8PLsH1sU2e3U/Ylz2M4MKEgpoTH5vXeZBoPZMdhrOUrzzVyRZzjpfOy7w/t487A2U7clzcJ9yGMIXrjfAsn+e6KxDPNuPJ7gE0PbIQKTeJ3tIois1ZDFpDyEeyKGql8ZSp5bGpuBub8z1IRD2Yuo580UGh7KJ7IIMLFq5Q9QqCIAgCI8J8mkw2sVAYlaUSnZjSeDLqH/5hmoz9bTueCNvJl6T+soT59dsb8/aXz4R18nr9a5iY+n3CFDJZucY8htfD7WEeU1+WGcn0ocPyR+zpJLQZw/St3DEWl2ppAo62wYM881k/KkCNhDmL9CiJc7daV3FAjfJq1QqJ8yoyeRLbDcK8HhbBLKS5BFvI2SecxW74yvksyhkux1ZuFtVT+Z+zEGdYa7MvOFvUOSe817kzyoM7OYXXifPCOicbIBrCvuvhZn7hxD7m4XIpGVf1zRY0z8QLa+fjhYOXIuLE4OkksPMDSMQNxJs1FKw80rERlfr0fvRrg3DU+AK6vtTRKbseRrIl7BzI4pUnXwijduwHvgqCIAjHDzMuzGfRM/egmCy02VSCZ67Ap7+/SzDVtgPtE26vf63P3x+TlZsqbzLCsqE476oN+guEziMva0naFgpXXaUQvh8KlTKyo6NwXH9QKB/GI/GdcyKokLhrRGOLuWOTiNXhsZoOYPE7FbyFLemkl32hTs1hPc959e4uLLzVjKCU2BLeWCcL8RAW9iEsuNnizTOHxkhhJ6lDwmKd92dxzS4wvI2P22hBD2nM5kPzIfiVwyhqE3MqzQq43XrVd1/ht/w3m7dhU/8wbn9oJx7b3I/BdAFjuZJKPLAzk6sgV3Sps1WmbUV092exu9/F606+BLZhqPqOFEeyLkEQBOHYMOMzf/b3AvffCYzP/DmL4Qfx7QP+zJ8dLTFEIxaa4raymEaicZRLBdj9zUFpYbbD4os/HfyqbfoR5mc8dCwuQgsszHYsA9OqoDmeoDJ+HsMz32VLRfTu3I3N3RegKerPCKoGgJIAN7QqidxgTvo6bKuEKom+O7a3AwvOQoE6gUm615gsibzUNOJ9c2u4mWzZZuGd5KnvKY81OA/8ZIHOYnt/8GYW1lwu9C3nLwsW+izQ2brOsJjnxJ0CHjx6sHB5fW0HNzLImV0Y9J123849+PX9j8Nqt9HVaqGzyXdnS0T9Dlm+VKZ7qIahTBl7Rsq4bM0SXLN2Heir4ojjusDVz+fwnUHGHGXnzh0YHByE6+37GRMEQTgY2tu6sGTJEkSjk7sozyQizKfBwQhzq69ZCTnhxMF102h++CdY3OQi0mYHwtxDJJ6DYbm+MKccnoqfPlBKmA8MD2NkYBi7+y5HRN38gV+1zgMtq4hPElqTnV0idhE3pa9GE4lwl+riTydLYnZtKZA45ogs8SkENRvyQxcWjtQSTvzDlm8W5HHK43tT/ehDr7SqOhRc71R1hrCIZiIkolmE8z+uh788LNrI21moc3tZ9LNwjwcTC9XD5bgMH47bNJuFOcPfCa7mYktvGnf2bEBvuqQ6PurN5u10HdpjTTh9YQfOW7IAdi0yYwM1OaTj1S+Ym8Kcp4K/++570dbWgmXLlsGyLXoLgjdBEARhWvBzvIru7m5s296DK6+4BInE0ft5V4T5NJhamEdJmMdEmJ+gOM4wmh7+KZY2k3Du8KOwWJECqp6BeKeGJEnnWtUmRUT3SKUyLsx7tuUxlL0YUXbZoA+6ZfAovxriEfrg8WRDDeiap2YU/f7gZVicMJGnLwYW5Mr1g7bHSMCyG0mFMligsyDeH7yV+xBcjOvgjFAC8yr7p4cuLywgWcQ3Eu4bWs+5BN/f/K3B5XlZ1c35wTa2mnM7fSu6H8pxUqicta5DtWW2w+O/+SwdvaKm2FfvEeVELRNRne4Nvk4zPMhzrgrzbDaL+x94AOefdz6am5uCXEEQhMOnXC7j4YcfwsqVqzB//vwgd2aZvaaq44kpdIdwYmAXBvwFep9DlxXPtWDGfKVV9RIkVA3UgvsgU/T9FIqVlHIlYWzDRSxSQ8x01SRFaqKiBjSN/b/9Ossk7Cw6Vih6mTHHQz6wmnO1PDHQ/uCt7H/OUVq4HSys2aIengO7uLCbCgtsNlrX+5qHhMfnfRle5b1ZbPM2bgKn4NTVMvubs5We2zkV3H7+dYE7LCcCLLo5Frnu2EgYcbRaCTRZcdj0T4UznGFRPlfhh+aDDz2MK6+4QkS5IAhHnEgkgosvvgRbtmzB2Fg6yJ1ZRJhPAxYdbAHcB94wR+FTZ+HBr+oqqMvDU80HeSpz9sJvt+c6MDWD3nw7yKXzqurQVOhDetUcVLUYNOUjwtv8k3ZJoIV+2FbEJpFM+5NY09TMnyaq+sRsoYxXtVAJFDALc7a6cmIBHg7KVEekKnmae762oX93iY69v4Gioejm8+Efyfg+ZuHM+yqXFNrMnifsS54n9c5lpqqPq1IDQGlfrodfGf7LbeNOAAt3v26/fVxf449zNbo27P4jCIfKtm3bcNqpJ0PnnzMFQRBmiHPPPRdPPvlUsDazzPy32eTP9lkJ6wp7GgPwTnRYkLPw6ljoov30MppPdtBySgVYShuWVRBvrpH+JIEXCL/ZBreZU3WsBykzgUir70Ptb9NhR5OIOC0kdl0g7pHqnfg4ZfMuDG9esEYfNNpk+k7dJEgjlGwS6B59PDhPRyQRgRW1kDP88IoMi3A+nEn78DLDR2CRzXHOy3Rh2d2FtS2vs8Q9kGcaa2i2oHMdvB/3G/iV83MOT83PPuxcE4tsf+DoZITZ7E/OcDnalerSVKQWFvdcL1vjw4gtvEvYPj5eKmLMmL+1cOLD91I6nUZX18TnTBAEYSaIxWJIpZpQKu0/LPaR4KiYGYIw3xOW1eChzhxAR+wDl5/qYc75jdvq18N9G/MamW6b6gn3Pdh6G/N4PUyN5xLSmF9fR7itsV5msryDqWsyOAJE+5I8Vl7kIrmkhpF0GZu7B3DXIzvx0FPb8cTW3XhodAf62yowljqw7P3XF/L/s/cfAJZkWXkn/sUL83zaqsryVW2ru9q76e6Z6fEMPYaBGWAMDGhAQoAkWIS0wmgBaWUArXZZ/YVA/IUcLCsEEkIwMIy33T2me9r7Lm/S5/MvfLw9342IypdZWd1V3VXVlVn3y7oV/oa7L+J3T5x77tnsn/OH1+N4Pj08f1j5OmdanovLmX++b8JlFPRhrm4cKfNVXkYs10Jgmnn7FgJemEztfuq/YJ+hfUWx6kjlpazcOSI/gl200PVOdxD2hGKJykwUYZpd71M8Krq3cIpWdooRXM6kPA+yN8MndgTGOaRVntFWmAOzYfa0dL+cmFd1qIEn1yeUjwhws5EopSoRcu0I7Ku/NjH3VbNOKb/+r3S/Vovr59sMj+c6m/zOVO5ynU0e1Fr7X6219pXPe6XjyMV9nO26G0m9Xg/Vai2b0tLS0rqwmtw0juPHj2dTF04XBcyp/MWRv6w4zTQ8fjYpf9GttSzX6nn5eL4tNTwvH3+5eUyUFyyD15nEdc8239XzOJ2nPK/VafX84TzyZavzPdO8fP08rZXX6tSDC/uKLgoTDg4c6+L3/+o5/Pu/eBqffPAQvvHcDB58eg6fefgIvvjtY3jk0afx2MHjmJv0YU7Ga+Y3nM5m/9TwehzPp4fnD6d8nTMtzxOX58rXrUbdbM6ynFqCpFuEVWD3+/Izck0h7WwHmeIoJXLCJ/2PczmOwKqkMDQkfwPl0QqsclEqABGSwuou+1MxVybmJYekQNopFE5Z0lO3ElrDB6gJCNPVhCngCQwpPzr6ng8rZ3BGcuE48yKc8wFB4E675l+5EadoGae4Pg3jhHsV41wm2MunzFaXhPH/uf2wBb43Or7i2g8nikNuu3rZyyWun28zPD68fHh6rZTv+0zpbPJgWmv/q9Na+8rn5cNXStzH5SiCea22zgLha2lprVuViiUEAd/5F1YXDcy1NogKA0RTQgOFIp54cQF/9dBhJH0H91+1Hx/ffy9+9Mb78ON33osfuvkO3LF1Dw6fDPC1J47h2ecPY74UY7DjAgRwvoAKEMLppj/EKKA1m6gpMOQ5AucE7hH5tYaAMPggXGkaLzrpNF1YlBuLyLFT1x6KkYo4HjJASxLDKTvoeQWMFM/8syTXEr4J6IxzThcWchlDKzL2C5fRct4VMM7nEeLX8vEeFo+OAE7ApjU+422VHzfjlpyX+7sTvocls5QI3oRyRoyh0ZzrMnE5t8n3o6V1PlRggdXS0tLaQNJgfo5as/FnJr+9sV8S9JOeQRdV20az3cKh4w28cfM1eNcV+7CtMgrbTHtEtA0Lm8ojuHfXHvz0G+/BvokpfOOZaTz/3GF07CIGldNDBV6K4rkMgjk4BRvlkTLsoivzeI9tqZfECHJDumcLZScC5iut3UUnnc5duYi3gZw6gZXXslhcTnRjoaIh4F1toc5FVxaulg4Hyi2FFnBXQL0kmXMereb0OufhpiDPcR776eJcHiLzzHdPCzlBXkVfkWkCN9fjITGxUWvuX75a9PqhBZ+Lucsc+LkNfz95+MSkrAZaWlpaWlpamTSYn6POBEtU7GcjG1TsSKWRmAoqT863cfPoXkxUagjP0MEercGBLLt/3z68Y88+fPPZaSzMuyhMyXzj0odz3urIXQ6PlMQFBdkE3rBvoMKA5LnUL2mlxTyO04bCuYGYkFquOpD6C3x7uwDv6T+/afsaVcbYqJYiIBOAh8tdDs8cEsiZiLrEZLqucD43F7RWgMxNu1GsfM/ZmdDqMsyp/BjLpH0RJ081EpVx9hxK4OZ6jH3O46LbSn6cwxrmdY5zDbrI9CTDzPVciT1nap0/MbqOlpaWltb61ulkcL51+nt7Q2sV82wotbxIwSXD7JXjCmpm5azON5AKyx27t+La8W1odV0Fd/E6iW5TCzrZmEBqfxSWNS7XoCznverEO45UWLqIC8tRVXKViins9mt3CpjGyoWFTiblSjp/WIt+rKzKjJDCpdwLY43na64FwtTwXI7zPuUNRCkeLq3ohHXmRes6YX21hrehHHlCcH02EGUilDPSSt7mk/uhRZygfibx+LmUieEY8ygtWudfZ74LWlpaWlrrQRcezLU2hAhggSsANvBAV4mRWlHNO1uFgYE3X7ELxxYaKs53aHYv+UoMzy/pNlHM4pebVijHHAn8RLCHQq0YJUlVNuSswR4IRBcMWJ0d2dJUhYIALdoIUIcjoO4UfPhxVfJcvoh5TG9CfxpTPPXPJowT1OmjzRjhL/fVhtZzij7mec6M2cLKVDsDYvqgsxdRzqNFnZB+JnEJYVxWUyk/XEI6relcxjxoaOdxrXVswy4v3Cc9Wfry6OGXFy2tC60wDHH06BE89dTT6HZT/7NvfvMbcF1XdeX/hS98RXVUxPTNb34bS0tLapvZ2TmcPDmtwqMxLOOjjz5xavvPf/7L6Pf7anvmxd5+mbS0tLReq/SrUeusFQmm9XotBdS2ZZ0zWFctByXLRihE5lu9Id/rS1eG2xIYTsHcKMQpmEvlxMByNAiZlHnyU5LVBnJd6qVNar6Xt6AU8VqN4wW5hhVEAtmVwgIcQ17yY7tRHTFRqvKnaKDTcpXVk5vSJ5wxzAnAbEwpAwW+gbz/z9SAkr2F5lLbynrcdyj/saEowZhih0ScZiWLkE64XkvcdsUS2Zz7Zja07KegnXbtz+PLGfxMlQfuh9Z12zZV3lpaF1qM3vKthx9XYB0EAT7z2S/iiSeexdzcPJ548kk899xzePLJZwXEZ/DY44/jsceeRrvdlvW+gq9+7SEF5g99/RGZ/zjanRYeeOAbeP755/HSSwdw5MhRldeXv/KAlGddoLW0tF67NJhrnZX4zqlWDLx0ZAadfh+ViXMHq0EhwdbiFhQF9freGRzTL0GxIyCqUEit5fzZsPv8KBr6+TBmOU/JJAhXUN0GtDffC3/XO9CYeBvmx9+OI/bbMWvtw4uFtwuivw3PRm/FC80r8UT/LXjKeyueKbxVZUW4LTOSi2SfR2ChBb0k83jNlTuKzKMlnVb0YagmgOfiOEGd69J3nJDOdQnjMktFbWFjUUI0Ld6cvxqoCdu5SrISF+dJNeqU+cwrtZinx8lY5txuLbcbrutwn0OXTkvrQmp0dBSbJsdwzTVXqHFPnj233nojHMdGuVTFvffeKZXuUMVEv+WW6+EULZRKJdRrNkZGRtV4rVrGDTdej1KRbmwh3vTmu6VyWUSlUpZtbkAY+DDZeERLS0vrNcqQWv7pb8/zqNkTwNe/TDeAbMY6Fj+9f3nhSTiWiU1jZXlIy4O74qDsFOVhXkLjuIeRcFSB0EYUz+s3v/kA3n77FK7ZuwuFJbkm3bN3aekK1AbbEtTh4vihPq4sb1OAd6mK52U99ruYSiqoyP0u15syLzUJFwoC39UElmnLC5nwm1qm8/BthjGPX/2rD2LXNVMYH03jjef9hRUIrTIsyapsL8wteBl6C0089vQ06qrToXQeQZdWaTaaZNZk3Rx66eud7U65vRDmzxR5JRddUWghVy4o2cUnVFdlHisBuatJLlrDzyQu4WICOyGdx8YcOeR87ivvtCjPh5Z/jg6qRdSuHL+k7/96E8Nu3v9Bub+n91G1ITU7OwvX7WPv3iuyOVpaWloXTktLi5iZOYn9+2/K5lwYXRS7FV3vGKFjI6Qzi7E66Ge89nYbIRGi3nH1FXhQ4PHEzCzqOwqqwrXWuqsTO8S06h42FYGZpRZKYeoKsta6l0oahka/3YG/6ElKQ+8E3gDdrodmq4OlRhsLix0sLnVkyPE25uaL+Ftv/X/w0vPfxhcfOIyZThfNLC11ZdgIMOu1MZhoo+ksIhhpomMvh/XJd02cpSW7Fw7QCRihJfU5z0GX/3dlfiVvjSlq+3Lwq5SuTSs50ImkQiGrE8ZHZISgT0jnVuzmn+vm6eXEYySE09+c4wyDyLzqTkHBeu42M5xP7srCSsTq663Ta0taWlpaWutfFwXMLw8RTognG1d8+d+4eRtsw8a3npvGMwenUboihLU1EIhNLcarRT/yRCpmI9cE2L63iE6vg8PTbWwaKakK26Usni879nRjX2DYVOEP2VNncylB3G7Cm/fhC2B7SwF8SV63hX5nET3vpFq2ON/CD17/KVjtGXzzwRnMHKxi9qCFEwcXcPLYScxPN9ANjwFmjIExQKvlKWv5sBiykP7mBNmqbaQhCrPrTCgmaHMZ/dB9uZ60XK/VQdHqW8PoK2z0yQahdHdhngRoWrSZJxPn0bWF/uivJB4jj4HW9rYcNCsQtMrz+Hmcw+I+Eoam0dLS0tLS0lohDeZa5yRGV/mhO25Ht1XA1546jgeePoq2LbB1VQhnKoZdS2DJ9KDmwykC9V0RdtweoT5mYHq+jW89cwLX2LtgD9IGlZe0fAJtiE7cw2LYwLFugGOdGKEbYMkboOmGWGq0EBhNLC4tYWG6h+mjXTRmfZycn8HcoQJaMu+9AueTyQKOn2wIfJsw4r2Ize3ouROYfnAXer0+rHBWru2ZayqppTwd0jhOAFfd52fgS4CmFZzj7AqfSfmgr6biTPzh50uUa4lMcF2uThcU+p9zuer5U4bMn4nW+7VEICfY57ujm03ufqMAXRLBnVLHNFpbsyKnpaWlpaV1OUuD+XlSpPpVv0zkOfjRO+5CHWMYq29HWeD16YNHcaI/i269C2+qA3tLgtHrQ1Q3R5hrd/GVR47h018/jD32bmwbGb3kP70TVsudHgoDF0Hgy/FGAtQuIqHjRreNXlcgu9+H6/Uxf9KFJ+sEWRnot1LibHU66Hb6aB1bxHt2/C6mir+L0G9ivnUEUdeHGZUQhnU0Ht+Do9Nl9Hsv/wmBgEvRMq5AOINeAi+hXQ0zeHbMFKr5Ayegp180lkmYlz+f4noMqUhLNsdpRed2dGuhaFFnw1GCNysEa8G5zFZ50qJPN5Z0n5K3HJNMqm24LJcOlailpaWlpXW69OvxPMmyV3bHvtFF6Lpr31XYvLmAloDqEy8t4fPfPozPP/wSHnjsEL7w8Iv44889i9/50yfw/376Obx4pIU377gWV02MXfIuLLn6E1XEkYfKoA0nbsOOuzJsCaxHGBgFFATUc+D1fB9zCwtotFrouQLqMs2GmEdOLqHdacLt1XBV7zHc7v0E7N5zWFryEXnsVTSEP9aGe2AP+nPLPuYvpxxwCcMUB4Rq+nTzvnA+fdI5TngnsPNYXq5hqKyShlaUcWafgzhFWCdY94T+aUnnfgjoa4n7YmUhksXMk37nXPO01S+vn4uWlpaWltZZSYO51qtSFAqw1QaoGBGOzXXwXbvvwE0j18DrlHBk2seBkx3MdQq40tmBj1x7Dz647zaMmXXVCHQ9SEGt/DoW5qex4Fs40LbwZLMMcxCi4yeY78Xo93uqg5EkSRAWymi02ygUCpiem0OpWFRDih1szgq0O8YxgdQy7sS/xPXJv8HMXIhDx49gzKtiYjOjaaTuPbEAcHIG8KUIv0Mh0lNLthxwPp++6BVJygIu+07BOK1AnAmoh0Wg5lqEa4oNQytmQSVHzo8+57Smt8O0hrVWD6K58mOqsLEnL6qIFQteWy0tLS0tLa2VuuCvx1fGgI2hlwOpjSYaXo+ihU2jBXR6LmJfwKtUwE3bN+N79+/Hj9x6F/7GzW/CR6+6EbfsSHvA9PNYgetIDEvsF0ew0OogCjyUCgmOTc8IuBpYlPPpup5UShZxdHoWi7NHYQq0zszPq22fP3hQDZcVIhjsEYgO5DdhYWLwFN5ufAI3jX4dR44EeOLpw/Dc1BWmWxmosIup/VoqQP7L12a4FmOfE9Dpf94OBuizp9CsTHI+pym6lrAnTsY/fznxwVDKrN3cvifbMOV5EtDZxT9Bv/QyfincljHUuTtuqrrk3zamKj5a51frocMuLS0tLa2Xl7ZbnScN5K1olbKJDS5ClVkromInmG20cbWzRyomAnECBkx0VaHPM12U1zOA8Tzsm98Py1/CoDeHsD2NVlzCQrOFcrCIZs8XYHfRsybhB4Gg99r+GcZQtHLTaMsgjUhiJEVMtf8bbo1+EjXvCRjOAN22h1HfhGcybKEheSeqw5NcsTFAJwkRBithnbkbhosg6SAxGGC+qca9uIdEKgOMv04gF7SWo/AQyzH1w1B1BtSLFk6lIGih0p5DuXVYspiF3TyeTksqSXJas7AkGb0GCo0DQHMaRlMqK0vTiBsvSq3iBIJaCQb9YUbKGEjySw76lRLi0RFUr9qE0YnL5IdykaXrOlpaWlrrXxe8g6GZE8CDX6APdjZjHYuGwa8urd3BUME00ZmJUfM3bgdDuQ6Fi5jcW0ch6ODI4TZuGb1i3bionKt4L2e++FuI5p/DoODAdudkaCsfc/YIaiQ8cfpjv9LPiNZwAjbXiwXQu1JpsWARorP68UDAPhkIzBZMmRggKo5L/qHahxn11TpUbFVWTOcqCJgL+qu8o8GYHFMk2aTuMSyfrDxumpyQKTkp+WfZFqZPzKjluSz2GnUWKmy7DZU3/a+Ivv5/wz/5Eir1McTbb4d1y1+DbXEfy+I15FOGw/XSvmA9im2P3/u9dInKZmxw6Q6GtLS0LqY2VAdDl4MGl4sri5Gg7wxQtQY4Md/EDnvLhoVyikC57R1/C+bEdXDcGXgxodxEIhQUhgRyWrbZOPLMP6UC2ur/XJbRkvVrAtK+bFmUHBxJZUlFWSpoPWgLXndQ9I+gFB1GMTmugDlPq6fzRDAnlKf7aKrxLZsHGB3xUBjMY6TmolLpwjQXEQWMo/6M2q5S7mJ8LMDWrQbK5dSavefK3Wq4loziBMav/ThMZw/Kb/sNjHzkz2G///dRvuPvwixMqC8lw4kwng+1tM6X2Jj5cnIh1NLSen11ge3Yp6TB/Cz1SveD1siNrPz8Wy1g85Y6Ir8Hf6mA8WLag+dGFoFy1/1/C/Z3/iRKjgkz7sMuRCod7u9QPuemVFgSGa6lBCPyf76MQ5YVUw3p5lJAIOOxzGkJlltqXpoCRMm4LHv1WlpsoNdNrescnjg2jYW5RXTaKcBTgR+oac533bQxwJGDR+Wes5GmHI9VglXehKl9P4TqB34To9/35wi336PWI3DzlFg+1LiW1kVSpVJBsykPJC0tLa2LoH6/j2qV7/MLKw3mr1LuGg3yCnUC1sbVwIxwdGQRUxUD0wttbCtOvmKFZSOILhh0E5jY8ibs+PD/jdFdH0Yo504Q31s5IcMCpr3NAtVrg3kq9rB5IhtnSMLUah4OtknaLHlUBc1HYRkL2RqUAavQyMYvjpJBEZv2fhcm7vpRVN7/+xj/0J9h/MOfRO1D/xPeHT8Bq3abuue8Jlpar6dqtRqCYB22KtfS0lqXWlhYxM6dO7OpC6eL4mP+tc8BGyHMN0O8PdBc28fcKBTQ6/ioLm3K1t5YIoh1wgjurgijRh8vPd/G9fW9L4uiG1JywozWAlqzZ46hOf0A+gdfgNM7rBbT6p0C9iyiwVQ2XZHNGGPFkppwHwWjp0DckCX0CSeMP1+o4ZqEHfsQNGh6HqBtmBgR+D9QsHH1wFX5n0/Rx/2oez0mN5WQbL4de+98ByJnEoVCmbtXAH45VLw2ihi18nLyMacOHHgJDC967bXXZnO0tLS0zr9arRZefPEl3HnnHdmcCycN5ueglwNzqjcP1LxRNb7RNLAiHIhbuP6qOl44cgLFXg07Spsv7xBtGaSz0hJFLRiNORw6/DQWZ+YAdxFxeBLj7ukW76psUzIbcI0OanIBU5BnZ0MrRYt6Qwrd2JD/+lxYgzmw0ZX5Qaks4Gygm4xlS8+saqGFVrwbi+NVoFnDUrmKjrUF41YJ1cki6gLn77vyajhZY1Gt9afLEczjOMY3vvEIbrhhH0ZHN+azV0tL6/VVFEV48MFvCJTfplzoLrQ0mJ+LBMAebJ0ZzPvNBNXOa/MJvlTVijz0tgCbSn08fXAWN5WvhiWAqJWKcN7sRvjS0RbqSHCg4ChoKM4eQhCEaEc+wv6y1btsdLGtWELF8/EMSrKFMsO/ssppWTsvKgwwXiijskXK8LiDWyamcP3EFiS6kea6FN2t3vf9lxeYU77v44EHvonrr78aU1NTqpMvLS0trdcq4nGjsYRHvv0U3nDXLVL5f2Uj2PmQBvNz0LDFvFKyMTFaviws5jzvA4MlXHNFGcfnFhAtFLG7vEW7OQyJ1+jPHj6EklMWSDcQFkxEbluuUaJ+3B23h27fU4DuGCbcJO1MiDp1GQXg4cgPRdZTF5e0r0zysoxDU3bCZSUpbwWZyYgUHL4WjcQYkfI7VqthixDde/btQ7yBo+xsZF2OFvNc/I0999xzOH78BHbs2I5t27ZlS7S0tLTOXZ1OR7nKlctl3HXXG+QVfJbGs/MgDebnoGEwnxwro3yZuLIc6zbxh099G9dsr+HaHePY71wJxBevkK4HOSXgd//4IZwMOgK5IyhXyygIlJdlQZzECKIUxPlz6/Y8eANGYTHQzwDdlMIV5X5BDG9CKGcvTQwJQ1h3/XS6Vk7XySGe6/VcQPb3ajUi5biypYiSZeEHbrxtqKagtZ50OYN5Ln6lYmo2T3cN09LS0jpbsXG54ziw5L14saXB/Bw0DOZrurI0Bqh2L86njospLw7x7775dXQ8F+++8TrctWW3MuhqLYsdaH3xsUP46hPPpDNo3RZZLDS2/LCZMsUC4OzVcyAAMaDFm9dSgbaswx49FXDLPJIWL3TejSohnKno0OkttaJzuZTHU+sO7eesZEmZLdiwxwyMCNH98C2367CH61QazLW0tLTWv1J60Dpn9b3Tv/cPIoGtDQisZaHOn7z3Hnz83jtx5+bdyoNC63QZAsq7tu/A5s2blaW8XK0iEtiOBMAj30fkeioNhHwTP5DyIiRFEbLpFxvKtAL67AITwodFQOdyFjImLqZFPZTteVMI5QT7fPnZyBygh0BgfCB8X4B5jlyvdelokBUnLS0tLa31qwsO5meJB+tCZ2KdeJWJketxVj4cHj+XeauXn+95w+PU6nn5kOxnwcbuUtrV+ipc1BK1G0AvNDE5Oo6p8Qls27IJ28bHsblax2R9BOVSGcVyGYVSGlqzJJUdo5i5otBCTuCm5ZtDzhNwVyDOm8D16Fdez0yhnM91CfK0nlO0tnM+h7llneK8l5NfwIhdhOmYKJjGhu7FdaNLSoqWlpaW1jrXBQfzjUXm2XCV2NhvWJykATQfDo+fy7zVy8/3vOFxavW84fW0XkZWhEdPLsC2HOHnCkzTQqFcR6VYVpBeq5SxqV5DzXYw7pQwZpVQsNnDp4FR08FIwRYoNmEQyvMLTxC3snHWjvJGngRyzlduLBl05+4r3H611ppnZAXZZBR1ybc+QN0owyiZOLg4ny7T0tLS0tLSuuha462tda4KtZnxshU5+stPN+HHAyRLZSwapnJVKSVpmWhZZWFpU/jYRKVcVMkUWC4WLIxaRbTjAF1Z1xQAJy7b9EnPRfimiwobnzAaC8WV8poS4f2VVMrgfSQGRjNfB0cycWR+bCAZT4/TcAwUYeGFSHdxrqWlpaWl9XpJg/lrVBglKNCqqXXZibf9WK9xypUpqjcxGnnCzSmIU6ORC0vGS7ajLOhUueTAyazco2YRddNR1vOSwDpDKbIx5inJukp51JW1LOC5CNtUVQDcFPgmlHuyPud3ZNjKxik59oocgxUt5xdbCezIxMP9ExgY2XpaWlpaWlpaF00v85bXOlsl9APWuuwUyd+TL3ZlzEAQ+lJBKyBJYgF2Q2A9HVIc9uyKmpfLcSxUygLksiwcxKiatrKWBzLuJhG5GWUB9bNWQcpgIlvZMoxlSDAPZChw7kDyKcl0eQCpB6hGnlZsIhEQrxRS8C9YhsC4nJMVo48YhwoN5d6upaWlpaWldfF0wcMlTh8HvvoZgYEhI+B6FT0LHmw/iSgeYNNoWXUwVBbAKtoWHMtCf8FAuae7hb5c1I88fOnpE3DskrKQh1EoMJuAPQ8mSSLlJI1RTvlhoCzs/LV5AvG5+PPrGC4KvQJCixFVCPmJcllhXHOHsC/rEdhPk8WVZCj5FgqGrJeCd9w3YBQH6ktOgZGCygnMJK2DsxLJY7AFzmM5DJbfQT3BeLmuev8crZdlmYnRWglbkhFMJSUN6OtEbKT9/g/LPdXhErW0tLRetWhD4/PUzj5YX2xpi/mrEEFFW8kvbxGy+x7DYxKAC2oYxYGCckOmh6GcskxLdTIUxhEsNuDMRIv5CCoY2ALVbNQpqhQsVGT9smNiILMGpRjKM4ZW8EwGLeBC7HSDUZZ6M5EKognTkxXrMaqRPFGKUkmQgRPKvs0IgYC/rApLjjE2EsSVSEF5rlgqBP5Qe4mOFWOxLPQueWtpaWlpbVw98S3gy59O09e/kILp+dRTj8gra528Sg4fAH7/N4FAXn9/+v/K+G8Bjzwo12T59XhBpcH8PElj+uUlgnkYpvBNn3LX7yk4J5RzulZZ+eXEFBgOpZAENG8PDIFoB0YtWyiqO2U4RUsAnt7m6R8t3hWDEVsMjBoleSrItgLd9EMfMLKK/HrZY2hCQpc82SY0KIcK4t2aDzOWGQUDAaO39GSmTHK7pJzADk1U1zAHDIf+jJIY/XKEhXKgvhZpaWlpaW080UL8qT8Cdu0Cdu6UdEXqIUC11+hEl/abfi+bEHVbKcQOy+0DvptNiP7o38u8oW2G1WpkI0NqLZ0OwqvX4379bL9nYyvttk/PMwxWHldHzpcGLB4/z+mmW4CP/yTwFamwPPTFbKULLPMfibLxCyJeiKNS+1AWv3Uugs8xf07V+iolS5KtXAKUzy7Bq28I8AhAaV0WcsMEJxpthJEPe1CAadvK15xuLa5H3/NlxUaMsunIAzBEuViEb6RPE/K2IXycSF5mZCJkNBfhbwXR8qTxnUjmy4TMTGoRjESQnYAuVUFDYNwcmIirsZRBWUNA3BAQj7tyLKGUSXCmrGrLuiVa9iVbtY4ME6lA2JzBcQMlx1F+5naRDVVt1butJZUCp1hAZA3QtwPUQ0tVADai+BKKEMvl4LVOxcrXehJfTNfeILd7A7gNamlpXTzxnfCNLwHv+ygwsQUYGU/Z7Td+Ke1S40/+ozxX5F21cw/wb38NePZxYPYEcNV1wK/+fYF0gdivfVb46CBwnYDsv/11YOYo8Ni3gJeeAa6/FXjkAeCZR1Og33tNut+nHwP+87+iEQj4w98Btkn+k5uA//AbQE/W+7M/AEZlWl5P+M3/nW894Mt/Cdx8V7ZfAf9HH5Lnt7yaCM5slrVJjp/Hff3NAKP//pt/Crz5O4Bf+wdSyZBz+sIngaZAP4/9d/5FaslfWpBKiVRG/unPyHtd8nzhyfSa3PP29HrwXTB/MgX1a29Mj/1CavktpPWadBaVNa2NJPmhJnkccVHIKCZ+qKzlfjBkJshEgKbbilWTocCtw9jlAvMD8nksP0Sp3NFPvFqUpx8Lk2RXcASYE3nSOANEJQF0gWmL28gfreZ0bUnsGKaAuiE/ZR5DQSC+UhJYrwtmyjKyJWG+EjmoBEXVENSUdeOK7EABPh9q6WOAUJ+zqCvnEsIDPXJM00Ao6diYi9Bio9ZspQ0iVrifaMzgucER9KZm0Jw8ifboHLqVhlRKMnOMlpaW1gYWQZQQ+xu/DHzrKylI77sJeO/3Aj/7z4C/+MPUutzvAh/7m8D7PyIw/BngtjcCH/gY8K7vStsUtlupcYDzr7g2tTLz4zINB3/tp4G3vifboWhhBrjpDuDdHwA+/reA//a7qfX+Az8oQCxAvmOvVAIE5tnEih1lj0mF4aOyb74jaeylseld3w3ccFsK4s8/ATwpoM1X6FOyHSsP974LeODzUmGQc/mg5Pvxvw385R8BnrymF2elMiLncf+HpJIg618nFYjv/gHgvvulYpDZ1r4t4P//k0rB0UMC+O9O511oXXgw38DEGq/hhHU2n1O0NoDkPodBCubVoKA6FwoJylnkFTYIXS0CdVEAeSDrkelp4XYGdgrn8oAxynzQFFAtl2Qypd+BQLkTyFNO1i/BVvHPa7KvRPIomib6gzCFftktG4oO7ARuMUAxtOTHLdOyPRmejUeDcgRDOJ8WcrrJcBsqGnJfyYtvmb2NikwZxPEAtZqt0tKmAH1Lns4bSIER4tnF43BdF9duq6LR8XF4cQlNtLFUnUNj4qRUSC59QM+KnpaWltY5i++kH/854Kd+CbjzvtSyXammy+j1yNcE0wrDjIzn9imyD40cNOYQuGkpJ6D/3X8C1RXHWmJlIHeZoU0qkm3pSvKf/lVaARibSN9JYwLpP/x3BKTngH/7q+lx/KxUIjZNpdb8r39JIH4P8OKTwDe/DHzPx4EjLwEHngduvye1gtcy79K8iZditaFzYUyGan3V+YlqIwLrkt9P/gIwKhWDi6ELD+YbWKZ2vL1sxR9v/kDqOQmSIEApXP5FB2HWIdAa4vPAtAvKhSWqRahYAuLyABPGVq4ttJzXqiVYAtwOu+4XYC9VbNiBpcIcYjRBmZGABNJHqo4KsyjsTKpHoWig6hYRmXJMkth41HQMWBUDtjw1EwH3QkmmZXxQ4UbLD6LIXya7aKgrf1rMcxWLJrqbE/TK3Q1TCS2ywiM3I4gSnGxEGJEKyIsnGvj287N44egSjs21cATH5HpepJY/WlpaWhdRBF36jTN6HhPfCTe/AXj0Gyng/vffE8B94zI857rnrcDjss6f/D7wuT8DnCIwLhBN1xK6wxCcnxdYpnx5JT77BHDicDpNEeSPHEz38Wf/BXjLe4BmSwC5Buy+UiBfjolW8SMvpOvQgk97KI/1f8g+t+6QtDOtCBCgeR70iee2dDs5LnmPjAF3vSkF9hefAh74HLD/lvRc+DLOX2M33A585VOpm86xA/LOzboOoVfqsRf5HkynL4YufLjEY8BXP5ve7PUu3hiGSwyjASZHS9g0xnCJ8lIXSLKlSuguGCh1R0+rcWldIGUlt8BoJX2p8ZYYGWUAuSUwkgv7K+ID5fBMB0+enMWEa2KpHCswpwu2zzCGa4gWcyouxJIEnI0EYTtEtVJR40lhgMAMUAnK6Dsukt4AhdrphakfeDC8Akyhbq6X/4INV/ZP2M6nuwLf9WXAHlY5KCq3GkaRYYhH+sU7NQslgdLRcvpEYsjEarEqlQID5XJq8jAtQx6W6Q7cdoSdM2XEUhlYz+Kz6TMvPgvU+7jjuu3yWzbQ7vr4758+Ck/uB8/25t1juH/HHerBf6mKn5n5SVmHS9TS0jpXPfkocNNt2UQmWq+/+nlg+27gljvlnSKP+ucErq+7OV2ev3v47CHr0UXkJ38xnffgF9Pt731bCumNReAbAsc3ST47JD+KbEgIntoF7LkKuPq6dD5h/elvA5u3ClS/OZ1Hl5K5aeA2qTBMCYzPz6buNlOyDt1mqJnjAudyTNslv5kTQLeznGdHgP+hL6UuMncKqFP0cb/qWhq+0mlPOOKrAu6EclY6+KWA0E+3lj1Xp+tcDGkwPwetBnNaK0erJXmRF1SUDQ3mF0fCSiB3d8oh5hMfh3fNIjIGiA8mmCs9i8j38U7jbuxJ9mRbnH8RzA9Ot/HsiTkF47WggE7xzNTm2p6Ae9qFfg7mTpT+KAjl9DtPBO4LUotnD6D0P2enQW4SKqAP6IieKfJlfdlnkgHygE8iEeOYU22/hxEBasqPAhQtebpkynupzSsJ/PUXK7I/luGqJfkaK8C8VLSl4lBcAea06NONh48OutaPnBTApy/8OhV9FZ+cmcGh4CjuvG4Km8eqOHCigT2VLXB8dgwllT3YSDKf/EtVGsy1tLQuppoC27/3r4G9+wR6BeDpCpM37DwbffFTAs8N4Lt+IJuhpaTB/BxEpvl6V4P56yEF4wKziyMBGhN99KoR3GoAPwzRY7NxUfvkCSy6h9HvN9E8cgz//MZfRRLwe9X5Fytpzx1u4IXFRTgCbJakvpPAElAd6uV+haJCpCzadteGMRKrhpiuF6M0YigLv0WHOzlHqmxaCrQHZGpfYL4qFY9OInmkkUNCGbJBTJg18Ax8mRaAzCGd8G4VCwreOa9gpweVl0029FTzpexaTkE1ALUtUyCeIRtNKdtFBeljI1UF4hWBd6doKjBPYgFyyY7L3V4EI0xgz1moeXLM65TPZ/wWvnryadywZwJ3XLcbX3jkJezYXMdkYRzV/li21qUtDeZaWloXW7RSM4LL6ERq4T4X0b0lkOdWfSSboaV0ccIlHiQIZDPWuU6Ey+ESi46JkmPBFHAhzER9A6Z/YUDwcpQp4ElM9S0fR65sorHHQGOvj2jMQGyn3dZ7AuZhHKPZOIhOfx6dzgLai/Pyg3cx6WzH9tIOAVCV3XkVy/PcUg9ex097w5dphg1nePHhiIK0xrLqa1dkJkMYRiaqm1IIlv8xUjfhyEoVukOZBVSLFZSLJVhV2bZuo1Qowq4VVY+ezoiFcllquCUDjpQ/gjJDHJYln1q5qKzbhXJBtqFfupRFgXFL1rFLAv0C30yMiW5JubWLsr3ANq3hjuy77DhSubRRLjmSl6Ogm/nlnSE5sg23JaQT4jnkOjyGgYwHRU9Ff3E8EzJYIWWVL3YwsukA+uwZd5DmeSkoN0uYUtieXZrFppESrr9yEt96dhp9P0JNyloxLsMcWKfWvVTF5xJ9MHW4RC0trYsl+nZPbE79ws9VbBRaTD8kaw3pouEyX2rrPVGqu/Q1xC7Yc621rU5nn1S0kCREe0uC5+9cwOE3SpX6Svn1bxaAFHClT3SlXFfRRNxAQN0/KbVuD93ePHq9FuIwQuR6MI2ygvK19vFaEz1BugVXhS8kkA/k4UJjN63nhuy0OCIQS0CKIjhVgWFZTiCvTAogC9XTIj5SEUiXIdOYwPHoyAjKYwWMybbj8rQar1YE3B2M10uSRlEXiK7WSpiUJ+F4rYrx0SpGy1VMbqmiPlZCuSrryjbV0SImR2sq1auybaUq181R0E2gZ6UgD5HIDoWqpaJqJ0HXlbIA+2hd9lurqMomLex2Zm3nMHeBGRbhvDZehb91gO44O1pada3QxPvu+zt467sO4o63PYYg8k9bh418mFbPv9CJ4rBaqKI4qKDnRapXX1ZKnj/WwvRiD636AiL6mq/a9lJLWlpaWlrrXxcNzNe7CCjUmTx/aD3Uem3iFRwIlS9NdfD4GxuYu1WgdmwEjk23inQdqlKqqVjhYRQKeAdodboI3L7qEj8REI7DEBPFcdwxef0FbawXSFlIBGatSZlgND35Nbm2oKuAd9CVoVQwrBGhcxnSsr1l0ULNdlCxbdQsAfNCQaC8gAlZp1KTaStAWZZP1mxJFrZIXlsE6MvlgVREgKktddRlf3VZf2SkJCBfxtTmOsoClXW7jrGqgLjAOwE7T5vHajAdhmCU/Qqcj5SlsiLHSZeVeomNO4sKxrmc/uej9aoqy4zEUiLEC4zn1nLPi2X+mR8Z5aoNc2cZrS0zym8+Z3jb7sN/8UuIGw9jz84l3Pym51b2vjbwsO/uL+HGN39WCkH0ukAmy9cmqezRnzyMEty+YydG7RG8eLyJhWYP7dF5WUnTr5aWlpbWhZUG83NUlPnwDouxp4PhGEJa56SCInLgxeumceRtEZq3FDFSHcMmgdOxsonNdUtAkiH+0vVzOYVQQDztozcatBBkfQIb3Qi/uP9XEfQvvMtEsS0wPW0iLqW2ZCfuozbCSCdyXnGIUmTArhoYbxTgbi2oykdZKLBI+KUbipybTys3fbgnBKQFxONxB+GEjNTLArsVbCsXsLmWYAwuNk+VUa0KSGepJtdoYkquT42fEukaU1EW7+E0WR1RwE6/cbpdjQiQ8zh6p/oyTge2vewgTp9yhkYklLPSUJZpplcSAb46tQXd3aHytyfwBsE2fLH3n2H1HxY4/wauu2YGE9ufVz7Ro+OLeN8Hfhs37Rc4v6KFa2/7fJbTxRUrcNeMbsax+TaeemkWJ/tL+N5rb8bsUoAXjjfQ9wK4teaKCqKWlpaWltb51kUB843Q8cUpK14+zBTGieoBUlvMz110/TClcDy/bxEvva0Ha+ckSqUCbIE7QjkvadEuqPBHo2ULIwLp4xUTNaOJYjKHvruIKIrh9bvwPYH0WMabbXzoqg9LHhfY0VaOzZT7vlQK4W9OUJVaQyUWIK9VVIc8dFspjRWVOzVdc9oTA1VGLEm2pFLNRFHOhdpqxXKebHhZEBYvyrSFKQH9zRWBbUlW0VGdDpXLFdhSEDdXTYzJtsWSiZLAMvPNOwAqyzUiVDPRuk2Ld3XEQr1aTtcTQKerhhvK9coKdddNG8/mhZv5cF1CtiP7yDtSylU10+lJe+0fNretjjpoXx0gMQI13Zl5C549dBcKzWekFtXA277jKK677bN4+/1fQnFsHwahQO/SX+DIM5uzXC6uCOZTtSo818FffP0Yyq1JWHL9PnrLrXjxZBeHpztoSOWvV2vI+WQbXWKi25aWlpaW1vqWtpi/BvGzdy721HgK3rVeUfR0aEyFOPiGEPbOOkarRZRsA2UByYlq2qA2D+1nKZM6VOPIcsGDlfTgR74Cy06vizgKEcURegsNvHfqw3jjxFtVBwQXVHKvK3FJeTd0OwmCzgC2I8cc0bc8IzcO5BdW9QVU7TRkYUXOyZTlbDxJjY8W1TgbbE5IpaQMWa8oeYVSsZBtC5actwyzHFERgiQOCzPL/kwVIYXw7BQLKuWWbaaxcQH6ag7sacNOKu/VMwpitFxXXceewLkfRJJCdLtS2VBRXgh7kn9x+csDobwnFZBEsloMCoilwlHLQH21inUb7h7JoxAI5Bfw5Iu/gsOP78Xg6P+QStkibr55EaZTlwv4PBaPPYVPfennpJJ1++sHvomJH735DfjJW9+CPaMTqgxtccbw3ftuxuMHFzGz2EPbaMMv9i5ZONfS0tLSWt/SYP4aNPxuziFS6+VVEKoMzQgnr+2jccsAxnjq3sE6Da3izip/laIpkFoYYFMpRjFpIAk7aLp9eGGMdt8VuBSgjJawePw47h//frxr81tU+KULLdbJilYRQRyiGjXh2QP0TR+VSAC5k5UFArUw7cBaLhu0HudFhZWPXGwcWnTLKgwjLwgt6xwO5NzpE75aCfMRoCbUE84pwq8Ke8ioK1myhOppVadbSpE9L2VK5ASiQCA/TNAWOG+7noJz1wsQhBFCmc91mOJoGbwJ5bbURixf9inHYC4Z6Mo85wz+14Rzby/gl1Pr+tOF9wGbbkXBmVApdk/gyIEAX3zg59DvX/e6R29ir3J5yqf3TWzGzpFxPHV4CfONPnrlFqLCpee6pu7A2rdBS0tLS2udSIP5axChJVcYp+H7XlZkGUl07aF1PbVIpuMbXjx3OfGjV/Vx4u0J/L0WKo4AHRtFjtiol5atspQlF2pbJcaInWBLOUHLY6PAAbr9Lhb6Hpa6PXS6XRWzvDG/hHePfAzvmnrzRYFyJTkfWqHtxISZRKqNAWOytu0YFYFlVtRsKRFFRyobGVlXZZ7qlIfQLaK7ySkFBdVgMpaKSLFhwQ5l28BUnJWsgl66s8SSRzFJFHjTqk1XDGabW+JzcTkLWLFsKss53TOofL3Qj+H3InheqOC82/fluroC5hF6vRCBn8BzY+Wekzd8DtkZkuxss5PSq+0MEHBeRa5JTrRDsqsWwm0Rdu7/LO5/xxMwx+5A4s0iaj6KQmk7wpF3yflXL9mQqqEw+EdukMrEoIgDJ1tYaEvZG52Xe7P2lwItLS0tLa1XKw3m50kKtlYy0WkieDSuOA7jg0vYeU+IiVtDFZRfuA6BQN2KSBUbSJacl+eEeOJNS4iuTmF0VEAxHa5sUFgXEC8JnE5VEtUo1JHVup6HQtIXYGwLoLvKhagpYN6X6YX5Y7jP+CC+Y+vdCqAulsio5ZqBdtxHu7hJYDxBECdYanYwi1hFX6maaRxwMwvsbUoZURbz7FfHKCe5wpqHltUB3AL8iUg1jFSBTWTd1RZzThKMOaxHkaog0t+csO25pxeiPO54Lrqy0FKeK+zL/gTQ+/0ALcK5G6DTk+Pp9OFKfkyerNPvrsx7XioOVBgYGJMKSaEPRKu+eFBO4uEHbv7XuPduH3b9WsQC5Tjyh0ie/HeIWo/hmqsWcf0bn5NKQLbBJai+nNsP738Djs65OHiyiUW5Nn5N7peWlpaWltZ51OlvUa1XJWVN5L+Vxs1TIpz+VfjneHTwAOYa06jubuCmW4H73hfhzT8U4s0fC7HvzRFGtiTKok5Q3wjieS/VAkzfE6FeHVXzGGmF12m1ldwpDFC1BpgsrbRE+lGooHyh15XkY6HTQa/bwcLCEXxn6YN415bbLyqUUzz+Ybcbb2DBGMSYLARYbLUxP+ehWMzcdKTyRUWyEf25AzdRVm6G5Wu2Uhr1WwLssYHWoCeg7COSwuSWYwXnTMNiEXOSRBi+oPzNKzUBbcmLgF5aVdGhVof4bPZc+LSGC2gTyi25DwR1Jk/gvCMVoZaAORvWEs67Mk6/c+bfl2EYrLSKG3JEzdBEWSontKav1g7/C7C7z8mYgWTxkzj2/CL+6Cv/FQ+d/BXYvW8gbjyC6689ii07j6uyf6mKl/Gj+2/F88c7ODHfRtNowKu2sqVaWlpaWlqvXRel588jL0kNYCWDrSvxhUyDOIeH3RkV7YI9f6qu+J10SPQZ+BasoKTWXS3O+nr8LTw7fxjHFqZxoNPEvLsE1y5iSzF15dg8YWDymgTbr0swsRVwQwGhxYJyU1h3108uiCWQdfCaRXRutlCwl0/AVqEPjVM+1gQ7Ii6BXNhP5qvZSosC4ITy+W4Xc10XSzJcWFjAzMkX8R3O/bi3fscpf+CLLR73syfnUbQdmANartk9fgqnfT+AI5A8WXRgGwyfOADrWrSaM9GFSbmZMB9eBpYvWtatBEbPBsoRzNhGQWB9IJUVVYAy8XQ5GcmGocC52lwuWszu92U/q91Z1NccZiHzQylTh48vwu9EiA0B7sCVDNlw1Vbd9/NgCOByNqq8R3Ei9yM9fpruuUxZ/SXL5ZjmBiqmVBTY/Wkm/iJkTTUeOyPYfeLngcbD+Fb7x/F4//thSkWq074VVfNrGC0dQ6F+BXbuWcBTz++BmaQReS4V8dTz4ahVlt++g28fn0ataKEyZsCOiuqYX2+xUnMde/5M2/hqaWlpaa1DaTA/G6W8okQwpwWXHbSwY5ZhMMfLgDm7bW+hjQP+S+j2+go4j7eaONmZxbHAw2zgC6iZKtoGI/3Vxg1su3KALVclKoZ3e9FQri7CSJe86BJtCMA9v68B7K0I2KU3n7xYZeQQh9drGcxTK/lAAXnOerQsp1DeESjvYLHvYaHdQbvbw8zMi3iv8z7cVb3tdYNySu4Wji524IU+PDkQW5BZsBplgfQJ28CJZgCLvt0CvWzMqaDZESKNTUSWgPFAtjEtRALEqgzxugn82oaAqXDegAheSiO9GJIGGfvRjYVG9JLU2AK2Fs0KHFE479FztQjTtKqzQnD02BLCQI5jYMKVYRDFApaE6YLqxp/WfB4Lz4ZQHmdw7vmhwLip8qAPPcMoctcE9NWW8hzKqQA1HDB+HEeS78e8dbPsw4Qv52WEBZw89n5s9X8X5dJhyXMJJ+bvQegytGO28SUgHou6NxxK2lodwWyzi2OdBkpyvey4hJpZztZ+/aTBXEtLS2v9S4P5WUi9kAkjwjwEc3ZjTj/dSsk+azDnC31bPIUnoydV9+2EHT9MMN/uou0K3MU9PL94An3ZT5BEAimMRmKiVC5gbMcA269NEHkGWvNp5pdqQzleiNgK8dgbZpHUDZSKy8BSFFhlgI9AQLSaheCrWLSSM5yguoIYkwz6Aoa5pbzp9jDf8zDXaqkePk+ceBbfE30fbqpd/7pCOcV7sDjdgiv3iuBaivtwBc8DgdKeDCdlarodo1ItYKRWVHHbBwLlcdGTcuKoykckJ+HYFhgFhZZulqVIgN0oCyxHJSRyLY3QxqAqGw8plv3RYs65qkTI+GpL+WoR2hnBZX6ui74boB8GcgxpvoHU+kyT52HJb5UW/fR+EM4t2VdIeBcAp3sLu/Sn5Z29gzI/AroCV1lfQb0C+5WW+8SS62JVs6n0a4FflDz7EY4034fq/BM48OxbMde99ZJ7VuRQnouuRddtm8SR+Y6UyRA3jeyWc339f5AazLW0tLTWvy44mHcEzA+/uL7B/JTk5UwwHwjMVAXKCeaObcIRUFEYk4H5mVQQ6LltcA2+Fn5dwMQWuAnUvDatwb0u/ChCJxD47CxiKbYE2jzZKAV0dhSzae8Au25K0DpRQLfJ/F4exC62eDRLlodH9p9ApVhUrh2lYiVdKFJWW4E2djmvpuWqbWF38+wiUrRL0qxcSEJ5u9NCQ6B8yfXR6rtYarUxM/08vt/7a7h6dPfrDuUUwTxJDBxcnIcV+ejAUuWgWqzCiwIIUqMsaDvTilCvl+HI/aKlOQilvMjQkgqJkRQQBALnUlGJBHJ5fVimYt8QrI9QEcCPyj58o6gi1XAHhERGZQkl1eRCKKu5KPAFdM9gMc/F6CrNjosTc/Ny7MxOlVylQGpNBSOC40jNUUToJpQSzn0BcjrN8PhZmVDWcymXBHSWQ4J4JJWLPNGtJreoc7lyp1kl2ynAKyeotEo47t6PFvati+cEK9lJXMANU1PYN75Nzu3SqCXzfmow19LS0lrfunhgzncXGWC9JhHfvweaDQwKoYJyJloRS04KZARz0xMwX73tUCqaFYwXp/Cs/6RATkG2T/0TaDEloDPqCCGn1W+iE4foEe2iHoJBpACp6jjYti/B1qsTzLwgAJcD6hr7utiJMcofv+k4KpWiXJsaqpW6HF8k916QTmCmJvAZCzzQlYUasQdyPdSognrGuFiUCkpuKV9yAzQEyuebTczOHsQH8SFcWdulXHrW2v/FToTWSsnEowePyznaUj6kkmEX4Qeu3CkDPLWyIRArwN7uBNg6XlHXgfNZFWE2fqULO5FyRGhnRUsyDeoOigLF/GoSCWWVgwL6si7DkBPIea3yocdrK0Nm/EpQTtHKzWN44cCcOtaQIYGGxK8ZphnBZmB1Ue7WQit6KIWNZZbW86Jtqc6IGBudHRPFvifzZZmUY6ZIIF99BaCbiwA6IZz5rAZ0xlrvV2IYHck7kSvDi7JOEn97hOG1lr0eiRbza2+QcpLeOi0tLS2tdShtMT8HEcwPtRcxMINTYM7P+gQOFR+aYO6f2WJO8T2+DZOwi0UcDg+dAnNHAEVZHQVoemEggMTGhBG8oIk5PxBws9MGdYx1PUhU1+tT1w7QXTDQawrUvc7X15Fr8PD2E8AkAbMAy7IFXOj+YAqMpcA4GMSw5EDLVoSJUoyqbSgbM7mCuLbQzaG8j4brp1DekPOfO4T3GvfjGlytwP5SkuUYeG56XipNA9XDp19gs0lDKmtl+HL+PDdH5nhy3M0gwEStpBp/sj4V2h4MTypeDmNlym+ENmlan/sCuow5LtcxMdmgVOYPTLmWvpQ9ua68WJIHL0W5JeBbTv3Hz+YLCi3mlmHipaNzcKVcDYsuWoRvVnwcKW/0N6dYLnM4jxSJpo1C6YpDlyx2SOSFA2VF53y6uwQhz1COS/bHBqP0mKElnVy+3Gg0lSW1s7AiyzpSibsEGlGuV/HW7LtJg7mWlpbWepYG83MQ+fJgZ16u2kowJ2gQzP2OAFlSTi1YLyOC297BTiSFAQ56L2UQK8Bk0YJOy+JAAdJSry8gFMsLN0AnCtGVF28gkEOXBsEiFKwYU1fI4Qi0LZ0UfHudmIaeKC/tmMHclItKMf2OPhBKCEJfzsdCSWDVFqjjBZwqdSEYhpFyWbaLMSKk1pfrpXzKex00+z2Bck9BeUvOf3r6RdwfvRvX4zoFs5eeDExOVPDSiQUkAphl8MuGgUDuX03Okz7nltwrQU4wzGBR7nW1ZKnGoH5kyhKB1shCbEawYlmzFKpGpUW5pnQbYVkayAW2S4GynkvdRi64lBNflgcFeGkESgXlrNS9EpxzOa3m07MdnFxoypGmQJ4DN4suKwSeVCJsKVBskEwgp6VbubbIBum6tNjLOQRpx088VuaT58dEIKdVnVAvlyMTLfuSlywbPlbCeVJ0UWhoqny14m3RYK6lpaW1vmXIS/UVMPK16eQx4Et/KS/e1K14XYuVi88cfxZGsYtNoxVJZZQFzunKohqAtkootkcViJyN2N7xc+EX8HDhWwIptCzLDZH/ikVrBbRsHR3BaKWMTbUqKtWtuFamq1Ih2FYbUY0OR+0KZo5YePELK7e7GOLe+gUXD+w7itFaGY6V1g7YiLBcqsq1SFCSa2PBx2hpgLJtYLxaU8ddkGWJwDp7zTwxP6vcV5SlvOei2etieuZ5vK1xP26oXHuJQnkqW0Doy08fwMG5JVQHNkJngG2GVCoGy/71jpxBoJxYgKuvGMGEU0EoBSWQpOzqJv3xgVLooFRNryG/ithStgy7gFJNqEuAVqo6cAwbg0oBlXYBfQFz341QrKQNSNkW4ZXkezGOSkXiz//nMzBGpGoQQXXZz8qgY5oKvEu2VBZluGV0FE55+cdLdxnLSS37vPcVx1FllveTYqQifjGhaw5/B2wcTdeX0Xp6Lbgffh0qy/ES+IdFqz/DOFYOS54qd61zEWP5f/fHAHksXJbiF8alpSaefeoEmi3d+ZOWltarF5lsx85R7L1iG0ZGRtV77WLpgoP5iaMCLZ/a2GCuul03C2gcN7BlsCVb++xEBPuS/2l803oClYqtrF60JhKwhv1x60Jt9XIJeyYmFHxv3bwPV5cLyud8rFRRGNN5YhwHHhMouliWcyk58cDHF246rCY31WuplTfTaH0ClXgGhllGImc6VU9xa7IuFY2oj5ZVUVDe7PVwbGFGoDxAU1nKe5ibOYG7+3fh1sKNAu9pfpey2ODuvzzwuAqBWPHm4Za3nIJzNnIdDh9IV4/brt+GsvzQ27zhyk5tCHDLvS/3UQ5qKNekoiZzRyYK8ApFOFWBcQFZqyDQXJRKYGwgzqzZlHIZydxG1upkaLVaLQ///t99HcaYVAtY65FnDm+dcrMZeiQQ1LeOjauY7LlUSEVZxxbIHi6jI6USekGgymQ+nw1ZGcGIYrkdqVVU2a4ImJckrRaPPz7ahb1UX5G31iuLYP6hj0vlaDn4zWUhlkXP8/An//1z+Oond6HfL8pzZQN8otXS0nrdVHYi9RzZtnMOb31PgO98zxvhOBcnLK4G83PQmcCc7ixFAZCkWUSpM5atfZaSq1+ME3zG+0M8UjoOQ2CNgE7fXXbnPqxq0VGW8ys2TQq0CDBtugpXVxj7vICpzEx27IEalg4ULwqc04XlgfoRtPd6mKhWlIW1aC/f6J1VH83BZlTNEKNWD+Vy5ZS1nPJCAfFeF11Jh5Yayn2lTSifPYFbmrfh3sqtKpTielFixPiLRw9gobWEamXZn4BtA1Inj2WVahZu3rFJQUWH3wNUv/t0UzLgVRLsYONL2SSu0ypdRixQW6zZUslhZS5RkYB8uTZO2YTXj1XZJPiyMeXZiG41f/LnT+BkY2kFmOfKRy0V8WWA7aMTsAWk6XIS+bKBrOCUBMxln8MAzbFasaiqGrzPw2BON616tazAnJbzan3thwLhPDrqwlmsKvcxrbPT5Qrm7HDsD/71F/CNh29BpRjK7yBboKWlpfUaRduZH5t4y3uO4iM/cC9GRi78J0n9CDtPImC1uysb052VhGR8AZZ3Vj+K8eJWmZHAF/BZq7rU8wMVOvDQwqLU5AJMz7+AR5suFsIBTnaaygVh+519WOO0wl5YEcqfGT2E1u62mua+CWi5rzIVxAWMYAGFJI00Q1DLobzv+2gwLGK3jaV+V7YTQO33MTt7HPuXbsAbK7etKyinCgMTH7j9atwwtkl1Y5/wmiQRjIh9fgqYRq4aUu0lDwfZAEPEToVUcOxCgoj++ImHfidiW2LEfQGubogy3TxkaPiJAn1PposQEhMVBc5ZkM7FwkyAv2HfNgwasq0v20l5U4C+Srxv/M5xUiobfbeTQrlaIPfXjeH3InhyXHRDyWajI/c2LweE7Fy1StowmlBOsXv/tcQKRrzFwaC2fL20tNZSX54Z//X3H8fXH74VtbKGci0trfMrPlPKdowHP7sDn/zTJ7K5F1b6MbaGhAvQtUJ4lUAlBU2cvzKyHLxgmWQYoeJVS/bHDmP+RvDDGC9MIAgEdNjQTvJkGoYbwnnH9XC80VRxz7utw3ipMYeWHNtcr41W0sHVd/eHGttdGHnyd6ByAkYhbezZlmNKI3qkMGUbHlp+iH5UQKngw3EclCVRbuCj1SOUdwTK+1jo+VjsdNBsLeK6hf14Z+luyOmvSzWbTXzrqf+K3vHPoXHiMblfEQIjtZ7HVvoZLDAFIEoGpo+10VGxH0UC54y2EyLAwC2jI2DrybYDQyppAsPtWJaZhmr8G/UkL/npeomlQhFSqrMfWcZY5qtVWKNssnxt3y41f7lHKqQOswmWwZ5bEPRV+VPbC5wv9tDudNXy1Qq9WEB9+QfihVKG5RwYpSUX86IYt51iJ0P5vCK7xh0SfdDdnSZi9t2vpXUGPfP0QTz60CbUy6/CKKKlpaV1lrLl9fiNLzs4fPhQNufCSYP5KhWFGf5y5gH82dif4Qs7nsJXrziER++exrHb21i43kX9KhPJmJ11BpNGnqA4Ta3BQGclbsdIcR9LfgA1sNHkAK4rYNtnVIuVmXY8H11JJ5stLHZ78PoLeKnTR1u4yGP0ltoi6jf05NiyDc6zyFDP2NOIastuExXTFXQbKB/oOErhLR5YGLFpxaJLgwPHtBSwtXpdtCU13D4Wex4WBMqXBGgrPRvvqNwLfznbdahAygJ70bTQax5E4+Cn0OssqrLC++h5AczATLvZHxh4dnEeFVq6HS8NhRlY6usBQbjvhcLNBtrFAYx2CqhBKOtwacSwmXRJkTIoI6cA3UqjswyLXfivFkGe7jalXVLo2vIY8CQJoLMhaC4VDlESh6x0Uc2ui4XFttrnanHeMJzznCmGUaRWHxevR27l9xMDI1lHU7kqVRvBbqnsGUMHpfWykkt62YhfpB5+qAHPXXYb09LS0rpQ6jUqeOrJDQLmFwoQL4QOuDP43Ny/x6GDT+ClF7+K+bmncWz6GTzjHsPxTT1sedMu7HvPfmz+rmtRedcVcCZGBajlMuZvRBm82pcjjacls4KPFj6GRACH+ZTLlhquhnNaqAnnbc9TbgP99hE832qjKXn4kpG9cwFRcAFe1JJfIYlxeOQIHIZ5DJtqZj8uoR8QwAhatLQWBCDTHlGLTkkdP+GuIzDuei6aHmOVB2pei9byuWl8wLsf8bqG8pXX27bYCLKAxcOfRzj3qFpGyKWrBn2zg1II92SIw52uwHoJVuLIOnRJSb+UGKGJkF8guglaJYH6jqE6FurJ/U74WScTo6wwX+ZPQGfYzdXinWDFaVjFkol33LIdBqFbKgCQygKfCIw5rpZnEXaYd743gjTjzC812qrzodUa/rrDShjF7am+lFcqyCoRUZieZy7fHJx2nJbAub+TlY8LUJY3mHjf1tOz9rWq1+thYS5BpagrblpaWhdeoQDKc49feEPARQHz9SK+/N1qD35zCd25BfT7bdXj5Mzcc5iffQ4vHvk2Dh57BM32orwAUz9w59Y6nLu3wHnjVpSvGgWqhxF4aV7nKjbg44t1Uv6+u/pheIRYAXSf7hBBrKJ5DItwznRsqaGmve5JzPgxGgJYZjlC5bo2mfm86yv+EWAklHPsCGAud6hEq3nf9+S6BCgW+qibTRUT27Zt1UV/R4CcHQg1+j105ZzcIECjKy/XmcP4segTKKGW5bSx5NglLCwcweyLn0Gp6KiGveyUp9AtIBoPceTAIryswPB6sWLTCQOwe/6wZ6NPP3WZ6w26CNsCszLO8sCycUoyMzeME3aHAZlibPVlvF7Wziv3YideQjmWCpYry7lKthpdpXLlubESyEgtTbmXi0sC56to2SkttzrOl4RDlvJQzntY/e7yNCNCFuVIWenIXVvo7uKMmYjHUn98La1h+X39CtPS0rp4IvtdaOmn2pAIxtc7V+EdW74LzcMvoXVyBq25eXQ6ApSdE2gszqHdOoEXjj6KuYXnBSoO4dhiF01XbpQlAHGbA/89U7A+2EXhDS0VGSXwCUrZDs5ChKtI7so10RX4jtp74AsAUYQ55kNIp4tLrv5Qg1B2RrSwdBALmetA/fqFU43wzpeSQYwTu14Ae/QsmHUMkj7isIGq5coyWlnZbTsjxcQYKZYFRFO/6p7vo9vroKUs5Wmvnk2Bcjb2fLf5XoG9igCZWnXDyGYMRaXUMhyHPSwdfSAF5yiNX173q1yKQ7NLsh4t6al7FMMWenGIyJGy5SfouqkPbTDwpCwYAruyfUx3p2WwVW4tq4B8tWxjeTmPozZSRKlWwUR4AlV3HpDKAn1lBt3TIZ6iewo7TzoF57lbi6zO8InD7J839B1W3ttoN2v4mYd7tCXf2bqJSMrOFilDrmWgLNeCYux0Y28V4WjvnH5LWlpaWlpa600azFcpFJD+0HV/HR/Y9XEF572FBbQlNZaW0OnPYqHZRtBbwMz8ARyZm8bS0rMCw4cxu3gSHS+CYZZQGK0gvqoO+/tijL5TwHrKF4hKXVXORoTzWO7MGwa346bC9QJbKZTTSsohXSFyOKebgKtcSIBGry+gHGGp18SLPTkWa4DK3r5srxa/dsm+HzIOI7YEGKNI9hUISJZRsMYE2ApgvBCG9hjEPRXP3BZ4I8BTvtRQaDFvCpQHUsmgtXyxMY9rmldhf3wNBmS6tVlwXYnh/UL6EIl4jSi6s9DnnB0WuJ1ZqfA9DMeRWpvcl5Bd15cHaM+6aHU9WLBTv24zUBWd0Atlmg1AE0StWCptCTxZT5hdiWWBUXxy0Y0lkHVzn/PVCoci3eT+3VuuvxqNThu2dwz1xSeBjhw3b+Ua7ely2B6G89nFpiobPHceT65ha7orlUWWVVYc3MylhSLUM4WSryV1E7swAA+9GiXoOQVUzGU4D6dsRHJdhrLV0tLS0tLaULrwXfK30i75yQB8oV7qiaKv5v5tt2By7Fo888IX0PfaKhwcmSZWf6GARiKwOYAXegIpATy/hyRoYMQWiDJsJJKIZcaYifHrDBSmBJBlOu5JPoFQ6Br7Xp2SQQH7rf14JHlE9hhmIJXCDWOcc8gGdYwPTX9zxlOnRZNd4CeGg9CswJyS43puXOV3Nvt8uSRniS9UPwOnWELRsVEQMBsMQgXitlQClMFUDnGEsd0FQtl7ZLlURq/fletFMPfQFkBb6vXQarUxtljD+wvvlHzX3t96TLZdRq1axsOP/Qlcqch57hwC93mpSHUQew8KlCYIOp9Gr2tgcut+gWq5r6GBpJK6pkyMVpU7C++30LncYwOxw0qWBbNvyH1nJ0PKiK5ijNPaznm0nrMcEHItW9ZREU+W4TuXZUj5GTZri4pyj775V/9SKpgL8ns9imT+j3DVnnfDj8qIDNl3yuJKw7Cdd0TEdgJJmKBalUqpHANF/3RWzLgGK2mMZ07XHEuWs5xyfhylHWlFMiR4E+pZcehNSkWmJ3nI+jxWR445kvkM8RhKpbDAxqpSc82vuU5pYgX8uptx2XTJH0jl/oEvzaDXujidfmhpaV3eogFyy/Y+3vTWPdmcC6OhV67WsOiCcs/43fg/3vXfsLt4HdzZObSOn0Dz5AwaC0todxbR7y1iaWkJC40Gmr0WGn0Pjx87gaPTL8LvHBXgSMMFTvdN2FtLGHtrARMfTWDduCTAk1q/X0mhrPPR4kcQC7TRck6XFjU/lOqBJOZB6zmzChg+kTGkBZQ8dwmL/R46Ana77/QFvmSFlTx2TqLn8IlC4xR4KeAb0PeZjRVNBZOCl2qZLeuMlSsCWlJh6HYQhCEabk+Ox1cRWFqdLlpzs3hHcJ+g/saSICVu3X8bCtGJUwlRXypjR9FuN9FrP4tWu4f5o/8F84c/p6B1YMrdk8vpdgJMN6UmKxpEy53v0HLtdyO4IzGakVSPCnSDEXT30wKUN6bM3VgIuGdyaSHg1ldFP9m8fRPGxvaeOt44LOPm3dvwY/feid21SQx6r1xw2CB05mTz1H5ZQWTi+VGuH6WgLgWWUVrSkKAJej02chbwFrDPty0vDFC3pQJblnXHAE/KcC6jbiMY0S4tWlpap4vPhXjoefFadT7z0tI6W12Unj+/+Bf8xJ7NWIci1H5z/iX83ku/jCQM4IyMoTw2hpHNm1AqF+E4JVjGCDaPxrLydmXN3lSvY1O1iMlKDVVJkb0JVQGiUH7om8sJGr0ukk9VECw6yhf95USm/krpW/hy+9PKWu32uyhLnrlKJQueF6FadTBWKWPr6Agma+z+z8D2Ldfh6loRN3g78en/Jof3Ko1L9L//i+6X0bkqbYQ3Wl/ZUNN0tmK82FPj+XnnWpTjZazyUCoOzX4fJ6afw7u99+OqcLeylm84ybM864hVidduenoB//6Pf1PKSlEqVAyBKWUh9DF59QdUJSeqRTA7JvyJEDdv3akqWlRU6MFKqjDLfVTjcQXn1GitpCoBjlFCqa5moVZbhnnycGVo+uXk9kJUFk1UsjiV3FZumXK9sovA0dku/vDA19Nl6SpnlGNbuPaqbar3z7V8zHncucbqWW3RKKhjZ6jHUtb1/xYnxhy/LInCXXIcxyQZA2VRZ6+lxiFfrtdl1sXlK4ieU9/zgyvL3kZWRyr5/+JXHsPs0fFsjtblpDAqwA3SZ1ylGMBiVCerjL/2UyX8h99IAyK8FtVHy3j/947gz/64iV5n2f1O6/KVH5q44Y55/INffks258LoormyrPGOXjcioGwrT+Adu96Nl5odLHSeBUPF9ZstJAIVURIhgQ8vilX36KbhY6kXoM/pOIYfuDBjSXYZEWx0wgIGRhGV/QPYmxN404Kn8oDJjIuniS4xu6OtWLIamPZPypSh3EgSyZtW6Tw+NP2LaS2nqwA7dmEX/qHshxbHu3aOobNYkAeMWvWsRTeGklDiwqCDRyYfhp19Jyd08XiV5dywUBh0letKrWih4tgoWukDk5bUbhCi6wdSGelhbmYa1/Svwa3RjXJeZzjhDSB+cckTG3F/9RtfwOzSScRyf8LQk/vDrxwD+O1DUsm7WmrIspGkkBFYpHxsHa8jkA0Z35vrFaIi/IG8fBwLZmQgLqQuLBFCFG2GZUxdGfJQibxvdGth48rV7iy0mAdDliC6iDR8D8asrdpYMKpQHjKRxz5ScfDG3bvlxWfj+GwLA/vMdXlaycN+hLJUEm2pja/eN13Q2SCZLi0+v/rIb4RuUekyQx0z3XB6MasdaRwZU9UF+T0mzYvreTJlNs78m7kcxfuvXVm0LgfVShX87K/sxvd8fALve/8oNk3ZePRhFzfcauJ7f2A3vv5lBmwI1fPm1WrHraP4oU9M4aHHPHTnNtq3Xa1Xo4vlyqLB/GwlLCK4CTcZwZbqNpzovICQfsMCFqHrq8/xA6GheMCGkQPEQmQFAXTXbaEd0PdXftz9DpyBL7AlQCGQEyQm4pqA15VS068IrB1PQWYt2BDEwlXxFXjMeQpB6Ep+xHUCGME87cSHri2nolwI+IxWpCIQyDFaNVwp41NbbbzwqACPSaBWq60p2ilpt5wtN/F09TlJh/CsJftld/FZ7508Troe8OuAIIHAOOHQEDg3URYodwTKugJ7Tc8XIHeVi02z3UTYdfHh4LtU9I3LRnKtH/j2Z9H3+mqSUM7GoLSa75ragTfd/FY8NT0j18yUcmGg1fYxOVmD6YQpIQ9MwW8hZIHuQV/KWUnKjAAse/In4LKhZ1EqRLwfdGNRDTClvBJwCbr03x7WMJTnooeU1Rb0lTJ5miSvgTyQdtXHcP2mKfTCAAutPutja4rxyxPJcLReWWE157Gmok982jZC/W4kMZJP7idvO6z0peEds+KsxmVtNeQyXyqjliflfsjl53KX1PkETFjRymZscGkwvzzV9y389C9sxY69Dv7k92bx/NM93PCGEp56NMLCSQ8PPdSXYVdBeRAVMLathj1XSIU1qGChHSvLehTz+eJg+w11bJtK0GtIZT+gwWnZ6NA84eKbX+5j5lBbVXq9wMKmK6rYvRvyDHTQ77DNzJmNFFobTxrML0HRCvlCa15OxsI9e94i8BpjuntEICkRQI8EyhMwnGAYC6gbMfxQfvACUl7gwZW3JuN7DxIfjsEGfx00/SLtfogLJgpbijAm+xgcEygR4loLnC3Z717swqPRt9V0ai1PoZwWfMbXVEAj29ZKRRXjnK4tBJ+iPYLrJ6tYaMgDpr02/FMKyCtL+ObEM3hh9AV0Sl10DEk+fZ8HsJWzemoZZePDFMz5QCugJHA+WmIPn6aK2sGOjtoCT13PQ6ffR2t2Hh/rf7/63Hg5qeMt4svf/Izcp/RaxapSlT7Q77jmO3DbjVfjeKMrFTdP9QYaM1ygXLdaRcBWqoM+IrU277GqgMn2bFzJ7zQlRwBf/gqJBdNOG4E6zjJcsyMjlVbd8NWNQNUXoL4Avrz0ziQ6vRVtG9ePT2HTeBWzM67qaXYtQO/LW45fTepDriuMysIGoDmUs80Eh5y25PdiSPnmcarKhBC58pWXY8zjr+dD5coiy7qWnH9bKjND53E5i183brhNg7nWxtcHPjyJZjPEb//eARx+1sIDn+/AkPfuzmsq+KV/ugef+8smmh0LP/oTk/gbf3sbrr+pgvd9bDO2jpXw8CN97Ntfxy/92g685a1juOOeCbzrvaN4/tkA7cayy8qeuybxK/98Fx74movAS/AL/3Qnvu+jW3DrrTW8/3s3A1ULz0heGs4vH+nGn5eo+oRrGYYCE2+97r34+Ft+GtXQgt9pozszh87cArqNJlzXRbfXFEBdlPEueu0FnJibxYH5Br597CROtlvwuwfg9eYEyFzMtUP4U2VE98kL1qIVMd3fsOhdsM3Yge8rvBNxKBUBATRaXaMwUP7KypLo+SrW+Vy7o0CIETOioI3j/UV0BhF23dNVPS6upUEhxGPlI/j27mcRTtVQLpVUVBVCd0IXCwFLj87HQ/L89EFG9wSTJgoRgdylVbXnY6nL7vf76LTncYN1Ayacy8QBNhMrc4uL7JCKd49hI9NPoqwsWaaFfftuhO8C77n+GhQErJVhXMrT7KJcN6lYUVJtgyNVJg57dgAzKkh5k3sfDVSIReYVsCEwjetya/PY5oR0ig0rV4uNQIdF0LXGzqJBsiyX3eKa6hT+5l13Yv/2LTBjU+17tRYaSypaUG4VZ2KZpPxAyoiUU7qyUF158cV+R4V+pGuW24/Q64RS3qScyzQTvwxwHi8lI7qwIhLZ6fZaWlqXh9gg83Of6mLbriL+6x/chZ//R1uwY7ejngsUvzpWa0Xce0sF73jfZvyX35nBT//oMfzVny/gru+oKjfQ2++sIkwG+DsffwY/9tGX0OkP8I4PjStr/GrZYxY2bzJwzf4a/uU/Oo4f+6Gj+MxnGnjnW6vw5VmtpXW+deHBXN7Da72016MUECg8TkUf2c3JBH7hu/4x9t/xDoQtge1OB16rjdbsHPq9joqY0mH0lu4imt0WTs7MI+wdxSGB9IW+D9dbwHy7iaX2IhZ7IRZqCYL7uJe14ZysdXPxPmy1dyjQGRatqYyZ3RfQJ/AQgo5LJYGa7jbQjFyMVUuwiinAnZKcEq2vn9/9Lcxe48F0NqnZbNBpOlMCRJ7kbSn3Gfq15/KDQK5JmtFIuYwaY3OLaE1f7DMONy2kiUB5C5WlKt7u34tle8TlIRrJT87OwmErylWqlkaxaVNq7SvK8jdffaXq5VNuI0YtB0cXFtU9LhoWenLlOomPkrw46HseWHIfsl8v70GEAL1u2pSWQJ7fl7zTob6UrZeTU2QoQlqnV5apM4m/Aqki4P49N+FHb7gHE9WVDTHLto2OVBC6LQ89KScdhsuUxPj1eVf9VN8LlXWd59nxCwTNLDwAAKutSURBVBh4S6piwWgtSeBiwK9NAudoL0mlU65NLJVQFc8/URb1mYqOa66ldTmp5MT4zCcX8L/88BH8yR8cxLU31vHr/+ZKbN+78hm7bV/6PqJrS9mJUDTlucje+zKFA1NAPG2nktkyXlH9roeRio+Fw+4rBm3Q0nq1uvBgfhmoKT/WD0++Gz/zhn+BurVFwLwJr9mE3+4pQPe8vsCFr+J59wXEZ5pdzM4KkM8/j5fmlhD6M5Jm0eosqbRUSbD0JkbuWAXQmbpCRT9e/uswk5X+tewllJbzOApVlJZZqSBQfYGh0G9jtt8Go+NM3CzQk9Uv6PTQLfn44pUPAPWJdKaI3evH4bwa7/aGW7jTt3y5ckIvAjbGy8PiUfT/ZSNUZS3v9mT7RdxvvfOyg3KKHxEWF48j9SnnzVy+oZPjWwWi03Fe0uu3TWHX9jF0BD65lttMMO2mFSu11cBAR11FAXGBU78ZImwI/Lpyf6UipkIoZm2UhnsEpXWZ0U5WV+RWq1K10Z48+0ZOvOWsdFecMn7kprtx96a92RKWgUiF0FzqdFXljOL+855oWSbZ7oBiQ+V2Lx1vBUUpM65cEAH2fog2R/stAfpYwXpfQXugLOiDfkMqBwLvL39aWlpaG0xFm+5+ET71pz5+/OOH4Evl/ba7VkbnabXSSAdbd8YKwGe9y8THS2vd66KBOd/H6z29nAgaZaeG/+2q/x1vGvkOBN023EYDHi3ozQ66HHd7klwBC1dgahYLLQGq/gksLB0XuIgQeCfh+wtYai9g0Wnj2Du6ynK+1nHEiYP3Vz8Av9NbYcXO5fb7ClgIPc0+u/Uf4MWOh27kYffNbQzMGHSNmys28MAV30ChtkX5ozPMHSOrFIwByqVxWIMFBJn7BcXPgKG/PF0pLfsQs8Fp14+w1PdUWMSenGtj6STujd6M0WT8tPO4HBIhstGbFzBf9vvOtXfHlSoKCtdT9yo08O7dVyvYbUeBcg1qHPPgDUKUIPckMmAEDBEWIxjIi0lAvF9Ke9Skawj5lDHjKVqT6budjy9Xm84sgrZROr28vVLifiOvgPt2XC3Hf4PKy1ZfbwwBaU/OkRZurpWK0M6KG9sicD4XsWLXkwoGxXnNbiBQPkBHyvd8t4C5nq1+N62uL5WPPjyp9LmBbJsMEBdS95bLPVH5UEtro4oNN//x/3kV/t4vbsdb3z2Of/irO1CsWHj2qdQQletrXzRw7ESAn/nfrsY//vWd+J73jGZLUrGdTS7LON1kXjX43jyDhgxRWlrnW9pi/hqUg4+yHJIu+M9w8JErP4EfvvbnBRrYI2KoAD3yfIH0ntTsaT3vwpPpdq+B6aUeWm2B8OmD6ApwhGEP/f4sOgLx7aiNk3c0EWfdkg+LKH4rbsZ9I29G2PMk/0Al+p4ndGORfRMKaTUnCLlyHC23pcLxUdXJBH2zh6c3v4TRkV3YMlJXDfsqRQclixbwBFXLE1hi/PGVYM5IMFQOmxO1NGZ5S8BKhYzkOXse+r0eqp06bh/cgOgyBYalBbmX/dRykzb6JCjLNTQK2LX1yhUgxSJUrVTxzmuuV9N0aGKYybm5tvIxT4pSTbMSKQ8CuoEUOikEtoA6yx0bVbISFjEqkMA+3VlyH3O6p4Thmbvpz8WwiYUKI6VkM85Rwsm4YWSTAm62S0jhXPafudUMiw2HWSZZNilWLrguOx/ib8lIMleoAUOAyrFLuWIcfPYD0JNzb8o7s+mZap1EOdZoURvFbVBL60waDAz8we8uwrdNvOVdo4jlvfkb/+wQXnpGKu4LMZ56rAFX3n1WwcM/+Zlj+H9+6wS+9pUGvvalI8q1kHru6R6ef6qpLO+OFePhB12cPNiDPfSuPXIowbcfbiBohVhqAU8/tijvtdQINn3Ux7OPt2T704FeS+u16qJEZTn0AmEkm7GOxYZ8z3ZmYErtulqyUS5aqqvxPCSc4TuooaogdGdpu0DzO/HYwrfQDRtp5BaBZjagjAS2CEuMMhFGAtPyNg1DS+DKRyw7of+sJ7/3vsBUoSqQXApRW6yofQyLj4Qr7CvwnPEC2v2GQF4icJNG4VBwPpCHjlOUh4el3AoqxSLGiiWMlaoIuga+UHge9o5JVGV+riT2JZ9AWVgZJePQkefhB30UnRS+6WduCcDTNYNwZUvezFctE/5qS8WDUVj6rouFhUP4QfNjsAaXZ9QEhnJ//vCzODZ7UN0XxrNnLPBYKkfjIxO47677T4NggtX2zWU8dWIGgS93WLYjwG4aryEssCEvG3nKRvSXlGLnxAKn4QBmqaDKoQpJmJiwHIbFTCOb8I9+5gRfzuOxnElsGGw2zxA28SzEytqxoI2+76njYfjMSqUM0175ACBQ0w+dx6Limsu6PEb+nlhZIYBHcr04NCJX6iCMzS+/GYYKlXGuy6hI7X6ICfnNseJyuYtl53rGMV/+iLWhpaOyXJ5iSMPFBQ8PfL6LL366ja99oY+l2bSDId+N8OXPuzAGoXre3f+dm/D8AQ/NpQQf+thetJsBPv+pBqZPuPjGAx7KTho+8enHXQX29lCvyOyP4SuSV9z35FmU4EufowFM3uGS79xchIe+mm6vdfloQ0VlWQ0f61nDp0JL3mrl58rIFbZTxz++8V/gxp33IfEEun0fXpsxUdkJiwe/11N+4YTYdm9O+cTF/RNod7vyIFhE6E1jrt3EsfEeOqPemu4Ig6SIHyn+dUR9V8YF/oNQQC1KLfStLlw3wFK3pxrgeVIJiOQAq2YR9r55eAKAtJDnKgjqFy2egADQIBCIT7DYOHkKynPlrixsbMp45blaAuVeRD9gTx6A83hD6ztQS0Y21P0/FxHMjy8dVrCau3Iwhjmt5eP1TVKpUbNOU+yZ+PBNt6roAmo6GOBwYx4TRgVWUaBUChdT6MboIkBB4JU+13RnIbAGgzRSi7KS5xFZZPcqjKJkmR/LWuJLpzElFbOhz7znIu6NMdZzSVUBdilzWWGFYkjqy4okdtWfW84ZqaU4kN+FnIsvlY5AynIvslQjUTY27kemVHCl4ifTzX6MlpS1smx6uZYxLa3LVZVidCoNxx/nNNX3LNxwTxn/8Fd34x/+853yvorwf/6jA7CMQAF4vh5Fy/kwlOfK15FXnRrnkFq9vZbW+ZQG83MULX2ewAI1DOb5Oa4+155M/8TkT+Cj4z8Iv9UUaIll2FJ+4XQ9YQNRnz6z7CHTXcJ8y4AVz8tDhfBL0BZg77Xx7d1H0wzXUKlQw/+y9x8jENCnaJnP5bs95dLAsHVzzQWc8IGloIuJchVbquntJ5APq+IwnrSNpZ6vjtOX9YdVlG3XEkMzdlgJ6C7A9gy8Y+QWFUXmclUUCuQupg1ok8zHwLYcKSMJdmy7Ui1fS7xkExMV3DC1LZ0h6swIiA6WfR4J5rk433fTzFw/HfppX0aniTHCX05FgehSxZQK3OkvqbORLb+JlsfOPdJKRaly5kcMO6Vimwb6mzMue65msFxZZJnKG4/yS9Qglt+MADulYF9Scjl1VqWlpXVWqpQi/OovHcdPfeIwfupHJH3iEFpNbeHWuvR1UcB8wyhjmmH4DtaIEb1arqz/xj3vwcev/Yfwmktqnt9uw+92FVh4bQ4T1TC021/CQjuAGTdU48lWp4vAm4UfzeJbe55BcQ2zOR81U5jEe3d+N6Is0kUu9kra76UWVD8xsSAVgPz4d9fpEhDANnyUC201LEhugcBbyUrQ6PdQyDoQYhzzXPRfp0pFB2WBK34BWOh0VDz2MPDVeXxv/BH0Xh3bbRjNdpfgh2llibHmC8pNKb34e7btlgqTGl1TbBTqeMcR9lLCjmW7owfS6Dh57660TCeKVmVeYCgLdF5Z9JO+VNAkHymfeVsIFXZQtFZc81x0LWH+SQbW56qF0BMw91Q+VLmUumCxASit+cPiVxxCN9flsQ+kjLER9SDoqelArpnaRuYT0DmvJxUSrtPib0PS1qAMRyqRWlIMLvPfm5bWajlWCDNxUYjpdsK+PrIFWlqXsDSYv0r1vZUA/EoinN+96U789Rt+BV5jUYCri0jAgq4tBCu6nbBxIDsjavdaaLTTRqJcSODt9TpoVGbx3KbpNR8uEQy8u/ge7K5dLUC2bIqlrzmt8X0/RBwxpnSEk900BN+YQx9kAWv67A4sBIOycrWwGTVbtpuemVEwSbE301zD4RLZIG+pJyDlBwrI2+0Z3Ni+CZPm5dWR0GrxHh0/8Ly6PlTMhsBCTry+lmVjfHKHmn8msZESO9wxvelsjpShRh9+T7YvLVuIIy9RsN8zA6CTgi87HaI8NyV/L2uwRBHKCd5nhHM5bjYCbU+0T1Xgzla0eT/bOYF61uagUrHTPCTR152uLKvhXDXwzMqTLxUN+qW344LqOZa9fkaRj24YKxjnekyEdMrr97Gvsu2y/iqjpaWlpbWxpMH8VUixxquAARo3b6nfil+89d/CMcvKeh7TwtxqKZimW4tHyCXgCpz7HnsMbSHwPWU9pPX8KftxgeW1KwV0m/no5MdR9lNyDzKLPH3PcxeHgYBeX7iGgDNhMfpFD+HAEbix4BiybwHJXhDLtI35xcMpYXK7IXOc7RRPhUkkMAVBKBWHHvq9JqxuAW8tv0VF6Licxf6Ejs69oKzBvAf8ypBXcvZu3YeqXMOXEy87/auN3mEpI2kYQRRtzM61TvPVJpzTtcW3Y0TtFFoJwCE8FaGFZZVx7amI6wmwr1W5owjQbCCKqo3EWAb6s5Efenh87mQ2BZQzQKe1nA2SmZh/Ljb+ZDmkK0tu7uVSNurkUIVVVJH2U506a1k39COUBeDZAFlLS0tLS2uj6KKBOeFgIyQ2uHslrbVdngjnU+Wt+OVrfxu2YcFvNlRIRUJ0LCASC0B73Z6KQ063FvbpyMaWbrcDr9+DXwjxbes5wRX6156e/+RgEvfteF/ayFSAhz2RsqEpXUwIQSfcCmaF0RkJoyr0OF5kb56hwHkBHc8VcEqB2/W76MwvqnGKYJ5gpa85FQo80h+evuyd7hw+iO9PfYHXOLbLKdFlen5xXq5nQa57BstcINq+9yoB57W3yxMZvuelbix24zk1pHwBb9fLQD0TXVriMJGKnFSQrHRZp59W3hh+kCKQ5240ll2QdeMz+publoGqgLkvFbfVx3WmxEZRB7ptFV2FqpQM9WWAFQBGZKGVPnfByUU/dLro0H2KEYo4zUQYz6+VylwNE1Uh4TmEUuvj7/Cto7fKdBreUSdJ6ZW6bMSyVa7Jc+lyO3EtLa3XTfaqCGMXQhd8D3xh5MONkNaSx7B2Q1pru+EUCaeVSmX84h2/g8jvC2w14bUaCASiaTlnZJUczuNBW7AldT1hj55ur4PHSk+iVeytmTfrDW+13wGbFu1sJvMMhZZbfReRO42Gu9wysGiaiMJFgf85WVcqBlHaSUMYpA0N2TCVYixzye2UrMz3nFDe77QEBOfxjv77scXcvOJ4LsdENReAIIv/vtwBVLrwqqkr5Jqfvt1wIt/6sQ+TMc+jBi+02pY0sjTdgums/OnGPruiAhzfRLiUlkfG/mZX/dmtBHvOpBjPnPvw/Ri9zrLbUy5X1iP05DF/Vx/bWol1j4cXD6UbiEqlNJIPj5NAzp75Viv/msBKIccZoYV+57kMdr9P33RVgUjX9eXYPCnHE04VtsMvA2sfz2WZ0o8Ol42q1Ro2bRnAC3SoTC0trQsvxrzfsTd/n184XXj0vwxkW+d+GWnl2VTcgp9/w++qngxJGD7dVrpdZeVmyEO/10djqYVYwC5GAwk89PpsPDrAl0a+JtCW5nWaDBPvr/6QvKxTNxZSltdJrd1sxMn5J3rp9KgKjyirFFZ2V9ySY1gtQxUXuiOkIMXu9vvdNsK4ierR3bi1tv+yd2GhCNUvHvuWXNP0BkVZx0K56iNnF0Iy7LKxUmplNlpPqCFrde68By9caTWnhT0W4O5IZcBzImVx9oKV+6UbSd7pEK3mzFpBc+bmkqtcTUHH3cRGw2r0ZcXTfLZzFP0wqzyIWHFTsctlewIj903IHha75KdPOSOy0G1F0DtbIuVUjjMayHHIQUZhjMCTlH2tGgxi3D26W1VwtS5f8bdx+911WIXLrEaipaX1uqgy7uK2O5ejpV0opeSg9ZoU0HfjVYib7a7uxd+951+htzgtMB6orvwTgZSg3z8F54EAFiNrqPjnBC+/g5Odw5g2Tyi4Wi3C8W31qxFl8caVJV7y7PR8gZpEgHohbUQnkF4Wuk8GjIqRRrvoB2kPi/OLy24sucW3gDTCRtGxVVjEQdhTjfMa04v4ka3fLceo/X1zHTj2jKoAUewBNtemsU1wjLXDTa5WkCx/2SgkLtzZedYC1XTjZBdWecj/WsoSI7Rwj7GXIO7HUl4GymruZcDM6Sgrq3njz3KF+bGR5fL8Uw1DBayjwsoKwGqx/Jmy0ycWTyjI5vSm0VEFTaR6gj+vA/3LndKyZTMPp2glwakY5nRnoVIreeq6QhHSc7ebbq+Hq4tTOhKLltL+G67DXW+bhh/qZ4+WltaFE58xb3pnD1deeVU258JJg/l5kCnQwTB1/c7pn+tfSeShayrX4+++7T/BbzXgd2g1b6vOiNxmU+A6RHNhEf1+IHCT+g0HUV8KSRdfGzwEK2WZ02Rb47hr9C4VN52K/QCucmEZYKYHnAwMFfmCPsGWkaBohgqWAgFtAnqzudyIL4/BTVVHRuEHocCbh65UHhqNk/iuwifk2Owhe+flrYEZ4MT8MfVlIYpCdf3MQgqlN+27d83K1GqR6U/5WYsIuqODF2gWZ4GDu+TCc1dCcw7n/iBCKBUsVuTYVb/8D3+oeUAeGYWwy57yCM88pECAmJZtWtO5azYC9copfL+cnuqcQDvze3esQupmk22Tn8Jwo08qPzd/qMdOZSUP04ai9JlnUkCe5REFXYyYRdw0tkcqlek8rctblUoVH/zI9dh367Q8u2hkyBZoaWlpnSe5gYV73j6H73zvbarDwAutiwLmQ3yx4USLJOHnbOKZn0k0GO6vXY+f2vfLiPo9uI0FBALovHAe4VygRzX89COUhqyOR4LncGhwJJtaJbnmN+9+9ylYVn7mAj0MNZe4x7HY754KM1d1LBWHnOjECBl+GCEI0kpAbvVdLbfvot2ZwZXxPtxa2yvXIFuglbYNyNxX8uvHHzPxd/uWq2WZmvWyImTzq8awmIfZWRCClQmB/vkTXdjVlQ+JOEz3Z0QGBr6Ad+bO4g3S+PWMa57fUg7ZKJQWalrJ2aiFZaTfTX3M2VOoYb/8jS3Let+cPnyq0WetVFNuNQrEJRNavU3COt1aXkaRVCR4rUypdDArU/bN48ut5oOoh3Y3wRunrlGnr6WVa/v27fipv38LvuODJ1GsBXAF0Kk44dcaNSrP6XRe30+fn/kwn8/18p9bEGbreuk67qp1qThOK5pekP7+um76BSefzpdT0ap1e166bm7l53HmOu/HmeW9Xo4z39flepz5Ps/3ceb7Pu/HmR3DRj1OT/ZZG/Xx3T90HD/8Y3didHRULbvQMuRlKId44XT8MPC5/wlYK12Y16UIDH948FsCDR421YvYNFpBuWjBtkxUBJi9E0XscLZna5+beBdGpDz82+O/ia8+9vsCMkWUxzahODqulpfHx1GdGMPIaO1U6Dtqa7ANP2z9IHprwF4FAX72W5/AYKyspqubN2HXlTsxNTqCK3behFsmR0F+Ou4leOTocbUOxa7Pv/3QZ9V4sV6BUypLhaCISnEzqiMjcLsthEkPzWYDP1v4xVMFXCstI4dOHMJnH/pDNd3rpxUeRmaxTAs/84lfEnhOI9+8nFgp/9d/8Msylj40aDG32dpR5JZuVqET5UmFPTdsS63TQ79ip2ZhFCWYQsj2Jkv2W0CtXMSI3MsUuAtp9/yZeMwEaVrO8yHLIxuB9mb6GJsfU7C9WtztI+3DeHT6iALz8XJd7Vstk/WLFVsBtzW0r7UU5FZ72XfoxShWLdXIM1cSdAW2Quyt7sA9Y1ciq3torVIUAN/3CakcXZx3xyWpubk5PP3MU5iebmVztLS0tM5d/GK8Y/sk9u+/ARMTE9nciyMN5uegM4G5Y5sIDQHYebmRrxLMKd6JsuzjN5/4R3j4+KcUnJdGJuDUBaBtGzUB61K9BqdYUp0G0V/cEAL64dLfwObo9P1aZoJ/8tzfQytYkGN2FNxP7d6BPVMT2DR5Je7atgVlyzoF5rTQ0k+42+3g4S/9hUB5/RSYl0t1VCuTap9R0sLcyWl82PlruMK6WruwDIll5FNf+lMcW3hWTedgXihI5a1Sx499399HPGQxOJNoVf+dP14Gc8pxiso15rabP4yvPvs0ilIOiuN1bN2VduY08AYwStxbCufjRhlm1URRxqtlB0VUUc76fapULAXhuei+QtHNhe4jBHiWx1bLw+SREQFntXiF7EKEf/P0V1XjzaJlyz6KcMpSYZBtWZEgaDNfwrk99KVnhaTCQksHrfZcl+4rw0+kQezDDXw57xjft/teFNggVGtNaTBPxVcaGwhraWlpvXrRUPXyRqULpVcmBK1XFPHGGmqo92pFGBK2wo/e/nO4qfYmgRQfXodhFFuqIyK32YLfX7kfNur8fP8zGGoHeEpxXMDdg9sR9tIIK363iw4jvgh8GVEHnezdZWWA1u31VSdGQdhXDVCpOEyHUkTlj37LMXrdNm6178a1joby1aJlfKbxQjZF0F0GhP27b8AgObufXN/vQnW8k8k0UyBlbPC7b9iN7dt3qYagQc9N/bBFhHLCOUUXEE/AWYVMzPyMfPTIwUrDvYGmSoE8h3W6n1BlAe1+8XTroymrfWuRjY+z9Q1T4DttZ8A8COV0X2GeZ4JyAhQ/T/JYmU2UhXHMxS76/TCE7yd4z87bYWoo1zoLsUwWCqx46qSTTjq92vT6QDmlwfw8SX14GIKK1yIzKuMn3vxLmKztEiD3FKCzMSh7gPRaHdVVf6mcRkghyRxpHVINMleLh7Nj971qPKKFXUAvUusNMNvpQ3hnTXUF4HMNMqhzilJICzaSgYdOs423mm+HcJTWKvluG30vDRweZiENLcsRQA5w1bY3rADPM0ogtWemvbbmysfZoJONP68cG1GuLIMggivlgxowHE/2izb7FtxY7nXm99HupetE2TTz6/eXy0w6P12mrOdD+3aLpwOxG7l4ePYQHFOAXB5ixWK2Y9ksjlLQZkPUM/mWqwgxLECyn9RCnwJ+LvVlRvIJ/AH2VDdjzKqer5+XlpaWlpbWJSsN5udB0eD81qzIRDbG8Q/v/XewnTK89hIigb2g05ahJ3DeVZZYy3ZQsEwYtQR/FXxZ+Yuv1v7S1agYNbU9Y5qzF9CTjRZCv4WeQF0va1BhC2DlDRZTeE+VW8xZVMLQQ1uO5f7SR1Axzy7k3+UkurHMNpZOQWYglSo2+CRkloplbN+ddr70SuLW/pFQ+Hu4XKUbjlblukcmJotSDvqLCtLdmex+cfWMoT0wNOYAAzmmvJt+KhJ4Z8NSHgct26475Mst8/NwiYTiXKEheQ1Vwhh05RsLB1WZoSRHKYtpQxwVFrEsZVKugYqukoVhHBbdVXg6uWWdYJ5b/XNFUqmIvAGKUqm5b+s+5dqjpaWlpaW10XVRwJwQsO5TBjNryS6k8aNljfT/fJvXkMghVWscv3TfHyk3Erc5h4Sh94RQ3EYDbrd7qjEg4fzb/c8Lo/my8cp8KsJOdRKjSIGaWgA0ugJcQRPuIIXI0UoFgevKvAD9ZtrTKOXUygoUCygJHIXwljq4u7hfd7u/RiKnHj98SLmbUARWuqDQd7/sVAReT99mrUR146PpiIhhF5WlXETmL0i1jd3m276sU3LQa7cRSNkw6F8i/5Jmmgm76u8jtdrn9z6AK7CsZimrNTscUmXiZVTKIr/kq80HLTy9OJtOiMp2UcpgVsbolqKAmxOyj1X558fBsIgM6cjGnmz4mYvRV4JuiIEUZS/p4Tu2Xi2VhHTfOr1Cyq6hlpaWltb61UUDc/XWWM+Jg2y4WgyXuELD272GRBbbVtqCH7nq78kMwO8JgDGMoshrd5V/eQ7n0SDEc72jaVzzoTx8ucO16l6Ebk/5mnutFnr9AAl66HipewM1Xl5unTsQeKM8AT7mUa6kUUSiuIW3j35QIJCEKTN0WpEIkPP9EzKRKodQas+OK6H6e1q1zVppdTlT1ucsLEqtMqXgvOjUpeBJ7aonmcqMyE836jPMZca5VtdW1mnl4nJKhgq7SbF8Ma/T/c2XpUIoCpereoFkw8bJX505pBp8UtWKIeC+smU3I6qoc5C8mX96TnIt5HeyovfP7LCGreUe3XPkj72C3jZ+NerWaLqeTq+YdHtHLS0trfWviwLml4NSFsqI6DyKsPfm/d+H91z3Y4i8nsByQ3VA5As0u92Ocmeh7HIRn47/UlnahyWcg90j1woYJapBJ91ZvH7qQ+6F9E9OLarsJGlQ6CBiI9Ne2sC0YJrK+llAVUDeQ9gE7ivcqTvxOIO6rTZmllJLN+PAm6Z9qgHJ1VO3n7JUv5IIswsdqRRlIpRbGQhX7LKC3pLD6QHi9nMqdGJ/Ka1MlaMi3BK70h/Ad3zFbFTUiTM/cxLccjmlOwlDJ+Y9f65WXknwnI4q3ofdBk52Gqd67rST6gqLd658O55MXjkhgHN/quOgIVcZapD4Uq4SWIMqIqOHerGMm0anVPnV0tLS0tK6XHTBwfzUC3qDKz1NWkjVyHmVL+z8oT2fwP7tb0Hsu0jCUEG222yrjoccgZiCbWHJPYZFa9liSxEGbyzvERiSTLKDS33UB5jvdJWbRS6rUEaU9BFkjRfZKVEu3w+xtbwLQzH8tYZEg/Zil72lLhcAVobohkJf7MmdW7O5Zy/bLmZj5Nv0wjsC6BxlWEuSchLMYxD66PlS6QoHMEoC74n858n+eWs9A52BAHrW6FO5ryBEmN5i5coSxwy7udwt/7AI1aoHUzOQygHwtWMHsn2nLix53PJcjOZSqrFCIgfJXcr2BHLCOK3lp4VDFCAfJCzPNgKpOISxi67UC79z6/UIzjKCjZaWlpaW1kaRfvOdbw1Bx/lUBAs/eeuvYJtzBXqL06r7/qDbgdtOQyGm7g4GHl98BlZqpD0lZ/QKgZ/U9MjtCNz0WfYF8ntBajGnHLumhvRjpz97LhVfOu7i1v6dGPZE0FoW/cuPTR9W94DXNhRYZodCHB+pbsJIKYuicxYi07a6x7J7ymtP15C0YNlSeeKoiTQgeVHgOOp12X0ZPEZh4f0RLh8UU9eRuJDdMNmGebArfMl1BRwTzgnlCqZXifU29sbZrgxwuDGPRtRVnQmx86KS5Zxm+WZjT3YYFIcMrSlQL6DOCoKKwCLK98s404PYU+EQg0DWT9JyuNT18LZd+1AsvHInTFpaWlpaWhtNGszXkaykhl+577fgWGX0G7MqfGLQ7SH0PZTKVUV0jze/wmjj2Rapthk7URndrKK7EIyCXk9gLMZSsw03itHyXCz1fWV5J7QxEgvDK1LFUlUKSRGDyMJVzpVqntbpEobG3OJx1diTYgPQIAwEOCNs2bZzBQi/khL+KXM386GFPK10EazLhbQHMroeEfwpx3taDf1+DMOR9egF05EDkn+xz4bJsvMh5o6lmscvKdkuFJgTonkOtJ4PK68QyF7wqRNPn4rEUi+VVZ4Mh7i8jlQcSmbqsiJATuu4Sqss8aqCwP3DlsqgVFikbLE8urGLrZURXFHZot2ltLS0tLQuS2kwX0ciSMWFMfzGu/8KJbsOr7kIr9VAe2ZOLS/Vq1gyFnEiWOnOwsgsI4OsO0BmImDk9gIBIw9OkvoyT1SKqFYI5g5CN/NzyJSgjy3RlMrnYomW2jwxVB5Bcjhx/qUkev+0GL5QFIS+SkUntfpeseVqDH2AeEXRU6QllSeKwJrDPuOim9tt3j441eKp6C+hZB7KffXY9SO1CmojVtR4vWR+z13+QhIM3WZCORUMBacfdm2xKqq6oMYZwpBUbkuBCIa6zqeYD7vUZ7QVq2gqMF+thPNULcBF1BdwNzx4rMSEFj6y91Z1f7W0tLS0tC5HXTQwHwat9ZrOVmttez4SgYzJikv4+B2/Cr/bROwHiHxfwLAHR0DQqVbwWPfrqgv1fDsC2db6XgGfNAoLXWC8fkcgLMbJXkrbYeZnbJhCRdxJplLZVq4Go4Nx9GX28PGcr5SDN/dqlOV8JvuIrwyRXBVi+g1NtN8aov32EMffNIuDb5zDiTcs4NgdC/BGQnWoa+V5sdPJ6Wfh+inpknGLTjkdNwrYvHUb6Em01nZrpYGRKNimbzct5oTzXHX5U5ZuSZVSSd0zygmbCBsZdMuvuu94clNlXBZHfowu/cyH3E4iLEfkoZgPobxUMuWasq1EakHP8+exVIupz7sthYtuLyEt9DLM16ECN5bjS0Mmcr+5mF/oRjIvPahArpUXDhAZfZky4AUDvHf7DeiEDA15+jXR6ZWTlpaWltb6l7aYn4PyT/+5/DWsgRdDNGTeO3EX3rn3I3Abs8rtpDMzT4qCKSB3YumFvJ8ZJRogN5V2qPFAgHwgFBx5gYCYjyRYUvOj7M3OLuVzNxbylmkKNHldTOEKBdCvVQTp/DoadQ+DHTG8OyOY7+kgfFcLC+/20H9zF72blzB/3SycqTacyVlg5AQmtg6we28ZV10H7LrSw6FrnoRvrrTuvx6iQfvE4lGB1bSSw2uYa/PYVow6m7Kps5NwuYB8epHooz4M57bpqGtoFhzl653L7XWROBYGDJsoh1FxS3Ig6TIzMpXVPG5n91j4ndbvwVBL3lDKMt1ZmJZF6E7HGIWlXky/ANhywgRvWszZ6HWFZP0czocV+57ahkrCCIWBBXNQlDJYUH7lN0zuwObKqDo3LS0tLS2ty1UazF+DaDWMVvnkXix5IfAD1/0stpavRNBtqR5B3V4HpXoNM7UFnHAF1DPRO2GykkYFyf2B8x49W/2U3qIMpNwhNxYzC8VIwtuUjJ1WMTkXqd0WEoQjIdw7FhG+9zi6b5+Be9cJRNsPouVMo2tPw+8fQas7g15/Vo5lAZ3eEk4uncBMax6HZg7gqRe/jS888Tj+/OGv42vPfA1NI61YvJ5yimz4eUi5nCjXk4KluuAnoG8f3SHlJFvxLBUKjLPnS4qWaubJ+8ZGoKViCuYEZstKrfKUEbZZU4TbCWDQ/VtSxO0CWqWXfUMSWqnlTxBcTefRWXKxx0/fjyUxekoK6oxlTqt4uVRCNXPP4THQf9102LgzLTtKQ6OUisgSxDDMogLzJJTfTGbKd+M+/CjEeLGCu8evQrB8mFpaWlpaWpelNJifpZTlMLMe5iK0KOB8nUTj6I/c+g8Q9LsCQJEKg8gDZazyI7MPngJCAvXWYmq1jQP2ciPigUtyvR4abiCAlFG3zPN7aSdGTrUKyxgXIBxgxKireecqXreoEKC/o4e5mxex9MbncHyijSO+h0a/haNL81I56ODAQgOHl1o42WxjdvEYnjo2jUcPHsAzBx7B1x5/Eg8++k18/sHP43MPfhpf+Oyf4tFPfhLbj+/AtkH6JeD1FF27e34aHYciVNuWI9ctxOZte6WcZAvOUryXYZS6mhCOmWg1J/jbdvothNe1aGftBkSO0ZT9JOjSmV2WDRguka4rUu/i/WcTUEZkcVx2MJRWxgJZKY4YRUZNqvvMMk04d9jvfibui5XQ0U0l2tDT/FUDTxkRSbZrSlUCk0DtP5Z9MkmVA4WBjZ6UQ0/A3osifNeOW9VXIC0tLS0trctdGszPUgo+zgAgr5cIPFfUbsSb6+9E0Ek7HRoI4RTrVTxgPoqRtG2gOvatyfZ0IhN7ADWE3Lv9tJFhLmMVIcVoo1IaQ8VIQymerVKYAx7dfxDP3/0k5q57EfO1I1js+Qj8RSTuYdl3C7OtNl6ab2J+4SUcPPIinj9wEE8cegkvHXoSRw4/hSeeeA5Hnn0Uh558FCceexTzzzyLvfF9+JX9v4n3b/7Q695QkOc57c0hTlILNxt9Espz7dq67dyOUfJbvf6wDzfF+8k5o+XlEIysBNA1KWTnUFwu9aiA7QVWKSgPYPJQXfuU1TwYKgKEc8qlP3hWFvL9V4pF5cai8jfpQ54oP/N4qMForrAfKYv6QCB8OKRiYoTwwhBhHKMvw+/ZcQssc2XPoVpaWlpaWperLgqYD7ncbnidq3X0tcqPDXz3DT+uYpsPBHY8urNUqui6DTSG3BTMTePZWCahO+LWIGInQ8vgRJeYlRpgfGHydF/ilxE5rlno4MFrvwG3fBJNv6cs4Uu9Htq9JuYWDuHwQhMvnTiCudnjmJl9DodPLuD4zCEcO/I0Th48itkXX8TSoaPoLy2hPz+LLZjED+37Rfz6Xf8ZP7LzwxhIRYHW3tdbPNcDTz1+yq/czPzMqVKxglI5DW94LoqiGE7WuVAalWU5Tysb5y1bDeyVeF7BMF1GBl3AiW3lKkLLudm00IWPuBUjcgbwTPcUmA8dMizLUNbxctmS8fSm5xb2kUpRAbmSlB+7bK7wM08E5GklD920USgrEMpqbtBez5IklYDAUKEg2abh2vIObKuPX/TfzEaVvo5aWlpa618XBcy1LqyqlSm8ecuH4DYWJLUEhAToasDX3IdVZzVUJamjMrlVQCmFJyoKQvQz6Mo1WAV7ajIpoLRy9svqhfLzePTGh9EYNNDqtuG7C+h25tBqTmN27iSmFxo4OTuPkwszmJ4/iqOHjmPhxDE0jk+jOzcPr9lUMdp5nHfU3omfuu5X8TNX/jruqN8FIxq5pNweDDPB0bnn5Doxmkh8Kv44dc3OG2EZ52YN5mV2veWIKXmnP/k9M7GcX8mYEohPLfWU2+9iYJtIGum6VmKmXefLIXmWjyg7toJsUgjSfMKB7IurZMWAbiyE834/Ug1CKTYAVkM5FzNzXyGgMxQifdZZQaAvOQsLp9lFP63kdHeJwkCuiVQGjC6CSPKMI/RlXhVFvPfK62Q6zU9LS0tLS0tLg/l5Uxi+fp8FItn1D9zyU4i6HYS9Lvy+q9xZnp77pNzhFK4sy8Q2c5caH1YyiOALMOUqVpcbFBLYCF21cn1VcL21FcDD5yY+i2e2voClpUXE7iyC/iLmljzMN5pYWGpgqbuIRmsRC3PHsXhiFq2TM+jOzkmFooHYT/cybm7G/fWP4H/b+5v4ge0/gB3ONQrGg9fvEp9RBOOl1pIANMFcoDQzH/uBix0T16Zm4nMQOdod9E+BeDZQcpyi6kBISeYX6xbYgRFFS31psCgHlKDbS796+GYAIzQgt1hWT//oZ06relBwpdAKuMtfErFdgtpE7Z9hE2ktZ6PP4R5BHcs61cEQy4WyivOcBdYJ4YxPTrcWpoKVVxgK3CvoYeNFvto/9a5dN8M93dNGS0tL64IpCAIV4CB/vubil0nOHw5+oKX1ekmD+WtQ3ksigWzYHeT1kGWXsGvqZgRuD167DdO2MSN/qhWgyJbD2xlNCWunkEXrbuB7Csj6GRCTAsu1ejouKo3U0O8HqA/SbuBfToYZ47Mjn8Zs4SS67QV5wPXR6idodJtod0+i3VnE4uJJNBaW0JqZQ3eO1v0Gwn4KoUz1wQi+a/wT+Pmrfg1v2X4/ioUKessG4UtOhNh2t6eGFL9GDGvHrq2vyr3Aj5fdifI8eX1Mgf/CYPknW62n94odGdGVhinxfDSzePV2YiFixSwDYLvlgM0vE2MAJ5B8ZJlBcJa8WZ/grvL7TCD32EmQADrLN8XlpVrWcEHOOQdzgjjzGPYljyNLtmM8dkaYMVB1ygrK+/JivGfTVdhUWfaP19LS0rqQ4rPohRdewNe//nU88sgjeOihB+Xdtty45qGHHlLzH374YXzjGw/K809bDbReP2kwfw2iBZIicJSKw5HDL76iwMD7b/hbKgY5QyESmorjNbzgH10Gx63bUtCT443koUR3EdUAlOZMSlZ0iiaK1eVoH1QxKSkoW0sEOXZA+Uejf4x585BgX0tSB2G8hE5vUQDdR6/bRWt2HkHXRev4SdVINckefEkYwpS/D2/7OfyT/b+Bu8buY9S/171R59mIMHvwxZMCrymsEk4pvgSoWnlEDc9V8UwIOwtVmedFjVar6npTHA77mFuWI+vS6iP3sttXjT8J8QOBcEJ00hQotjJrkJSNiG4q5gABXJUP72/uK56LnQ3Rep43COU6TslSIRIJ4ZGAO+dxnC4sw1IVwEJaWaALSzfrZnT7YDNum9y5Lu6vlpbWxtDx48fR6/Xwlre8BW9+85tx000346tffTBbyneYoebfd999uOaa6/Dcc89mS7S0Lr4uGpgrHlzn6UzWzzASIGJg8UxrbXuhE4/tTut67MBu+K2mQJPAXaWEr538JBEJvizfVlwZmSXy054ivX4aHpG0F4dFhO6yJcH3PVScmgLBtfbLyCt/Mf8A5rtH4HmRPPwCtFt9NBtteAKJzdk5FcaRVnxayIeVRCHes+2v459e+29wS3kfZLM193EppyNLX8nOZqV2bOG1ttfc5uUS1Ypm05E1NEhMtZ7wLmql5a8bUdYdf92cVRWE/AuOE1mC3j4KYwYKSfpzT3oJoqKAetadPtcPPUOSmlQi89NSTot5zv8E9yrdaTKfc1b+ziTmGQiwB0LgqlGo5NXp+rj/uuvQl0Ndfd46vfakpaW1to4ePYJbbrklm5LnZL2OHTu2odXK3n1Doluid1oQBC2tiydDXqArTV3nWccOAZ/+76lVdb2LYPLfj38LpuNhU72IctHGaFVARZbxIta6o9hq7njdXpKMZPepE3+Azxz7A0xceS3K4yOqR9Cf3/0vUYyreKbzMP7N1/82KuNTci4F1LfvxPiuHdi0aRJ7tl+vfM2XGk089D//k3KN2XPXXfC9Pr4n/lHsNnamJzkkxwSeDZ/Ef+v9Hooj1WwuQ+V5CswSqbAEvdQyH4cBCjxAtbyHK8ZuxyemfgTV4hReR/f816Rk4OE//M9/oeKL09c8/ynRyv22Gz+E6/ffes5lgZfom499Gk8cekRZsvPGnWxcunvqKnznmz6moJyFrt2fxX/+n/+X6v6fPu1cPzZG4Ezcgm3bpmDJDaLFOirEKJUcuWHyr2xj0q7ArpsolEzUqw4sWcBGqpYzEOhOjyEXG37mFnOq2e6jJ4B9bHpJndvqUImMUx6y4af8RUGMeBArwO+2I3z/rbdjU2FUrlu2stZ5FYvKR39MnkMrP3hdVmq321hcXBC4Ggo1pLUh5DiOPNe2ZVNnL7qlfOUrX8E73vGObE6qgwcPoVh0BNB34Ctf/TI2b9qs3FObrQZuv+0OVM7B3W5mZgZ+7hKqtWHEd+rOnTtVZe1i6uLubQMqiARMBJLozvJ68wbdA24p3YvIdyV5sJ2iwLHAtttQVs+tThoykd3yD8t1w1Nh+BiRwy5XFLjnKg113T6sZtLB/zj+HxWQsot/WuBpHQ89H367oyzkQacjy1yE3Q58eeAFrTY+uO2H8Hf2/K9w7PUL5bznjc48QqlwDLuUUIxCcuW118t1yWaco5a67WwshfzcVWa0MhR6UfLO7xmVgogBx0jdknpsACrXlv7kyqUl+whS8AoqOkviyvzsPSJTasjyI4e+QsNQTvCjn/uuneO46srNAubLywjkidzMxGN8cqmYSf6m7JdQ7oUR7ty0G5ttDeVaF1Z8gdINjCFGddpo6dXhCjtnKxaLp/mNE8DHxsbUOJ+lU1Nb1X62b9uBcnkoCMJZiOXu9OPVaSOk10MXxWL+V/8NAonZjHWstSzmTA4byMllrPfGsLWw4zTL8sWUI9f5177+N9GajDC+dzf8Tg9vsr4Tb6+/C27vOH7mq9+LgoBeeXQTKlu2YmL3Til8Nm7Y/wa1faPZwmNf+aScq4mt116juvn/aPy3sdXcopbnqsh+/tOx38Kz8RMo1tLOh+Iwte4G3a6C9YE8CIMMMpM4xqT8/dRd/xdGjAkBPjV73YpW5adf/Da+9vgnFTizc59cjMzyd37wl+FlrvvnIvL1X37lDzC9dEQBP/Nl/rye917/Ftyw7y2ngD9GE7/1h7+qLOZ5F/6W3Eu/cius0Tp2jU8gYG9Ccq0dCNzLMZfLUm7HTVQLDooVC5VxeQFZiSwtwTQsmLbcN+F05wzGonbbg+tFAud1LDZ6ePapWeVDHksFoiAVg17kqZCI5aAILwrgFyKMxCP42O23I+90VuvCiD+/j13mFnMtrbVEi/ahQ4dw663ybBRQX1hYwEsvHcB9971ZLX/woa/ijffeJ++lGA8++KByexkZeXVthLS0XqsuisX8wqL/66PV8b8pdZqv87lasv/dm+6C325JYsSQAuaOPSrgJDe7nj5o6NtN0cVkWIS/cAgwKbqlrPUV5xvtp/B446uq8Sat8so6LkDudzoy7MBvLp2Ccq/TwFWDPfilN/4nVJP1D+UUjeQzcy+esmbn4jUcGX3158jtXX8hm0rFeRQjqAxLubSI2KA3zlpT0nXF5XXveYhLaQSWU77gsn4e1SWWPM3QQIu1h6GCS763hdXXcsHxe2mFxA09HDq2hHq1jLvvuQLliq0s6WEigM5GpZKVb4XgroyOiQ9ep6H8Ymite6alpQVs3boV1113nYrK8uUvfxmzs7OnoJyqVtJ3Iy2k99xzD5588olTz10trYutCw/ml1HZ7p6pdehFVF/A6m0TdysYZrf7Tq2MZyqH4KInL24HpZHJbE2BMN9D5PkCdSmgd/unx3DlsynvATLXaAn4q8f/BcyijIgI41QK5A2B9WXg7zfm8IY9P4iffuNvbCg4C6IAh+cPqXG6s+RiZJQrt+5HFrHw3GXEaPdTU3vuX56D95i9W03nsgrp9acYlUWhu1TExsyjat6gK1Au98+MTXQdyVP4vG9LScgqZIPcAydevr8FAe+8i/6M9Zcl69OybkcFeM0Qx6YbaHX6uOcNV2ByqoqBFJ9S6Mg+DSSFBF47xl3X7VmzYqelpaV1MTU+Po63ve1tyteclvNh3XzzzdmYPONsG29845vUF0strddD+pX5KlUppr5HURbL/FJSvbpbNd5M/ZMdDAS2Dneegx2XBNRXWs0J3sOWgVjm26W0O/i1xGfVnx3/H5gtLCDsd5VVPOh14DUWMyBnl+w99JZm0Fucxgf3/yx+9Iq/AT+w1bYbRZ3WAjyakEXD148NQXdfcXU2de6KBczzTnjoN56+HNILV921HIVFyTLgyH3OZWWtNgOpAdF1KJB7WYzl/id0K5IFLKq0smeH2w9COP0CEtknFQ349cNQDUBZsVjtb07A5qHxmPpegE7bw/zxLg4fX8LVe7bg1jt3ozBhwG7Z8BYTbNlTx44r6lIOswy0tLS0Xkfx2bVWQ77VEK6hXOv1lAbzVym6shDKh3/AziXyYy5bY5iopqERCXd2uYyjyVGYNrC7cJWaLweuBrTwErZancwvfAgyc1lZoxsuqRdDfObQ70lejqI05cqSWWCTOILXXkLQb8MqOPi+O38R79nxffAieh9vHLGtwYmlE7RPZ3OWVbSL2Fpbadk+Fw28+JQFnlby9J6wA58ExcFyHHOqYFiqN1CK155ieRwIhRvGAJ6b5hMUQtSSstw/2ZiuKl0HgaxDi3liyrxOUWb7wvmpWw7fW0w8z6xjUTAaY14HsCo2XNmi5/loJS5ai30cO9JAUhjgjbftw/V3b8PUphHccsMeKTAOIkf7sWhpaWlpaZ2NTieLCyRazdZ7Wu3DyQZvea+IVJBR0+rtLnai3fRm8zZlxXb7HRSrVRzpHUBV7vaV4ZQ6RvqeU363oxrDWPFSCoF5N5GiHNQNFV2DIAh8Ye4BhJZMUFkeFC3kfreFOPRhm2V8dNMv4l2bvxtkQ16W1ce4npNcLpw8zlBbJXV9hjVWGVd+2GttdzYpzBzHhyt8OZzbpqOimuTrIjYxnjW8ZQPeXKon0NBDL3NRKgQF+IyzL9vS3aRfdBExpKFkZvsFhIbc88RArMzqhHBDVeIoHg4Tz4n+5zxdq2AJsCeIGZFo0URXKhJd38PisS5OTi9ipFbHPfddiVqVnR4laA4YSnL5uHW6MIlaWRq1tLS0tNabLhqYb2QRnLw1GoO+XgrkUK7eeg/6hOV2D2bRRss9iZYXY8y5Uq2TCGWxl1CqYJpo9tJX+gCrnKPl3MwkpbTEdPFfX/g/BOiEAgQcc19yuk2URyYF1gKYBRsf2/yLuO/2+zdsgz92V7/YP70TIHbys3vHtSqs4KsRWTwZ+AjWcFBnT5rKU2WIvIbYXSqJKVSzLAYC5SW55/ACNV0oy72SYbeUtiFwQlv5gFOcX+BjIDSRCKTn8nsC6pKl1AUUkPNeqoiMsn/HMlFDEZGXoF9wEXQj9LqBsp4vSnmbPbaII88u4PjMEo7NLMLXLT+1tLS0tLTOShrMX4OKNkkpdWspZT7nueXq9RStqrtry7180u+5X/ZxMDmEHTv2ryC6OEiBLkFbhUZcS+aAfnnA84tPw20vKpBXJtBMbmte8kyL0gdv+Lt4463vhr+BWaw5t4RWd1GNDzf8pLZObj+90eQ5yM9CTlLD1viCVHhWu0Zycb2yI5talm0VsbcWqwg7YRjDigW6pVDUvDQ2r2/JMS+lZZfWbhddNR4PVtYolJU8++JBIA+kHsfGoWuJ0VjCfgyvG2K+28V8X9JSB8eOzaNaoHtNtqKWlpaWlpbWGaXB/DXID1MCMwU83EvIYk6IKjljKNbG4TUaqbXVsTE99xT6VmolXy12pU/Lt+cvL/c99xQcEgr/x4nfRnViq5o2lPmWbg+eionuNufwwf1/D+/e9r1YFXFxQ4l1mpneEbnEp5NmrVLD+OiubOrV6UxQz3CE2SVfodwlycyIOXeBmajWpeJoS7n0FJTTgt7rpzdm0JKKGMO1ZCrEAs79dHt2jpQrt/wzS0eYnrHNVeNQ+SsVLSTNAZKOpJ5cDV9SICnrkIig3pzrwZZKwWZ7k5qnpaWlpaWl9fK64GDO1/SlYEW+kCK42OayFfpSUCEpYqp6hYA1fYEjAasyDjnHs6UpUOcigA93kGOW0lZ+bBia62jwLKbnX8im5L5mBBl5fYHyebx7/4/jPTu/D3Rl3shiVMKjJ148FQElFwF5vDaFaqWazXkVkiIUhO5peVNnihIwmUXZibMOhih2NlSsd7BtU10qSSHYY54nw1OSX/3ASOAupT9MU+piHnsMjQpIhlYbCLAr8bhkMRMblXJGcSJzQueHIhYTPklkmHgpqMetBO2Wh9tHrsSqjwpaF0j6q4SWlpbW+tcFB/PLRapr/ktIjBiy29ytLN6+21dg3uzPoYUUyAdZDzhhPw35xzCJglTKurpaNQG7x48+CDOLAKJqIiJuw8aed46+Cx/Z9QmB8o1fnNgAdq55XLkHDVdcOL5tghWhbMarEC9rJPcl7V5/pYZjludKEbmiOhXKxfHReg1/7eNvwVXXTaLZaWVLUgX8yiP/2BnQsCwWi8IAETsIysReQFn/4qo0yKtTk2NkD6EOZ8iqhhxW5MRSDkL4ASP0JAi7sZQ1Fzds3oupetrltdaFlwZzLS0trfUvDebnQWTZM1k0XzcJNO2z3wC/1QBD6RUrRXSSJo52jqljJVBTse/L8hTG4kETURSraB0rFBfwaPNLKK7q65vW8uurt+On3vTP0Asuj6LUa4UI45W+Oup6Cr3u3HHFGV1RzlZ+Fht9WAybaKtu+bMZuWR6wtmkllO0lLMi9o4P3IoluTc37atyplQaEuUKQ+VDxjjPeb4n44EdCq3TUi8VuU5WHkJDykIaoSWPSJQXc4v5yL9Ovw+rb8o1EYiXQte1XPSkTMUDA2/YteNVN4TV0tLS0tK6HHV50NQFVBAJNJlp1ItLyWJFjtq9fT8KpoWwR3OoibgMvOA8sExXmdjtPkVreRQGAusrfQ+OTB/CgntcWdmLo+OnTHOby7vw02/+bbRO7zB0w+rozLfVvaYiufcUu+W3hF7HypOvqQyQdXvN08GcKlXKp0B6WMYuupQs38+BrHTD3ivVMe6dSn/efiAVM0ZpEbne2n4lDJvoGrJvgfNBtb+icsbiQjBXe8l2pcIz1gTGDYFxx1U+66Y8TsymhU6ziQ/fehsSBfpaWlpaWlpaZ6sLD+aXEKy+Vg37yudwxoZw/tDn/0tFPLyRyijCVlNN27YpUF1X4wxtSEX+SqKmP/qwaH0dbZTxYOHLaro4NqEs8BTjlv/1K38OQ0FENrwIqEfnD5yCb5PRaTJSrVcqcMrp9X0t6jPW5Rm0uq0Gj6Ma15XF3raLqgEo3WBmDx5Ry0u2jR0jDnqZuxLFdVWDXuHzntM/5WfO+OmOLyBdSGD0KlJZy05SFHqyjQzVnHy2DHeOjaG/kCCRIhbJcQftGK3Axfe84Q0oG5VsRS0tLS0tLa2zlbaYv0atMj5fMiJ7FQUcnYGDQMCMlnDbduC1WihYWcM9o4C8a37KdU+nbIbaO3n4UVQmphTUUX6vjY9d9wvYOnHDMqhtcPF6mnaEo7NHBH7Tnw1dRAoFQ7mS7Nt6l4D6aysM3Ec4mFG9eUarfEDGqvVT7iS51D0uVFHI7ou6P5IefOS4gnIC+JYdVbn3y/41nBdGKfxbiXnKCq/2zRj2A4FwmWdXDCkbQzeX3YRKSk41CDVw5a4S/vuv3Y2Pf9c2uO0WZudmsGt0DDvHN6fraGlpaWlpaZ2TNJi/BtH1I7ecn28xW1pIVyQBptWJ7sVnSlFkqpCJodtHv+Oq+OMEM2UxFUV+D6HnKliP/AChJK/TlXEPcRCozola0SKO2yeF4QuqoSi3HbM34Z5N7wIN7oy4cbaJrLkiyTGuF5F5PTdRnf8on3K5wIzEQjhnLPOpnXvU/Xgt4m3xs4vCfIdVr25TZWC1LKugjoOij7lZMPHcSwcwyL7ibNs+gk63oyoQueKsTYHfTeGfbiuRUL8ZMyqL7L8UIGLow5cp2ux0arED9BoG3n/PHvz237sPb73lRrzn+tvhr3TB19LS0tLS0jpLGQJaF4YsMx09APzlHwN5QI/1rj+d+RZMx0PJNlEpmig5looXTUCvBBO4uvDa4ljzbgzmDmBTYZnyRkqmAFcKh4yZTjFwB6cpGsAJ4pZtoFRJe2yMYzmeegFPT38bwcgiqtURuQdl9LtNCHKhYC3fELo/VKrLDTvDwIPtpFFAun5bbUdXiSiJ0BeYv8behhHzKrV8tRIBesWJhQEM9kPE00hohRUYpDVWxnncAxlvRwYent0O5RFyiYvHPNeYwZ99+f8v18JWYM6fjuq8qd/B3/zeX5B7k4YufLWiIf7PvvyfsNSZXhG+kvt64y3346ar35zNWZbphPjtP/wnyopPVyRCOisPH/3A/XjDW/bgyEsufv0/Po5rrrnmlH+5bZmyHmOR26iXayiNs1dRAyPyI7VKNRQcWadoqbJoFbNCtkr/X3vnAWBJVeX9/8up0/TkYZgAw5BmmCEnBcnJhKygoriCq9/qt+siAhsMq645rq4JdVXww0gQsyJRQdIQBoYwMDn2dH6h4nvvO/9bVd2ve5phQvfYPZwf1NSrW7du3bpV/ep/zzv3XE7H31XuxmH2bEyfGcP0WTGUy8CzjwXPo7L34SNz6T9KJ27oGG1FURRlAqHCfBcZLsxzIm7SyeSoCfNkfzesZ+4Kt4BJ+RqoaeV0Bgr0tsLgoLpWEd+NZLN1pBuEUaElYUR6KjU0XwSjtaTkgFJvCU1tTWHqyGRaZ8Dp2yJCbjbsnsGY6LsLz3nv1pPQX5gUpoxfKJrvePAWrNmywohgimX+YpKUe0/+/rXXSudjD3sY8pf409s/C9urbifMzz3+QsydfXSYMkijMI/gnzTdlj718bfB6qvjmi8vw/QZM016RFMh6Hi15puHCfOCGTCMZgupWt50rJLZ7cW53VtDf6wbi/3Z6OmoY/KMKuYtSGPl8jCDstdRYa4oijLxGVmtjSKUAi/mhjHRlpGg2GkUPCMdtyuLnQsEE4fbxWN19FZiJnZ2RORPHEHRPQTZbHR5KPdX4Tl1OHZNyh+aNyWdCsdy4LmeEeUMm9jojzwcinKyI1Fu54IeWJU9iBFgWxn3j3DCGzbdSO0w3pZ6rIoN2541lnNSrVaNKHddG7OnHiiZAn/tPVnkTsn9HVncx+pTRjyGzwNDIDKOOl1ZTF5JK1eKWLlqMyZNTaGtrQV9xT7kcmmzn0Tx6qtyXXZP8Nn2fVSjiaeKucCnfWSDOWLpKvK1ZpzyyiL+8co49p+XxDNPVUasoy57Z1EURVEmPmMuzPd1TIhBEWnWsBCDuwNFXy1U4XVRRLlUHfl0HY2BOhgvumRVB3zbSxXZL+LaKFxZbCcGS7RVucLQeCYLqn4wcUy5KCKsEizEiGM5zKk4xnpdKVWMMHdtFy79zSu2Ee6VBrealyLLugiJ0I85wpIyWJYpr79izsE6FVMTw+/BsSsolYtyj4I/mWggLLcPm3L0kM7Q7hKLy721t489yc5MU2pQVDdSq7EecdMBHi7qO9ZNMj7rBx+WMa5EjZ06O3xeS3xQhKoXPE88V9UP9vmO3Hc+VqGIbyTO4IiZKu55wsGa1VUsWBjDUUvYYQkzKIqiKIqyy6gw30MokFPJJFKj4ChNbZ2M5cItEdduHL4Ir1o9hoobg10LRJQjQru37MHyKpJeRsm30V0qoqdUEpFuy+Kh6nrwbE+EsAdb8nLxXR+VoguvUkSxqyhC3RIBXoMn6VzXRV26TjkQ5paIs5htxHut2zLCnUuRS5+IeBHXVskKxLuIPC69HssLRD0FeLTmcVUpg2W5dr+ISXYALDm+D9XEjt1nCNvF/OrSsFAqck0hGC3cHgvoJdJd7JT2CLZpLQ9m/qzJZx9T5nCG1WDfnuD0W6bM7ZDzpsJfIrZDno14+Gfc6M7CUI7lriTcUhIHz2pCfx/HFgzC+kbRWWr8Tz66/Kcuz4Fcn/kVqBaUR0O8bwdHRwI+npJKuSk8t9XFvX+uYdlDNWSa85g1z+xWFEVRFGU3GHMf87UvAL/+CZAe2eA3oeCAy0Yfc+Nnnk2KbhJxFI+hyZ+CA+p75mPOc9TXPgl36+Mit3IimSyzrsOT89VEcNlIohk+aL1lHarwfRGJkiOfiiOZ7kdSyojF6mZpJFb3ZamhOd0u+stGlb4KcQ+5WFbEfwLxWM0M3EynaGqvi1hrRSxRMhMo+VU5dywp55U8spcu6349JULSQSY3WQR4j5xXxKNsV41jciuysbKZpt1EL5FjeHzZSiKXKYuezGNTfDHWNp3Iqg1hyBOZrCLbAuQKMaSyUvemOOqTpcxQhKZ7k2CYbkZ5KXbJ0hMMfiXM0mAk3m04mPGxx+/BY+v/Yrb5JxP82Ugby+ryC/9VOh17PpmObfXih3/4IrLZ3BAfcw7qfPtr/13u+/bT8rNNfvibL6O/2GMs4pFFn5x21Otw5JJDUW/fjA9//j4sXLjQTDYUkcum5XmKoymbl2uUZ7k9bvzMSTocDJwI/26je5IuSPvX6uYe+8U43HIf5qMN/fE6ZjTlpDOYkM5XkFfZuzCgj/qYBwSd5qDjqSiKsqvQuNVo7NqbqDDfBah5frF16ODPpAgb+vhW5UUwOTZjj4U54Xmomd2OTWY7vv6vobG2jtZcHUnZ74kALlf7TejCgECIJ5MubHQhk4yhrd4POzVZHq6a6NuKiGER8PFAeMXrLhI1FzVJS9YsI9oLuf2RSvbBE5XruCK+5BxTJ03Gtp5O2ZeH7XAgKtPaJa1bBHy7pPvoK0nZUmFG+3A9F61NLWYK+c7ebmmfhDmWZZZtC1byBGzNLkW5dYp0ODghjqmOgU8il1iyjkJbHbkFRWTl2Iw8O8MNxnSXTtNqG5IPNSvbprsbWPdYAhvk2aNFmWMZ90SgxxN1/Oz2L8CSTgZhjHHO9kmf7rnT5+CMEy4192tPKfatw4/+9D1kM9JejC8ZkpSO0WWv/vch1xD2C8DgOj/7/bfR3bdF2nLorzanHHQmFhx2HOYcuRH/9MF7MWfu/CCiTGiVZ2cyLw0bb4mh2W9CoTUrz7Y8B+mUEfipfLPJR9LNQTQdGtXj0p41aQovXkFfxcYZvQUkpTNh9xSxJTttyD1V9h4cHvLWl7kwL5fLePLJ5ejq6pV3zp53lhVFeXlCaTxjxgwceugh5hfyyH11b6DCfFeQ+3Jbx0NwfBvtrYPCnAstyqMhzKO7ET0D1FreiruRczpBV99sKhDmJJPth2PTFSTInC+IEI6nkY/njV07l/BFJEVWo8DhIQirJ8I3b4lmFQGWapLt4PikCOJsGPElsLZHQo+fwyWKgWjWkRqNlFiUL6y8XAR9m2v1Ilwnho3F2ViRPcUIt+HPOLUiOyTphRYKM1IohNZ+jiFNSZWyDcK8SUQ4XdgpzBmBxrjlyxINkuWK7+R6po6NyxN47N44PEfShon7ncWx+3Hj7V82ojbCnCq8CIYO3FVcb3uzMu8No6mQRmHO+zXSn2k6lTVVmNTM2T9ZnaA+be059HZLZ0sa1PWq8sUyC09tnYku28bkbGFAmLNDyQGhPK4l12QmFcoVpCNFYS4PXkrSTLuyLfkYyWdGaOFnWtKd/jr64j04rS+LlnrwXD0L6XBFj4OyV3Hkkbrsn16ewpwW8jvvvBvTpk0xoUH5t7o3X6SKouxb8H3muA4ef2wZmprasHjxonDP2KPCfFeQ73kK88hiTteBplzSWIU5ALQV07AQc8PMu0fj3eB7hdvV3m2IrboXWRHOpCCCMyIW95EQARaXpSkXlyrycw2FbF0EUvhiEgGdyaWM5ZhuLhGJlI2an0I6mzTuHxTjmRwt7zsekJnJZcyLkC8+ujXEw54ChSUjvNCXPSKKrW1bPXjMOR3bYrPCdLMya15n4kAfqRl1NCeqyDRYfim8Kcy5ENafxzTlgmujcKdFPYKpLFpuD0STmvCRrhvD+qfjeOp+ySw7d0k4SoGbO1fil/d+H3kK1VGCP7Ob9moQ4CSa9XNEX3OBlnq2KXvwEYVs1ohsPocjkZAOzPSjluDBe3rQPjn6hSUgCptYaMohn5dnQToGzXl5jqT8RCoThE4U4g2PBMtju1QZ7cd3cWSfhymxIN82O4aeXLv5rOxdXq7C3Pd93H3P/Thy6eFob9dnT1GU0WXjxk3YvGUjjjn62DBlbFHb1m7gDtVSxgLJ6CwUyKNJJF5jk9qCtYghRmpphCI8JeIpn6sYUZ4Soc5Qi8aiHS00b9arRrQ2UvWySKar8BwRiYmYCPSRhV1EMp2UPGmpF8U7XUQS0jEIxHlSlDM/x0Upc4kw/uV1W9ZZ9PuD8cp5LcSebKN6pAVMqSEpIo/lRjZ+w9DLNUKcbixRmEj+ijAkwqOUOyDKRUxWPbku2T7wiCrO+wcRkDPrZhbSnYVad3PHaukY7HrPkhNPkZEGBtN/jRdH95Ng4QyeMXmOgoGlLwb3R6EOIyjivXDG0JHggM3+5VvQ399n/MobccNOVMyPmQGedXl+zLbcN3YAzGdp82jhc8JkryzPgFyCSHlYB8Ww5B2TMPf4jLS17B92zxRlLFm5ciUWLzpYRbmiKGPCfvvNQiZTwOrVa8KUsWVQQY0xfFlP9CWCFldOAhMRCFURLgPbu7+MRELkTz2RQTJeR0WEZiPVatqEUKz6gTXXqyVFvEp96h5iVYcKC+lUDdV6Al7gIj0Ar6NWzVAeirDuM9dQr28vCinAKco5ERFjn1OAM42CMBLnxITVC68hSjNIp6DsOSjHckOu1ZriIDG7hqx8zsMNDmVEEHNQAL1EGouiMGda5D3CcmhcroSeIdzmvoxcBt1dmN/o2FpMWjGGUy6u4sCljEQzWI8dLWyTzZ1rBlxMXopGq3XkMhKFthyO6bQYoc1niT7cweBNRnp5MUyby0U1WtQt6SnSYu4Mv8EN9BQ7zAXZw/JEv6qwrhTe8FPw5RmrsZMUPtEU4uZRkrzRD2zs6zGNbOhz0SyaaM4rCzjlHS2m4xq1ny57b3k5UqlU0NXVjWnTpoUpiqIoo8/iRYdh8+Zg3N9Yw1fxXmGkF8lEWyLswYAZIzLSsbu7ECOYc4xJTYtqkBbtI7kUJ5lpUK9CxaOYD8Sk69G9RcRqJhCx0bH8zLIpzqxyMNCP27VayXwmuaYcMmkbbiFhwh9aRctYx2kVN24sso5EOsMhUrhF+yIcuw6rvp/5zHPXYlVYc+Uc033kMnJsklGx60G8Fx4v+cqhwKWBl1H9ouuuSNtzDCZ9yCPBSwFOd5Yw+t/A9fGa+bmxaXwLWHJGFcedw2g2QRrzvNhiVaoo2j0mH91OeH3RwmsevrgifAvS0C25nPnMNFqz81LB4Xm5cJIiWsir4eRAw91USHC+WrgvaGvSWA4FNzsFFNjMzzUX/szfz7ny6xTaUr9wWv4IO7xn5hgKark3lbot2xTiUh6d84m0obGoR20c3g+yqdND0Qrao3VmAouOlnsibcsydNl7y8uRjRs3Yv58jdGpKMrYM3nyFGzdujXcGjv2mo95OHP5hIYW5tu2PQTLs9FUAPKiDuljTuheMCUxE/Orex6VZTgUy/76h5HtXmusv4zMwrvG9IhJTYHPO6FftmgkFOiHHaWl68Z6PNJ8PnTpZv6mlkAM03I7nEJrAXbZRraQlXNzUiPXTOdPKNZzzTlEM4eaiYsaqNb68Ez/IXiuepSIvTqKsypITRLRzfzphBHnJJ2oihCPIRW6a2Qy2dBmKx0EOVWjLzlpyQ/WlQKebUPRHkVoMQNAJY3XPZyUHLelC/jTDQlkB0PHb0dH9wr8+v6fyLmDQhnG0HGDSYAOP+AEsx4tesvbTHQVCvNG3/Pm/CRMb58Tbo3MU6seMGvWk23Ce0T3mANmLZZGMrvwXG9S2juFKU1DnZALch9zclwmlUZ+Ml1q5FlIZpDKS8PIg5EIr51wgKhXqZs1XVncYh1bN3Tj/f9nOg7cL3genA4P3/1Oap/4m59I8JF5ufmYP/30ChxwwIHyXbGbI7sVRVF2ko6ODnR2deCwQ8d2IKgK811gJGHOyCy0OFNIFupTcFjsgDD36EGhVN/wOOodL4h4raM5O1SYU3hSlDdz8GeYmMvGjKU4mQwzCTk5LroP0bFmLQuvgZ8zUgZ9SehLHEEXBlp26c5Ca3jVr5qFbi20Wvu2Zz6zHKZzYqPosaIo99wanupZinXZQ1GaYaMuei8j7Zf1a4hLx4anqiel7tW6icvOI9nfSdRlv4hCynbWjeKcnQ7Ca+P94DqXkX8E7uNpo4GiPIZ72D4U7dT/DYZeuaYaXng6gQd/k5DrDhMboNH+kWf+iCeev1/yctBlcE1cFzLN+Luz3isbQadiT2Hz/emB2/DchsdMW0fC3PddHLbgWJx2zIUmVvtweH2WiPnv//G/zQUzUksUPYZW+ovO/Ge5CSnT+br3weV4vPsFTJ023eyPiOKZt+abEZfnJZduRlOrK/c0EOSNwpzQ5SUhHaho0qG+vj5cfGYBxx/VZizlciPx3S+MTrsoO8/LUZgvW7YMS5YsMb8kKYqijCXd3V3YsmUTDjtscZgyNsgrVtkT/HAQIslxJpoxgHqwPimI9kIxSui+0ehnzXpwRtAIWsCZx3aGptGiHIbjNhitKQun7WfnwrHpChHsi6BbCsU53SDKfeVAlIsKZronaRTrxlru+oELS6CTDVW3GdWyhb7UJBSbPNRERNc5mynrJmLct6uIybnjFTmWsxbxGHksqyIy3XjSrAnrxNn+e4tm0whtpnG37QYV5nUFbWE2g/3BR5MvbK4BfD+OuYfVsPBFppLn7dyw+Xlp8+Clz0gq9AenMG8vTJNOQcII0dFYOGTBssvmPMPJJHJGlI90HN1x4iZc4mCnLIKRempyf3htPH7K7ClwGLrjRfClQHP/kp6IvAY3lmFQmFfDNif5dAJr1ldQl/uYkOctYdO9KWh/RVEURVF2HhXmo0ixYbbG0aYeWoQYRKPkcKbRQeFDLZVKxuA1CHPXqxtRTmtxhBHlLgWbCKsGIcpykulg8CH3+VIOp+hvhKKcApxWcwpThkWMLMj0LTbh/2Q/hZ0RdyHVqi31K6A3U0B98mCZHDiYFHHny/n6RdRXaTkvebB9EYQip32PeaUsEZIWFSi3wmL7RJxTkLLjQeg5E107RXnUASHsN/G46Njt8GJYep6Htsmc6TRMC+E5inaftHXQiKZ9RKQznOH0GfOMMB412O61QJgPF9jpFNs83BiBulPY7hhSsm3Y9mDbzW2eaX6NiDX8GkLcMKyNZ4S5fIjX4FicwTO47uECvSbZG33MGVZx7VapozwzVtFBf6lo2m6EKimKMoGoF0vwVj+DynOPwlr5OKpr1sh3ScMfv6Ioo85eEeY7EhUTiZGuw4vM1kLz7s5gsxPEM8HgTGpeDgLtt0WIVweVjyvCNJOKyTqoD+va0hQz7hgR0URCFOdO4CkxgM+ZPqUMT9bMRReYSnGo8qRApVW86gVWY/qTUxBSiNNi3uhbbvZXOyVPGqVqDtvCiYsGkKJtOVNOztni1hDvdeCm44iJIKdAdupxE4GGEzfxiirh4EjC21CyAgEenZKDQqOOQiTOo3GObBLuopAf5v5uqFsxHPs6uZZhfw1lp0vaMyiEZQfRU6Qcqct+7bPNOUYLvusqjjOiwC7kJw8RwsOhZT/1Ir5i0uUJPwF0LU9LPqsc+MhHVKMeTohVkmvOWNI5S8i94K8lO3YTqEl7dGzzsWVDSToCHp5bUzH3UFGUiUm9VIL17W9i05vORs9ll6B0xd+jePll6Hrb67D6A1fAe+Yp+f4bxS9ARVEG2CvCfF95SYe6bwipZBy2H4xKHEuLOfVabRL91wPh1pSuIx6ri3gcFHKMzNJgrEZ/KdjwvMFEivN8PvDHHi7O880Jc410ZykXq8g1MQLI4LEU4ub0slCoDgh1UcIU5hSVJg+zyGerGMRf35wPRKNbqiHHCCGCsYpL3Xv8OPozCSTkNJYI9H4RgnER69VYUrQ7Y7VIPrcq+7jflrpVzPGkf5jnR//gLtMOkT96BN1FOCC08X0SCfWmTAyzDuLg1WCbrHjh0ai5zfXSz5y+39lsHs0toxueLapTFL6QEw1FMGWkZy+CbiOp5MgjWN1a6PsjsOORHcmZXvCkcdzw4inG4WZRi/mwy9UXdWmJqLPy0pF6vqsDa7rLeOrBGeZ5VRRl4lHbuBHbzjsZxeu/gdTwL1mh6cFl6PmHt6D4qQ+HKYqijCZ7RZjvy3DwYzY5TOGOMsMNE4xTXhRRW63FkKSiDSlaIqIoqhoolmm5HpZWiqFiwUQ5aQz9WBExTkHFJZuPo9RHwS3iP7ScU4DTXG1cVYYWaTD7BbqhUOhF9LqBiKW4tKRXEJMLitOXhtPuy/+OCGoa/+NSLh9Iq+rBLnlI91jS6RFRjpTxO69Jp4KC32kQinSZiGC9rQafenY8eE72FaL+hSOfWTUaiblEA0XpIrTwGMZlD7Y5MHTD1melrYM/EbqvRBb59uYZSMSGhYjZQ+gWY7u9xlWGNFqjmnPSk9oBYRWlrmHlhcj9phHq7slNbXAd27jHRGQYm573faAXwnaj2A626y/hsxMLz/XU81ls63ZR6g/uhaIoE4v61lXofPcl4VaA99oz0Xblu5G75LIwBcif8yq0XPnv4dbe569//Ss+/enPhFujg23b+NznPodnnlkRpgyF7pp33XW3WY8HGAr393+4y8TyV/Yttn97jxHUGRN9GQlalOk+4jdE5xjp2D1ZiNGEzS3mMwW52Rbx0+iFQIt5IkHhOphID4ekpDVazZPJunFxoShPDvNSoMZiRBbHYhnBgFCzbdfMEkERTr/z4a4XjMBCVVb1Q0uL0wEn2Ww+cip3j/GupeI1qUCacb6lWhnPRX8qIW0o0lASqn4cvpy7lBJlbUvno2obq6xdi5tFvhkHrLt0aWEngwvbhH2D/kpwrdzmNQ4XidzL89LFhbvYhsybFf075zB2KmS//NfVt21AKNNaHrmyzN/viCH3ZzSWesIa6DwQdgSito3VCyMeEy28CMYw9xvcfTjrKCP10M+c18Z8bLLpM6bAletovG+OE5yLix11euJyl2qBeOeEQ265z1jOfd7fYdDHPJ2LY12Hj7XLpw+E5BxeT13GflGUPaHnv78UDOIR+g+dj/brb8V+V38B6Te8B83/9ypMuftR5D74ETRd8ynE+NPrS7B69WpceunbzHo0ef755/HQQw/Ld1vDl+YeYtkW7rrzTjz99LNm+5prrsG9995jPpPNmzfjve99D154YXSvZXehIH//le/F8uXLwxRlX2GvCfN9EYpWipkkXUgaRNFYwJduPBXM7kkYXi8S5bQCE/qZGyHdILo4+JMzgw4VfcHgUXb8WUbjC92kSTmB8ZSCnC4r0WBMOQejtkhhtMwzX1XULb8cuXDQKMsyFnNn8Eu7P4x3bvyVReT7jpQpYtAWMckQiXY8jVqviHy3KsdWURdRyHMnvSz6RUZbItSlheHWRZhL/p56Fq7ko3jlLJm0dvOSaSHnddJdxQk7IvyXVvXGa6S3SGPb0YLOfPyOn3Oo7JA1v6Tr9SAKy6D1WgSqiNPp7TPkWsKkUcLvLZuJiCLxz1jmgftMGrnEyO4nEbx2RmBpFNvRC2u4b/oMLwdfeiu8pynplXGZ1NKEXCaD5lwBLflWNMkSr6WRSgd1SWWzSOZa5N6lt/PDJ/RBzzblkWueii0ZB1taS7ASRVMvRVEmBp69AvmzbkHyYPkuzmYw5wvXIzl/frg3gL/ENZ/zBvmSfWlRTiyrgjVrVqGjY1uYMojrunj00ceM9XvbtqH7ab1+YvmTJhzmli3bT+hy/vnn44tf/OLAd15/fz+efHKFEevr1q03aY309vbimWefH/hebGTDhg1yzDq0trTiK1/9qimbrFjxtFkYDtZxHPkuTqKpqQnd3d2mzs8+Gwj44fAczz+/WurykMnD64zg58cff9zUs7Nz6DWXyyVpj0fxwAMPoFgcdEEkzMv0ZcselX39YSpdHhnqdtC6tn79OlO3VatWNby3lInG2Avz7f8O9hlEkhrxwUtMJ+ULK52RP8pg35jA4N8hNgdGUkPWQ+t5iOVSSIcbghGrko+eC41uLszDdAr3yJ2lsRwKulxBdjJNdkSx2im+bYvCO5jCPYreQkFvRLvkrTZY5ynenVgQB7smfRfj5+y7cKryZVKLweNU/MyeteFLpeijXmNAZpaTtFBFCnXpHPhyIQm3gmpCRL5ULi4VK8p5qqHlnL7iLIeCm5858JMdFUKxHlnFuUSdFHPekEhDpqWJ26YAK1943ohjhiHkNQWLnFfq2JKfOuTY0cCVSvEcbGPCF040A2iOPY0dwLrEMVS8c9ZPM0torGyeUbZ7h3yhb0w7WLDgAGRE8CdFlHOx5WXBXyAYLrFil1Cq9JmlXJbOk7R9f2cVvZsts5S7Kyj3OujfZsszUB1YXMuGWynLs1FEpbcfz5u4lsGzoewl+OiM8nOpvHxIdN9q1vlLi4h/4FKkmoJfaEl3sYrfPuaOuDy4svyi34cJeS+ORKlUxlVXXYv3ve+f8clPfhKve93rRHg+ZPZxNteLLroIV73/Knz4wx/B3/3dRfjr/febfRG/+tWvcMUVl5vPFMpvfvOb8S//8s/46Ef/Uz6/yYjiRm6//Y+45OKLUBLxy07AFZdfYcrkd+7HPvYxqcOnjQB/y1vegp/+9GfmmFy+gJtvvhkXXHABfvOb3xoRPHXqVHOOj3/843jHO96BH/7wBlNGBN1Lvva1r+HSS99k8rzzne/ElVdeafZR3L/nPe+Ra/4XfOQjH8abLnnzgLinNf4df385rr76atn3Ubz+9a8f+JWBnZfXvvZ1+LjU89prr5G6v3PEzsqtt9yKN77xYnz+85+X67gUP7rxR+EeZaIx8l+NstMYYf5i30qjTH3Y1JcU5RwASgtwIxSkjXVKp2LG13yIYHco6Cm22etmWeGOBqxyzQwIZQxzXicjt9D3PJ1lnGoR1bLN4+ibzk57OiNpTmA1j85vuzk4tUHriidllmtJEY4i5kSA+/KfU6+g6CfNYFCnJkLREpHp9KCvJCq56qKW8FCupmHC+ZU6kfLLqIjS5hl4Hg4I5ZpinB2RUuhyx05HVA8Kc8ZBD44JFhKtuS+Kgz51vzrWdt4TCnM2bvDLCC0QMyZPR/IlLNi7Q4W/AFQ9I6YJOwD8NSCflc4eZ1baAaYTNWywaGQtsaUzw/veJy+kH955G7Z0dcrLyUZPUQS0XLQljcaFaSVpx7Jjoa9SRNEqS1vaqIjYZnz1aqZsOjSuG4ddCjpmPtOdEjzJU+yqiTivodibMlP601LmJ148ZrqiKOMLt+Pp8BMwecmp5js/YmNnHZ+81Rtxuer/Bb/K7gq//OVtWLHiCSOwb7vtNpx/3nkiKD9rhO11133bzOR62223yv5fYu6cuXhmmHU6l8uhibP8CbQykxtvvNGUd9JJJxux32ipPnLpkaZsW77z7r3nXjy38jn89Gc/k+/YqhHFJ50UzOI8efJksyalUkmE7htx11134cILX29cR2jJ/tKXvohf//rXuOjv3oxvfOObJl/E+vXr8a1vfcv4qvO6rhGh/dxzz5n30Pe//wNjnf/JT24Uof8bHH3M0bj88svlu9LCZz/7WbS0tkgH4na5htuwYMECfOUrX4XnefjC5z8n9TsJv5DybrjhBvT29WLt2rXhGQN4DZ/93GelnM/hxz/+kdTrq/ja17+GdVIfZeIx9sJ81/5exz05d6hIYvzspChAyxll34aRqA0LMyJURVxb3jBlLkSCk1h2HZm05JP1cIy1XJKZn1Zve5iWouimv3n0Jc1oLVZ52LXKPg4UjUofyNsrX2SM7jFk4iXZWW947HxaziVVVF9SRKQPEeLyb60WF8FuwarEpY2D80XuJ3SJYbvXRLiW6kHZtGbX5AIorkXLGuh/zkPp1kKdynrxeiOLOfdRzBP2eVg+05oPLGHjti2SP7yQBvafsiD8NLrUY11mzZdHRGQxj9WGzrw5HN67VBhO05eODC+vJfL/LDMEI61QG2SDv3j45kXAl0ypVESffMlH+J2D90W6XOEntosc01OTZ5wvINmT5NgCKVpeGuzcWeXgHthyP2r1Kioi0svsLEknTFGUCUhpaDSWWsOvoKMBXVQOPvhgtLQEVvlTTj0VmzZtwtatW7Dqheex6PDDjfjeGTLDDFaTJrWHnwZpnzzFrOkucsedd+DC17/BuJRQmHd1deFwOd9IcBZlurCMxP6zgxmUI+MP6enuNvmXLl0apgTQUPLnP9+LgxYchOnTZ5q01772tWZdLpfR2dmFQw45xGzz+CVHLMGaNavN93RPby9OPfV0Y7ShUB+JzZu3IZvN4tZbbsZpp52O97znnzB/3jxEwQuUiYXetV0kNqzJOLCyKkovCnM3llAMOVOHfoEwpjm/F7rLg+enaK0MG6RHFwl+ffSXhqbz75aClOsRdOgAFO1mvxTCAaZ0YaFANj7tcu3JVAy2CDG6TLA+dd9GJp/GptmBBYK+077boPoTclJfMltUxHHJn0CZlnn5L+E5KPlZ5BKWnLNqZqH05cvL9UTwiZDu99PmVwEOcqU4d3xP6uOI6PTgey4YpjscvxTGNw8+R2ta1SnIKdZ52ypSLTMhUbi/UiyaL9vhwpwW7P2nHj1QzmjB0/RZleDaQ4s5r4Vtlk42mXuzI+iWXois6lI31tqXG5aUA225uTEpMqpzsVKCLfeK18KQjHxhRF/2Tt5CvSuJlPk1haE4KwODQbnNkJiWCG6PrkxxaWQ7Kx21pBHqXs2GzU6cXzYWfEYrshoivyiKMr5JT10YfgI+uuVH5m8+4sA5SXzj7+P49tszZnnfOYPfjUsm1ZGSd8KOoMtcI7RM0+87gn7hFOKZTBbzDzgQz61cafzM+f3EX992hWicTiO0ri854gjcdddfsGHDRrzx4jdi2rRp+Mtf7jPfuXPmzAlzDsJxY8PfAbSYc9zPi9Ha1mbEPgenEroUEuMC2dxs/MMjS37kC08hTjeZyM+e7c58hXwe+dDA8thjj5q2GCnaFmlqzprv8RNOPBE/+MH1uO22X+D7P/gB9ttvvzCHMpF4iVe+8lIwFCF9t/eCLjckC9u7NdBqnk2JoHSDSvAPm2LbCv2/CUMGMmoL3VqMyArNxrWaiGyK3WJMxGAgErmmUBWtO8DggFBZyVNDMc7vba6D7SCdoowRW+qxNOySg/7e2eYYz6oiIV9oVRHnPH/dioMTEsV9R46RsqosT46zk7DrCXBiHKfaBLsmwrvqwqnF5Trlyz2elGNEdUteinNPLpRfWDyGll0KTlqFeXVW2A+gz3mxQiE/+KLhpcQYg13qa/zvZc29fH88/mQHMumsKSsKjRV92be1t5jrHm1YJl8CPB8jqjAKDInHZf0SzxaPTacGX3yT5AXAFwIHdPoimHlhLblWs48DP6UxzBc83VSy2ZyZfTWy1JezJXiZ4ALph07odmTumSxsBw6AtYvSGXIdlCv9KPdbcMKfHjiOQFGUCUjhnVjmtuBDfQvwq83dWNG/Jdwhwi8bw6J5ORwyP2mWpzcO/rJ39ivS5r0xEpy8jN8t3//+9/H+97/fLHfccQde/epXG7eOD33oP437yXXXXYfzzzsfU6ZMwWVvf5vxG6ebx+WXXyHfMdsLc4rbyKDgy/uGluVoRlJ+Tw2Hlu8L3/AG3HTTj0WQT8X++8/GmWedg6985b9x5NKlAy4sLCdiytSpUtc7jYsMB15GNJbPzkPj6WbPno1zzz3X+JVfccU7RST/AIVCMDPzVR/4AF5YtQqf+tSncP311+PrX/8aXvOa16C1tRWvfe1r8OCDD+LLX/6yaatbf/ELXHjhG0y96ZP+u9/9Bu9693vwgauuDs80CN8ZtMSf8spX4qc//QlWrHjKdDg++MEPjdgWyvgn8Z9C+HlM6OsGnn2SVtYwYYKzptQBK2Ybv2wKXUZAoSinj11rqgVttUAAjRV1UWnxru3DNWVTdaSljaO/QwrlQpYDFwPBR9h5pwDlmjN7DloDgjU1KH+1434uousMA9nCsqlRud9YRrnIttGvsp9RWliu1R+o4kezs1GpZU2+RKIq4l1Etwg7hj+MSYfCTsmB5RqsuiOamzNNiuCjpUKO9UVoJxJxEelcgi+gWN1DxWk28cZr4D9VWNWkGWRE3S2XLXmCcIAmzjtvDtO48lxYfgLZNAfO1uFLbnYsHLdu7qUZ3Con+uUvf4f+LkYuoZ83L4zXWUN7yxQcNv9EaVOeZfTgvVq35TFs7dkk9YwbCw4tzuwYTG2digX7LzXttyOKlT6s3fy0uZXN+SbzEybbgB2M2TMOl05JAk+sf8ZcU1K+7NNVEe2xoBPjSy+M56TlJlvOSzNJJyrL9q+aMIx1W158NUfKTBgLOstmu3jGqh/cby6NU3VzMOl+0l6ZmFrN9xb8O1x6gvzd7tjzaZ+CvrUzZswwz7WyZ8SyzbhxQx639W00Lmk3P/9bLGxbhP2yreb7gSJvm1vB1+5+Hr99eJI5pjVbxUcvfvEILW1tk4w1eFJbGya3t5vlsMMOw6JFi3DiiSdi+fLHTbg/Dti87LLLzHnaJQ8HP86ZeyDOOutMPPzQQzjwwAOHuIfQuk7f7leKGE2lkujp6cUpp5xifNOz2RSy8kdw3HHHDXku6CpC32wOLKWAnjtnf7P9tre9zTxDFMF08zv66GMwc+YMHLF4MbZu3WwinJx+xmmYPn2Ged5e9apTB8Q2v/9OPfUU891JuD7zzDNxzDHH4OCDF4tgno/77r/fXNukSZOk7ONFOD9posC89a1vFfF+hSmHdVu4cKHxl2eH5b3v/b847/zzzD5eOyPF7L//fJx++ivw53v/LNd6qulcMBrNMUcfbToW9ENn8IS7775byl9r2nDu3LmmXsrowOeDLqBTpwZuTGNFTP7YQrk1NqxdCdz2IxFl+8D7Wb4zcOeWJ9EV6wHHnTASC90FKOrozjInPxtz3P0HxPGYUHeRePJX4cYgIotMB6E1F0SKCdIC0dfWMB1+Uz6GUoV+8UA+1yjOSVBxCnIOnOT1cjcNE/zeGZL1ReDj5Ds+nEpgQf1x9hT4cvNTuQzSWWknp2wKinMyHFlXGaGlqYqmaiv8uC9ir4JsPiWNy908eR1erIZcQkRgXBRHWIm05M1lUvJcpZCLBVaOZL4FqWoFuRQtOEG+TDYvQlw6Lmm5tjCtJXyP8FcEtg+vtST9CP4aazsePvmv3xDxz2gxgU82y/KlnosXnIyjDz73JUXyriLvAzy04tdYvupBuYcJ84IgnGV07pQjcdrxrzX34MXgZb2w6SHc+fDPkU5lMXPK1HAPMKlpGk5YfDGKlo3v3H6TeZG0juCDyUbKSIcj+uk0IU/PFD+HcmtwsU0M8i5wgCgtVHze9ps22Twx3f1F8/wnRIRHg1D7rRKOn30ImuK5sf17UAag19HlV0rHLJhw92UBfZWXLFliBJ2y51B4nPary+EM++nrsJZzYVf7sap8n9lOr/4nZKwj8c/npvB3J47uYPiVK1di/YY1OO7YE/HXvz6C//qvj+ADH7gar371BWGO8Qst6N/61nW45JI3Grcc2j3Xrl2HW2+9Jcyx63BA6KxZszBv3jzccP0NuOGHN+B73/+uiP6DwxzK3qK7uwtbtmySzuXiMGVsGOxOKrsN/cz3FtGpvGHqkJZ06p8opjlpySfQnEuAEyBFUJRTnGcyjMkdJoZQ4HGhCwvFFE8RnYZuJztL5EJCPCeFTD4Dq99H1YshmW1CIlUAfcNNR4DXIyvPLsrLIBhw5JTkXHJet8NDSdQGrce9dtxYwg2y9moJqaeLmluCFdbNqVREbNdgM9xiiONYxqfczCxNk2K9Zqbu58L2KktdzWcR4Ixn3tnTI0swELMRWrLntx0yZiKz4pblOUoai0trIYg2wI5B/iVCJUY0Z4OXIzsQjVRcx9Q5l2b7BWn0x98O2edIB2gA+dhb8FCmk77QXylja3cPLj59Ab589WLc8KWj8KUPz8dXrp2P73xkEb7w/sPwjtcdgLb2FDZ3dZkOQJYuTWPUXoqijD60RP/uvG+ipbYkTAlY0f+7AVFO3PlfxUXnPTnqopw0N7fgi1/4b+Pu8vnPfwqXve0ynH/+eeHe8Q2NKvV6yoQrZAhIGna+8Y2vh3t3D1rnr732WmM1/9OfbscnP/lZFeX7OGox3wVGsphnUwnQx5yNuDcs5vG4SPDHbwlcMeREWZp7Q1IJWi3lDzn0EY7IiyjLZYJ8FN6sX1aEOde0nNOtpZF0mm4UtKgHeRmphBfI+OLZwosPfKGId90afE7DKXTZMdwx61xTV8+uIddCNwoR4W4cVekVxBN0oWDbyflSdcRrMVSTQVtSsDPNaEX5zOeHbieclr8pI9WJJZAErehpJCVTc1rKSzeZtFgig0JStkVM01+bFu8MrzMUr02SVx581ONxKUfaRZaYiPZ6PIG7b38Yv/jZ75BOBZZfWq0J3Tjees6HjCvQaEMj8x/+cgM2dL1gBmRSmPdxsKuI6qUHnIWlh54sX/Bh5hehu2c9bvnz/0h7JjF7WjDqn2TSrThlyduQSPv4ym0/k3sZFJTN5ZHJDvV5iCz1EWy36Oth5rR2fPwfD8eChRlpkxh6emJozfnItTKivNw7uUl0TaqK+u/u8fDjm1bB656DTJw/+ZoilDFGLebKaOHK98Td6x7EdU/fh+eLfw1TA94y+TxceMTpWDBt6ORDowld5eiqwu+k6Fe8iQK/M+liwnVzc/OoPJuMgc5fM/LyUuY7QvnboBbzCQIHf6bCSRQye0WBxLBxygJjReZZrQZruFcVYSQ6ijNhEvpStxUSxlWDkVpIqLOMXzUnC2KVo4GgEa4bxDcvlihM5Rj5TJePZIazUfJLIkiPxCIt0kyrSqJnDyrInmIKtZ4kklYwQNQuufBtEe1Vmq89+CLQK34M5YSPqlWHVfNRq4iwT9QkrydpNTBaecKRf7nPd5GOucbdxLJsMxg07pWkRTgIVOpgleDwmqqWsZybWOk+Q/rV4dbiSEl6WhbLT8GNpVGUathSB2L79H33sXLVSiPoOciRwjTyUSxkWhBq9VGHT40T+qqkQl9FUpOGz0tnJrpnOyIVz0h9Ja/cOKvBIp5IBZ2kWD2JnIjxCNuqoK+n2yy5St4smWICrW4K++XacGhLO45oa8frD1qKf7zgePzPtUfioLlpbNgQQ9eWOma0VaWdatiwqo7ljyVw791x3HNPDI8+FEd/RwyXv+lAXHppFnTF25n6K4oyfkhLB/+s+SfhZ+d/AL99zf/i5xd8Cze9+jo8+IYf4eozrxhTUU4oZjkocqKJcsL3Buve1tY2ah1G+s6zPBXlLw8C1TGG8J1MD4J9BU52EyFy06wpAsmYN6ZAwdycbIPND0JVVA+XCFrM/VpQL1vEd2+5KqJz+6gxjM4Sl+8M16sbke4Ni1Mb9DFixlrOhZbipHRAKNb5XcPTB6KeZQX7OX1/dLM9EdIbW09AJWHDqVeRtviFkoJdSaAigt240SQZ3tBDxkrDofAWAe5Uq/B7q0jkRRxTpBerKMer4MRFrptAWdYcFOnJ+SqcGMdLoepWUHSScKtxEfsurGrKRGuxOMW/lGe5QSjFHhH//SLKy6Uievso8hlm0QcnqaxYPoo2sPWFrXKdKbnGpDmGop4T/0xtnyN1NZc26rDl/Zo30AmIYOcgUds5H+10MjNwPGfyHAJnUJX+0ulzjkJTrskM/oyWpS0nYFZ2Ho6YPReLZizGkv2OxILmw3DQ1ENw+IGLMbMtixmzC0gm6tjSG8cD99bQ1RfHlm3AA8tSuPNPcfz5DgvPL+vFyhUWHn/UwrJH0nj08bTcpxrmH8ynKOjY8dFgPcJHVxllduIxUZRdZka+BQc2TcYBhfbtflVTFGX0GfOoLL2MyvKEnGgfcGUhq7DahN0zUVmMRTVQvBRwM5PtyNaazfZYEku2omvjE2hNJ0XI1pAW1UOjNyPEUJTTgM8lENdAIR03FmVaztmbJ3RV4TbdWFKycE3LebSfE8cU8hTtMXOtNMLSjYYuMMZTRbIZQS7lUBC4ZQt1Wm1rrhFitOiv8OehInVk3by4CO8qw+3FkWsWYW2lzKyfSPDf0Moe1pfUwjjstJjzOD/umZjcqZolZUhqIot43ZWyY7D8pLwwkoj5thHnKRHcFOS8N+wwMO46rc8mTcrkbw2MIFL3y9IhCAQ4fzrd1tmFP//pASPMCf0DCY898dBT5dqnme3RhqL1yRfulnvny7mTRlizTT3fxYL9F6Ol8NIjwGPxLJ5ac4+pK91wGCqR95IRVmbmFyKZLmDy5FYcf/ChOPaARTh+wSIcPf8grFvXxxaWEhIoNDPKinyMl4xLUIoPTbKOrv44Nm1KYfUzdfT0Wti6CVj3QhIdq3zsF+vG4pMLOPrkJE48MYmjj0vj8GNjmDNfnrtJMcyeF8Oxp0D2A4cukZf8/sCW9dJ5KMtp1PtgVGGn56gTOeA5THgZoFFZFEXZW+ytqCz6bbYLULM2+zPMZwoYl6qvkWh03RjD8NJ1EaJ0Y+EZWa9Gizi9SUJ9bSjaQT2Z1lsORbDAqCR0xeGMoH1Fhr0Ld4SUK6E4d4Id3F/pG4zzGhlmRfaKUM4hVrWlIilplwS6nAq2NWUxxQvCR7b4wYBGYhVTkl9OLiIdzvaDh0p1B/31YASpl5KyJVvMlWPk/CVkUK4l4Nkl09moiqDMoAKv0msstPG6h7JFS7ecx6maNFvEqcPMAgeG0oJOHBRMhypi0/PrjEil8G+E/uVtzYeFW6OPeZYanMibG36+zaabzLW8FNQlWelBxRvUbuO1EXaiHGlW05mSXVvXbw338F5XUSrXkEg5KHXvJ203FWWvgs6eBKqbu7HtmW3YvE46fpbcxz4Xs6f7eMO7Sjj+7e045OA6pk5JIcZ4ndnBh6hRLPHZaWkDFkozvv2fgTNeK89SOAmUouwutOBGIU0VRVHGEkYkSybH3p1IhfmuIuqwEvoDE7pMEFuEX86avFMiak+hG3I8lkKvKGsK8ooIdEcENkPWBdByHn4UGJGDUKA3hk7ksbwU6qfIFc4KRXwExTmh4KWArCXyclzd+DLTHcX4NBc9pGK2iG1azD1YVV+kcnDOzlSfWfcng4grA9RYR1e0uYO6cUGpw7PoNiLCWMqlm1BP3YIrvQy6uJR8R8R54C/NJnfleumX7Vv9qFQzRoSWvDjKNkP5ybVaNRGWScnji8gUMe4w/rlv8vGXAYrzaHFErFOMr169QUR40D7Ml0oFA12nt81ArjB2fyp8ZvzqoF94I3nGetwJaOTndTdGZaEYzhfSsGo9YcpQStJhicgm21Ap1bFhfQxe/RkUSx767AS6+zysFwG9sV/uR99GlLo6EW+2cPAJ/fB6k4jT11/ak/Hr43Jf/GEuUSPB543W86UnBVZeRdldGLGCVnNFUZSxprOzy0yCNdaMndrYR5nMGSFFxIWBR4wwd03YEgqjvfPbPIVcMhZHOnTVKMv5O0V4lsJ6EH60w/6DxUgpImTp3kIXk8iSGul4unrQ6GQ7wWDQkahxJk8Ru5zghxP3JEScU9jbVlXEdUbKZ+FVYy1nkBczY2VIkjN2NuB6Nlypb91JirCOGfHNSIic5dMqVlGn+0wlJaIvIaJcOh6MtMIILB5nE/XgVnz4NkxnxJKl7pZREUFuW5b5BaEk5XFq/phfEUHuG/cW3jMK9L6yYzpRFOm0pPPelaShPGmADRu2GN/yqH1oiaM/+6TmBWYA7FhBcWpmUJV72pzLDbGe7yy8b9l0m3TaBoV8NpeSjpdcwwjTcdLfu6NjsDNg+z1yXk60JMe4s2DbZXR2VVDsr6HYZ4toT5u26rFcHHaij2pJ8kl+thXvpedJh0rEeVL6BTXp3A3/1WE4NOy/4kz5+xnmDq8ou8LMmTOxZs3acEtRFGVs4DuNM9JyAqyx5mUtzCOxRR0WarEdwjy5auB6QSFnIpGIwDGhC0VLMfLIWBPVs1Zohi2i1Fi9JbEtnUQhmYAXqm2L86wLkfjmzKT0Oa44NZQbpuonFOSclp6kUjFjNWcaB4YaqOJE3Jk44tJosaprwiJy6v3gokWgxdMinhmuUUQZaKWehWRa9gt+LFiTVMmROidMXczskSZsoojzstTPpriXdMlfTFqIiXCu0YpuiSgvceBnIDDlUkSmyz5X6mGux0GpKvVGUuoeRG2xRYx7Uj+GsnRsTh1Pi3/dpHHQKP3NKYBtV0S8fN7Y2Y9yT+BbEY2kZx05AHP61Knm/o4VVdsyHSe2I0mHkVlSIrIT9Rbz+aWInr0hFnN5OFINU/U3UmneitrZG7Hw8o3IzAruTyqehxuXTo7XBcfvhlXJwPJku9yO/tJWbNgo7Zn00NYUR48T9Ez7S8GzVJd2rbGXKMTlXtQ8uY8i1M14gGF/XNyki1EqWceM2RzMG+5QlF2Ecbc5S+P69evDFEVRlNHnieXLMXfunHBrbBnzwZ893cDTjwU/tY8FDlx0pNfDTfehki6hFndRznShmrBhpfpgS7qdKsJPl+GlLNRSFdSSNqr8nKnAlX1epgSH+TJ9kkfypSuyLqEi25aUaaf6ZZHPsvbyFWTyPlqbsijk88hlM8im88hnErItwijbL2WJyJNyy5K/nOhDV7xPhGYfSsle9KV60S3b/WY7WHpl6ZN9vtSB+Ww5pyPnq0gZXPO8droIV+oTE2GElCMC20O9Z5sR4pQ9HBjpiggqiBDjIFCRZUYAeSLQM2Hbc5AnRVBTlhbkwErbCI2cPIbpxr1FFrNtYqVL3njKDO6kywqJsWfDc8lC6zTz2l7KWL4rfjOSuSXoqQ/6pJMkBXJORLxUhB7yHKwoOj+AF8I6i7Cvi1BN+hlpSwcJPwVPxHo8IYJaOgwJDljlYNJ6XDpFSbNUfelc1Cy57yl5IpIiDqWeolaN+KebhVyQ+dWAvw5Im3GhaOQ+us+sXb8NG55ZKZfCafo5ODSI/sLWPW7hBSJwx25EXbm/A89uXmbOXchmBzoN7BQsnnci4jvh08ZbtG7zE+gtdZtp+GftN0n6ULRoA+2FOfJsDg5ctdPduHnG51FtkvZssbBkYTM2PZST9pRnS0Q18en/L9fO58SrlaWsDArpaVh4eA/2m58xt8qV/BnpxCTN8yGdROkY1uWARFLakM+SeQb5fFCgBx3DQKhLujyXCbln/C1kzXPyedDDStlN+MvLy23wJ6EF64knnkBTU5MR6nzOFEVRRovnnnsevmiFhQsPClPGFr5RJyz8/v39lmVY1rEey7rX4dGu1Xi8shIrihtkvR5rqpuw1t8iy2a84G3A8/5aPJfYhqeS27AutRGrEpuxMbkVmxId2JrowrZ4j6w7sSWxFZuTHeiMd4mo7kSX7NssAntjoh/bRNSnU3FMakohlU0gK2KRuimdrGK9twmrnM3oiHfDKfQh0V4R4VNEUc7ZVd+KNW4Raysd2GhtwvrKFqypbMJqWdbJst4p4hmrD89b3VjtSP2k3huk3lyvSVSkDt1YFytifUqOSa6HJWlE9I8RSVwcET+9URBzgRFaONlQlERrOS3nJr/8QxeXCIpyOdz4jVNE0VpOcT7wjqNJVoQiB3kaQl/siD47h7LLyXwoxxLoaVmCzLBxnXFPBGdbDhVbOhl1WqqHuljYKVvO6yFVTcHvr6FckU5Ufx0+B4oKMc42JGLcs6qw7SqcCk2tweySNb+MquxzOPCT0/4LjnReymFcdVrG6cZTkW3HrcKSddnyzZrLtuXPDHFjoThnzNj2llbkC2M7Y0vRpYA2d8Vs02LOZqePe4Y3YWeg/q0HA23d0D8kEih91tDOkYUNor9L8kw+ZLb7Z2wz64CgDoQDYUWam8/VuouiswmZlkHzNn8wocguW8Fz5PNBk8M9aVeSkP1xWRL8JaSeEOEogrwm4p2RgyQLJyRql6bd2UtUlJHgc/7KV74SGzduxF133yUv0OD5UxRF2RMYheXWW29DNpvGkiWLwtSxZ8xn/lz9HHDrDSIyItdXCohwibSIqQDX/MB93G5YRzRoF/OZ1t+fd9+BpLzZU6H7gbHIiTjkNl/4FJwFCsSGcnKppHEBoRAdZjQ2BJa+8EQhUX0H6i3QbzkhJ+GagpdH8l+GUeT5OFFPOkWrcJDOf8JDh2CqwH+402wEZbB+nFmUDNSXF2V8cGKY8+Bqs4+kJD8Pb5H8PF+Lmco9OFtWPkazgdK4WZAOBQdJZqSDEQ0MJTxHkEuOyQRWcyZQpOfSnHBHEriYqfFlR0zqJnUp26wco7rU4dWSqFS3Ye3MN8m+ZmyVDk5vMbwoIdlTQl9W2k3+80Wck5JdkfIzph1t30EmmRYh7SDWLEWIpqxlXMQdEf2iO6VWcmYR47TCxhw5LhB6VT+FZNqV6tGlpooc6y9tQnEtNUOWJlwhK/nNLwW8UK5knc+m8Psf/xJV6QhE1nK+7Dnr54JZh+DkpW8a6soix/DwxjVvOcszV8p1WPaQvPzQmIcrac5Nmzfg9se+ZYT41LZJxlpeki+EpmwW5x5/ZfAcGxEs+c3BPLDhs8Dwwn+8/2dYteVhuXd5HLJwf/n7qBlrdmt+HhZMP90cz3JWTnkY90+6TlrJwtT48Zg9qQ2lLx0flgRsO3Qypj7dFW4N5dRXe1h6dLO5V4VMRjozNUxKNSGX5bMel212aOSBk7ql+OANI2yCAfp7Krj+e4XgepjQsDNqv+jzi137kDYO12Y/83G7Ie++XCb7Y++86uU18+dwKvI3vGnTJmzdutmMr1AURdkdMpk0ZsyYacaxZIfNkj3W7F1hzpcKE8OXS3TmgRpE64Z8Q5D9JkuYjxFFbuq5Q4R2yohRCjFHRE2GFkc5lmLFrEN9wM/86Z12QIr5RhrrsyM42JPVouChOKFYTojQMzNNSgFJ+Uyf852FIQuj+kWwLqwfywq2g7URaKIv6Y5RiE1C6+PPIC4vokY48HJSOoUcR3oK6URd2iOoj9HqQiETuHVkRZRH60bkeTSWc7ZHNHV/0I4U38wrnQ22gwj0uLSnJSJfchj3h4rroxorYvXUKwL3BDl2daVHBLuLquh417WRcKvwZB/dWEjFsU35Qexx1omNIjtYhxQt69LGeR+OSMmaiP+cl4af85D0UqjTtUeukdB3nTPWxUUsso3Y8eDdkpX0IZLSQWm4TtPBCM7viLB/8rZfmLZlW0fi3LLKOPPoN2P/mYtMJzB67vgAmDti/mlA9pssUT7yEnl5TzdsfQB/WvYrEbaBMOdzxSn5JzdPwxnHXGGyU1APMEKZdEu/f9kvsHzdfQPCnK4sZHJhFg6YcV5wDUJPfhVum/Vf0poV6eD4mJ08E4XvnmH2FWc2oXlzyXx28ymkK8GvGulEE9xqCWdcVMUBCyVdTtgkwpy0pbPyjIkgT7EjNCjOzaMi7UnXFvq7R5hnR9J9R7oGlovrf1DYYRvtSnsO5N3ZfGRn8+5sPrKzecP9fP6HMDwfeYkyPVuE+Qde3sJcURRlotOgVMaY8GXCFwiFHkUQ11wGYJ5h+YYswa4h+SIoZmhppCjnZ77oeAzPE8FtXxJojR7eHxm2aQTTSKREdESRTaKZP+mjHL1Y6bvcoEFekuGinFCUs7woFGMEJ+ehnzitviQRG4wNHsHJhuhvXqGaFdxqzCzGoB/CwZ+08LvG93qoSwvhFPvRJTgOD6Q/NmcHDfa5lojiums6FUXpFwRNJftp3o5XRIDnRBwHbU9t2ML2FnGWlOOa/AQcEc7SUOYoUezGWm7uh/H3DkzTdVfOmXdQdxLG59wtS536UqgWYyhJimvVYcv9Lku+kpyWXhS+qFe7yhCInGCIlny6qXgmCovjOOitSH7bQYkzhjqeWXorLjZt7RfRGjSQ+UVCoG96TToe7ZNmDQjaxufOtIr8M2QJdg3m25m8QnepKMJ6+0EYyST9ZaUNef6XKJNtnckFo8XpG2/W0vjJVEK2h97fvDtT7lkmeI7Lk1G75QiT7jSnjSgvTQviqEei3GrLGFFuPvcGFeDfGsNVElvOx18/omtypYPkycNBv3+OFaAAp3tLtNQknWmMCdtfkouT6g2/HrMExb3ktY+YV2DaS+YbB2WSl8y3M2UqiqIoE569JsxpnORLJHqLREKW2+blwv0NS+PbZuD9NSxvI3RdoRXPqXpGvLJ85m0U5rRsEwrSl6LxuAgKZQpUinOWQZFPaP2jBZ1WQ1ab7i17AgUTz8NyIms5ScQZVYSDEoPGMdb5Yb2AitSRjjNZqU+EiTteD1xjImglZ/uwvCAiCNtrMMNAXimeYjwhQtz16TIigkvKKjr8lUI6CQkRaFVOh5+UhyltynJigckuuk+Tsm1I1OT8+Qx6YzaS/Mzqlasi4uVat1jStiLswksxoo5t3Z9ESYQ+ihR2UqGUjXpO2kXyZktyDNu/KO0u+akR7XJNhDg7StIOotSN9V4uhBMN2dL5oDgviTDkBETlso2yiPKK5cJf/tCAlTyCM4MWsk1yffmBZ21IS0vW6PoGFh4eFrErz3cUw5wdFFqbI5LhZEFRtXZYpmwXpH1J5LufyQS9Pj5PJMqb8XJ47QufxJxbrsUhP/8AmrunwssmkSnKPc4n0dQR/ArjNAX+Z7newbCK3fKRzyZhPH9GJzLCXDp/Zc9BUYR2XTo+dCNg1CD6+dvSOeL9jBZf9pXluSOMACRJpl4RA+3Ma+QS7jcLDwsOfcn70djG47lMkzdkT8pUFEVRJj57RZhHLx7zMpF/IoFh1twONgdpSBiSJ1qPQIXTmMuJKFprIvyob3jeRoEdWLNjIuB3/bIj0RZeinGHoUCnOKbwoVWWIprifLile1fhNbJsrhvFIt0zqMOtcGKYRLpJRK5cr9kayjYRQ5Egs7ygw1B2ArcULhwIyjRqLAqtKK/jDS0tOr3lp43rCt1VvBrDHQaCv+yLQKfPt/zXJ4JXMsGqTg0OamBqtoBSJZhsqCp5SCw8b3xalg1qZvh0afqWwl3HNkI6XqY7ighUueQeEYHJzjha+svoq2aRqJTRn6ygs1ZF0XakXHYc5PwizkvlYOF9MXHLQ6HOpewMLkWpc3/oDsTp8AnbnGMV9p9xCBJhNBbz3Mk/vO4BGj8Lw/OYNbeDzUEaEpinYnUOJDVat+ljzvZnHgovWs4jAcY09v+o3bkwPaz+S8Iy07Ec8qVmbDpqhvEpT9lBxyhd8bFlSRDBJV12jWtLI51PMzZ6DUUR8SyIoSpZF97HZD2N5mZ5Nlrl2ctLeekU6s0pxAtZeLk04vy7SyeMa0s2xb8THyW3RcoJ6kSGtFm0bmBIOteNGV7k86iV2cBolhltjkU9FUVRlInFrivUPYAv30hgRAu3o5fyAOGLekhe5hspbwj9zM2u8G3Fz6ILkM8Fx0ZQnFOovUgxO2T4ezCwmgd+5dxmuRTlkW/4nmBJWcHLV8Qm1bNA0VwTQdWUCwXklNAyPeQNDZSkXk0pDq6sm/oR24tJ3aQtZDO6dsejO4t0ZpgmC91bKNjtYeI8otowUZBb8+D4rAdD3nXL0oFMpoyusgfbl86KnCuC961Z6n1Q62xzPaEuN2KbJy6JwI7SaE2llZViXCS7SYvVSvDqPnLlDIq+jZqUb8U89FBPi3Cv9wXWf4rEnIj2qmWhLB01dtbKkufFlq09Dno6+0VousZizvCEEfSln9e6cOA6+AxFz+LAcxhdRwjThjyzjXkbYb4wb7g54ELT3JodeM5itWCGseHHD5yn4Vwkmw6isnB/ZNUmXs0a8jdAsn7Q4YjL85rbuArWJOkEhM/RjMc7zJrbkb95TG51++FNOPjkFsydPAkHzGzHAe2TsaB9CqZk85jWlkGLiPKcCPCmehNasy1olb+9pmQCNOQ3y/FpeW6zmQRSXOcSaJ6Ux9JFMbz+rdIRCtsqup4X+3sf6doH8jXmZb4o72iVKYznModlVxRFUSYge1WYjyUceMmBnxzgSOsdX170gRatZiyLhLKD+Wgxp4iOBO+OcCQfZzw0Lz8K5SA5EJjhBsvJiBBOJ+LG/SQqN4gnvmNYz+HwaIp7inxabyMXHFNczQb9p/14BbnEZMiWcWcpxlxsjgciinQ5PnpDy3rkb06v+F4rJoI2hj5ZR/DaestVM409oajrqwThBd16N/oZntAvisCzRUvLUqcft4hbvw9WtUtKlU6AiPRaNSFpJVQnHWjKaYQCoimWxazktMCNhci98souEgyjR6uvdAjoEJPiqM8Q+npbfgqOiO1iqYhsrIZ1fgb1bXJjpbORo3ncc5DvcFDr9LFVCi/LfWfds3RxqQQiveRQqHvotx0U5aFgNBBrfRlHx2aGZ+JzEnQ82Oae72DqrANNR2YsYQjI3iJ93KuIJjaKTtnMUbg7eX7zHA153BoP3L4QPkvSzUOqIh0st45cj3R4aMWmaN4/hoNPyOPMM9J4/T9k8M73F/DOK1O45EIHS44oYUupH9tKJXSUS+i0K+Z57ytSJUoHkL+ayJq+5QyHGC2cGNZMDivn5fPGtdkndSkkLWP1VxRFUZSXO/uMMKeYohDmAEmu+fKnno1EOTFiWtYUErkwrCAHipLh7icD4loK4XF0/ODRPIZWaJ4jEt7cjqzw3M/kINxhUMaOaKxfBA8z55RyGyO8MD2djBl/6WQtj0LzFHS1pJGRutsxH9MkbZsIdisUthwEukkUdI9nyVJEyeeU9YEPulMvoqscN0K94gaLLYfxdJYItWqtip6SL2K4SXJbcs6EGVRZjXVLXkfSRMhJk/WXCqg4jKSSwOaiiONaGtXsJHP+4bD+M1ubMS0xBZ7Uq96UNL7nXlraTMrypCNBYe6ZkCzShracq1IR4S7dD2lf+pYX+9kjEDEuhaVRQcVLoMnpFvEN6aiUpUJV5Pt6UV/noFQWgV1ykC15iHWWTflN/Z1wVvbDXl/ECXMOR7JeNoKYwjiCbZ9OpmWRegw2/5jAZ4UDXiOXJcf2zflJPFHYpdMXQov5SITFD8Dtwuw0jkxZOPOI6Tjtkhwu/vsc3vkeD297awznnF3Fgcd4mDrFQy1ZkU5UFfTJp085J1rgs89OrilL/kuKsLadmvGR5xNmfvkQkc6FYp0Dhs1Cn3N5jhx52Cz5zP08dqS/A0VRFEV5ubFXwiXe/H0RlGMQBtIXIXlT7x1IyVudrgAUCxyQGYVCpCsLQyaSUOsYS3QkqKnSjSc31+Gx3EOrN0Uxs1EksYlMI8k/FCMU/HRjyaWTcPyqOYaDPynOG2H67jau8TGXAthB4PVEVnOSzaSRqmVwRG0RVq17ABu3LkO6njDna6lnkHKL6E4CM9CGml+UawzaI8bJgWIJtOa7RAG2IJEUIS1LJiHXEHcR96fBifWY8IKIeYiL0G9OF9Dnb0MmnodTE4E2AlFb2ZaIseaT0X7gq7YTgo3QMLyx3I2Vveul3BTiPYF/c2/WMT7mtJg7NVrhPXj0axcRl41zNtGgDdIxC249J2I6ELRcJiW60FubilROjrGSyLSIEO/LItEkHaa4dFX6WiRfYFauibg896jTcODUKfj1fV9HZ1+ntC/jmwftRKE8Z9o8nLz4bcZdYCxJpqr46Z++AMeroL2tFZPbm1Hss9HV34dXHfH3mNq+n/m1YWew7F785M5Pmc9HHH6QPPvyEAgJZHDojDcP/A3w3uQKVSw4YS3yaeneuK7pRPI+siNKH/KUPAQU4PWqPHup4P764YBN4konJ80Y8tKhi0nHiqHtmYei3HF2rtFYnUwiBad3EtY9MzkIr6jsNp4D/MPVGi5RURRlIjOhhTmFwE+33QVXhBSFNcVFLpmE5Qfh4oZjIreE7gKN0GJH6y+txdS/1GeNi22LGJb6M7Y3xX4jjAZC8c9WjIQPEa1jBuPx+IoVpHGbVaPfO2Ee7mc68+TCc9CDgZFQuH4xZmdn4fDYAnPeh577BSrl9VRFmIwc/LoHt1bCjNg0rI33oFBPYYoUuDXpYXq53xzPmy6nHlXi6Wbsf+J7UUtsH8ZxOBRhxZqFR7c8h0JnDMXJIvS66+jOOFIvhr4MQlAaV5ZKSe5NQ+MKjmOjLeOi381KG3JwK/2UmbciorMAqxzM/tlIjFPIZ5vxllPPRz5eMG3nWC6e33oPVqx6SMRxGamkdAukQ3DGka/BzGnH737PaidJpnz85PbPyfU6mDqlDU2FHKySh63dXTjnuHeivVmE+U7WgfkefPZmrN7wFCZPakFzoUXEcwpNqQVYuP8JYS7JJ89J2xQb+y3ZaAZxNjenjRhPMgi+QIHOsrjmDKu7Q/S3YOouf1zZbFye0aT5G/O7Eui02xEvp+FX8iaPTsm/56gwVxRFmfhMaGFOttR68XjnM+hB2QwAfSko2s3soPKZ7iY8hvGwKdrNjJ0hroi8kUT8eKDFLuD0/Y4SgRXUN5Gso7/XRkf/g+gq9aBYXoe89BhsEZnFcglNtSqycptn1UT1NzBU6u4esWQTEk1z0HbQa9DUlhchvWtynzN4PtK1UoRod5jCetXlwayip69PBHxKBLfHFLNvZnItVvZMMmKcLii2ZUlnir9i0O3nxc+dqa1H27xX4C1HvgKutX2+dIYx1D30dxfRUXwc82eeJuce7a7L9tBi/sPffhK2F40PoOsUBW0dF595NfKpYADozsJjU+kqiv0+8gVO7c8xD9Kiw6zuyWYXC4+RzpzASDBlOubvAu2lfnQ3tYRb21PZ0o9H1qxB7+ayCTvZgmMxbfI8I8LNzKsND1/Dn52yB6gwVxRFmfhMeGFOzIt9F1/uzM4Lp2Ch/hqLRojO0cjwajbuDwRZsCYvemckfbt9csyAwDH76YdtjOiygz7adPUR8UWTvGBcNJh/pHNI+nBNyrJjuYz5ZSEZZ7zsmHRkkqgxXIdg6jNSWTsBB/4VHRuPdq7Ehs4OFORh4WM5mTOI9tWQFNGdgAWnnkdfTzdmt7nodNqQqvWh7GeNpTwiDv56IiK7nkYhtlVEp4v9ZxyLExcdh0m5VuP+tCPMdcrC69xbsK3daq90ooro7dyAlvbZaG+dIteSe/FnYE9Jephz5AvGKt5ILt0PiyEMhUTcFVGfRjZVhO2GYRMHHjLA7ws+W0jD7W1Bzc7L45XCIw8+gEntM6WjVsCkppzcv1Zz2Jhdi2JQYa4oijLx2SvC/KbvAZnQfWMsiK5gu5e/fObmgJTgh8aEITsHj2/QHi8bomv+W4knc35ZtvR24tktq9DhiBikD1GI74vgFgXr2BY815X8HBzLWVw54VHSDPzkgFW/lkBcOiXcP3f//XH07JMxvX26CHQp5G90bTsL3XtoTGanYKzvA8vnn34s4aGe9ZGLiaoTXKREZge9l6p0DeqyeCZkTgxxNxHUi/eqFpcvD+mYRR0YSWMySTKYjKTvzc6NIvdO/lzedY0Kc0VRlInMPiHMlX0IUXf0IHLsKlZXNmJ9Vyc2b9oAp+6h5ttw3BqmFmxsK2eRTVRgVzl9PAft1tHSnMHkzAwsmDcfC9rmmV9pPDcoVtkxFNIv9kVAiz5F9vBfUZTxhSPC/N0qzBVFUSY0KsyVcQ0HBdKablcAi1Poux0o9lnoanHREkujHTk0ZWcjIyI83xQIyJdyV1GUfREV5oqiKBMfFeaKoij7ACrMFUVRJj7647SiKIqiKIqijAP2msU8tYOY3IqiKMqewTkV1GKuKIoysVGLuaIoiqIoiqKMA1SYK4qiKMo4paenx4Q2JVz39fWbGZH3FIagHY1yRgOGvvVHedT+8uXLsXHjRtNmHR0dWL9+PUqlaCK3oTAqVakf6OsJfnnaU3i7Xk4Rwdwg2q4ySqgwVxRFUZRxyrnnnouf/+xn5jNF5hlnnG5E557y4x//GDfccEO49bflueeew9XXfDDcGh1u+8Uv8Pjjj+NXv/oVTjrpJHzyE5/AokWL8Nhjj4U5BvnBV4FrLwc+8X7g367Yc1G9bTPwtU+EGy8DvvwRYOPqcEPZY8ZemEvPUScaURRFGVto9VP2PZYsWYKbbr7ZWJXJ/vvvb9bEsix89atfxX99/OPo6+szaTffcptZD+euu+4OPwVQ5D/77LN4+OGHYNuWSXvkkWW48sorcdttvzT7G3FdF9/85jfN/hUrVpg01uk3v70DV199NR568CGsWbPe7P/f7/7vQH3Xrl2Lj3z4w/jXf/1XFItFk0YompmXZaZSSWzr2GhE8+rVq3HnnXehp6c3zAnccsutZs3jP/Wpz+A//uM/sGHDBpNG7r//Yfz7v/0brrvu22FKQDqdxllnnY2nnnoK35Dz3Hffffj0pz8d7g0s2//vG3Id8vlzPwA+eR3w718MwvSSR/4CXC+i/aE/B9svPAt8/7+BO38TbJMt66WTI8f96FvA+jVBGi+d4v45aaZtm4K03i7gxm8Cv/h/DP0bpEWw+X8jfS+W/de7BjWTVQZ+d3OQ/vB922up7k7gp9+Va/g6sHplmCgwQtOvfhykS7MaWJ/f3wLc8D9yHc8FaeR3NwVpqxrSmC98JPDs43JdLwSf+avCb38etMmy+4P2I5y9e8M64JknEUzmp+wRajFXFEXZFxiqo5R9BArkSy+9FFdddVWYEkBR/uY3vRkLFy7EGWeeicsuu8y4bPz6179Gd3e3yXP++eeL2H7YuKx8+UuiOBtIpVLo7enB8uVPwvN8XH/99fjud7+Dt7/97Vi/fh0++tGPhjkD/vvLX0Z7e7vZv2zZMpP2rW99CyufW443v/nN+I4c++lPf8Ls7+zqxI03/sjkeejhR4w4Pvvss/GqV73KuOL88Y9/xCc+8QlcfPHFOOGEE6R+NZRKZTz55JPYunWrcWv55jdFMQvc/sxnPmPqyDIWLToMr371q/Fv//bvpmNBVqx4HG+46CLkcllz/kay2QwymYz5vLWjW/IMxm6u+sBjDwDnvQHIF4BkCmifIsJIlNFtNwL33QEcdRIwbYYI1KckTUT1SWcCFelffPdLQRlPPQocfhRw2FLge9LEFN08nmWvXA5skv5Dv/QxvvghyXckMHkq8NWPBcdGrF8FtE4Kyn5EBDjPS677fOBac9IZ0hmQ/tZDQ/tWePJB4OBF0nk7QToGIvq7O4L0T18tnRK55COOFbH8BN2WgC99OJgP5OhXSGdJmo0C+vP/EdTzGEn7+f9KecFtxb2/B3qkI0FWSd2WyXnI1z8ViPFjTwH+IOL9UWk7kpSOzDrJ94IIczUQ7DkqzBVFURRlnNLZ2WkE9tatnejq6kKMM64Jjz76KKZOm4pp06aZ9KSooyeeeAInnXgc/vznPxur9mkihG+//U8i1HvQG1rUI+hjfryI4ne84x1obm7GT376U1z1gWuwdOlSXH755fjhD3+Ibdu2hblFOLa14YUXXkCHCOWLRASTzZu3mLodddRRxl3k0EMPNcezzCdDd5uzzzoDFVGr9O9mJ6NUKpoOweGHH44TTzzR5Kd1ff4BC/HWt77VCPWzzjrLuKDQQs7rPOnEE8yx3H7lK19pjnvPe/7RiHumn3XWueiUurJp1qwJzdYN0FJ+7bXX4GMf/ZAI+n8LUwORSSHJWaKHQ2v1IhHSi44G5hwI/ObHwImnB+I2JyJ+ddAnwHEiUilyaWFmOfRTJxTGF1wiovk44P67ROCfHAj/rPQLaNHuCkU0mX+wCPZpcqz0p9ragY3hJVglKV9E80IR3yedJcK3wSpOjn1VsGY+Rr7j7XriIWD6bOCs1wGLRZifcp6I5ueDGbUvuDjoQJz+GqAsnYuurcAZ8vlQSWP+228N2iMmyjB8zEwnQ/pwBkeucal0Ag5dApwgnYW1YX04POAkqcsFbwquUdkzJoww5x/QrrI7x+wuI51rb55/dxmvdZwIbfdyZ2fu0b58H1/u16/sPRKiqj72sY8YwZzlNMdC1a8ai/Gtt9yCbR3b8KEPfQinnXYajjjiCPzhD3/Apz75SVzypjfh6RVPY/nyJ3DyyaIMd0AqmUZzU958josaYweA4j3iXe96F84771wj9N/1rnfDcYIRfzsatMnjr7jinVj2yDJjFY86FTvDcccdhwcfeAB/vP0PeNtlbw+F4uDxtILTvaZcLktH4O3Y2tEhorfZWM2HY1k23v72t+Gmm24yvzBEUIBSTHcP9j+GEF0+/455/kfuDazbzZOA93042Pfpa4FVz0j7STkUsKzhcHcOHv/8U8BKWTzZ944rAyEeQUv8H+itIwcXWoI0g2z7ob87y6RIjmCzf/E/gKefEDEsnQAKYp6bt4UdB15bhCdpnOSRLicRdG2R/tiA2w4fK5ZpvrIavrdY5kjQrabxHMrosdealTdxTxY+2COl72jZnWN2dxnpXHvz/Lu7jNc6ToS2e7kvO3OP9uX7ON6uX9k3iXy9FyxYgHnz5qGvv8+I0sVHLIZjO7j6mmvwlkvfgtbWViNUabV+9plnUK5UMGPGDJz8ipPxja9/fTsXD4rmLZs3G5cYurrQReS3v/2tEdyMZjJ37lxjjY/4y1/uwSGHHIqPffxj6O3tN24zw4nqSmgFt23bLO/7l/fhnHPONoKfUo/5GvMyvb+vy+SNBD9daT716U9LHbfiyCOXmjRSqZRNnW+++RZcdtk/4LmVz0iH5HRccsklIuaPNK4ypPEcFOOxWDI8/yB0wXj1m4Ef/g+weV1gyX7gnsB9pFGR8rCTzwmE+qvOBw5fwl8Lgn0UvXRBOVyqGP0dUiQX+2SRqtDCTqv3uheAV0gZR50g5ykH+SI2yrmPe2XgekKL+UCHYNjf9WCLBXm6pENx6nnAYVIfWuiZduTxwPIHgzlkeD0vSGdg/iHAhtXAM48HaXSxaZHORb/Ub9WzQdodvwaOPiW4Vor4TWuD9FJR1sEtMUR1YN2iW8hVV1fwq0HDbVV2k8R/CuHnMYEDHlY8GvyMoiiKoowNtSpwjLzcQ4Oqso+wfv0GnHzySebz6aefjr/efz/OPuccTJ06FWeffQ6uveZqXPftb6O/aOOUU05GNps1rimveMWJOOigg00+unfQn7uRgw46CH/84+340pe+hAsuuECE8zm4X8r+/Oc/jxUrnsJ3vvMd6QAMPkx0W7n2mmvx85//HO+84goce+yxRkTvt99+plPQX7SQy2Vw8MEHG1He2dktQvlY2T8HV131fhMF5t3vfjdOOOF4Oc5FPBbHosWLTNn0Xd+0cRM++MEPShl5LJZ0dj44GPSUU04xvwKwzBtvvBFrVq+R673O/Dpw0UWvw8yZs/D88yuNkH/44UfMIFMOkC2WyqZu06dPx1133yUCfp0I/MXmfI3sPx+YPRf4wy+A+24H5PRYeLiITBGlnKxrxn5BPrkMpEWw/vJG4NG/AnMPAqbPkuPnBQM3H7xbhLWI4kVHAU3N8vcoAvU3PwlE7oGHBv7lv5ZtnqOpVY5fEJRL6CfODsGdvwxE7qvlVtHlpbdHOmSHBZ99qU9CRDPdaggt3Szzlz8G/npn4KJCX3F2Nuh+86fbpDMl55oq9Z8tdTxSOgT3/D5YCnL+Aw+WzsCpkk/Oee/v5FgR5a88Q/oj0iE54hg59k/AXSLW6ft+wRuDcul+w7ZhGxmXF9F1vH6Wz/M9tSxw3Wm0zCu7ztjP/Cm9sZ/9L3TmT0VRlDGElrt//Hed+VPZN/j9736P733/e2ZQKqOr8NeAI488Cvfd9xfTEVCUfZWhv+uMAZT9+tOGoijK2KJfs8q+xH33/wWf/cxnjCgn9LN/4xv/zkSTUZR9mTG3mHNQxM++GwywUBRFUcYG1wbe8x9qMVcURZnIjLnFXFEURVEURVGUl0aFuaIoiqIoiqKMA/aaK0sqmHhLURRFGQM4+FNdWRRFUSY2ajFXFEXZB9DBn4qiKBMfFeaKoiiKoiiKMg5QYa4oiqIoiqIo4wAV5oqiKIqiKIoyDhjzwZ8vPA389DtAWgd/KoqijBmeC7zng0CLDv5UFEWZsKjFXFEURVEURVHGASrMFUVRFEVRFGUcoMJcURRFURRFUcYBKswVRVEURVEUZRywVwZ//uTbOvhTURRlLPE9HfypKIoy0VGLuaIoiqIoiqKMA1SYK4qiKIqiKMo4QIW5oijKBGdsHRIVRVGUvYUKc0VRFEVRFEUZB6gwVxRFURRFUZRxwF6LypJMhQmKoijKqFOralQWRVGUiY5azBVFURRFURRlHKDCXFEURVEURVHGASrMFUVR9hU0OouiKMqERoW5oijKBEfDJSqKouwbqDBXFEVRFEVRlHGACnNFUZQJTiwG+H64oSiKokxYVJgriqJMcOjKkkyGG4qiKMqEZczjmD//NPDTbwOJRJigKIqijDqVMnDVJ4CWSWGCoiiKMuFQi7miKMo+QC4fflAURVEmLCrMFUVR9gFqtfCDoiiKMmFRYa4oirIPoMJcURRl4jP2wlzj6yqKoow5nht+UBRFUSYsYy7MGcZLURRFGXv0+1ZRFGViM+bCPFcIogUoiqIoY0dMvs0zuXBDURRFmZDsFWGuKIqijB0MeptIBuJcURRFmbiMeRxzqwJ84kogLwJdf2ZVFEUZffgtns0B7/uYzhmhKIoykRlz+0omC+w3TyMGKIqijBW1KjDvYPlCV4u5oijKhGbMv8b5ojjprHBDURRFGXVqdeDEU/VXSUVRlInOXrGvLDlGTqQ/ryqKoow6dGPhNPwz54YJiqIoyoRlr/3wuVjEue+HG4qiKMqo4HnA8a8KNxRFUZQJzV4T5mdfqBFaFEVRRhNay6fOBI59RZigKIqiTGjGPCpLI4/dD9x8fRA9QFEURdkzONvn298HzDsoTFAURVEmNHvNYk6WnggceTLg2GGCoiiKslvYFnDmhSrKFUVR9iX2qjAnF74VWLBI/c0VRVF2izpQrQLHnQacfEaYpiiKouwT7HVhTi79P8BhRwHF/jBBURRF2SkqFeCkM4EL3hgmKIqiKPsMe9XHfDiP3AvcdAOQzQDJVJioKIqibAejr3Citrf8H+DgxWGioiiKsk/xNxXmZNsW4I5fAU8+EkwlnU6HOxRFURS4ThB95ehXAKecC7S1hzsURVGUfY6/uTCP2Lwe+OsdwOqVQKkvTFQURXm5EgNa2oAFhwEnnA5MmRamK4qiKPss40aYN9KxEVj5DLBtE9DTGfx8qyiKsq/DXw0nzwCmzQIOPEjE+Mxwh6IoivKyYFwKc0VRFEVRFEV5ufE3icqiKIqiKIqiKMpQVJgriqIoiqIoyjhAhbmiKIqiKIqijANUmCuKoiiKoijKOECFuaIoiqIoiqKMA1SYK4qiKIqiKMo4QIW5oiiKoiiKoowDVJgriqIoiqIoyjhAhbmiKIqiKIqijANUmCuKoiiKoijKOECFuaIoiqIoiqKMA1SYK4qiKIqiKMo4QIW5oiiKoiiKoowDVJgriqIoiqIoyjhAhbmiKIqiKIqijANUmCuKoiiKoijKOECFuaIoiqIoiqKMA1SYK4qiKIqiKMo4QIW5oiiKoiiKoowDVJgriqIoiqIoyjhAhbmiKIqiKIqi/M0B/j9i/5UR7CqvKgAAAABJRU5ErkJggg==;" vertex="1" parent="1">
                    <mxGeometry x="-36.0019519042969" y="105.00490280151365" width="742" height="483" as="geometry"/>
                </mxCell>
                <mxCell id="47" value="&lt;div style=&quot;&quot;&gt;&lt;span style=&quot;background-color: initial;&quot;&gt;&lt;font style=&quot;font-size: 18px;&quot;&gt;&lt;font color=&quot;#999900&quot;&gt;Energy&lt;/font&gt;&lt;font color=&quot;#000000&quot;&gt;Company&lt;/font&gt;&lt;/font&gt;&lt;/span&gt;&lt;/div&gt;" style="rounded=0;whiteSpace=wrap;html=1;labelBackgroundColor=none;strokeColor=#FFFFFF;fontSize=36;fillColor=#FFFFFF;align=center;" vertex="1" parent="1">
                    <mxGeometry x="494" y="160" width="142" height="36" as="geometry"/>
                </mxCell>
                <mxCell id="49" value="&lt;div style=&quot;&quot;&gt;&lt;br&gt;&lt;/div&gt;" style="rounded=0;whiteSpace=wrap;html=1;labelBackgroundColor=none;strokeColor=#FFFFFF;fontSize=36;fillColor=#FFFFFF;align=center;" vertex="1" parent="1">
                    <mxGeometry x="443" y="500" width="207" height="36" as="geometry"/>
                </mxCell>
                <mxCell id="50" value="" style="shape=image;verticalLabelPosition=bottom;labelBackgroundColor=default;verticalAlign=top;aspect=fixed;imageAspect=0;image=data:image/png,iVBORw0KGgoAAAANSUhEUgAAAzUAAABfCAYAAADRa+lNAAAAAXNSR0IArs4c6QAAAARnQU1BAACxjwv8YQUAAAAJcEhZcwAADsMAAA7DAcdvqGQAACsMSURBVHhe7Z1neyTJdaVvuvKwDdNoN344JIccitJy94P+jb7qB+ij/pye3efhrlbLXVLijDimLRreFcpm1p5zIxMooIGZHrIbpnnexq2sigybUSZO34jIaALsEsKpiRVFYXmewwobDMY2HIxgY8sR7udgQgghhBBCCPE6RPhXPUuz2LI0xjGxLEtPLI7jE/OYUZXmVb5H1Exc1NDG47GNRrSRdY8GsL4d4ejhsHycl2mEEEIIIYQQ4geAQHFhg2Ojnlq9kVoD1mzW3RqwNE3dkiQtk/wIUVO9DEJm5Nbv5daD9Y9zOzyEoDkcuLnQQbyxRI0QQgghhBDiNaFAccPzeiNzQcNju11za8EqoVOH6EkzCpwEAiehDmIOfDjhjKjhU04n47Hb7dn+/qEd0PYMFtvBbuLipnc8dqEzzgu3PL/E2SOEEEIIIYQQ54ihSTirjMeEU8/olclia7Uia7YNwiaymbnYZudxnE1tZqYNa0Ho1CFqOCWNouZU2JyIGh5oXDtDYbOzs2/rL7ZsfX3LttZj237ZsO31hg2HkY1GBosMegZxw1EIIYQQQgghXocknrjFsCBOoHAiCJrWyK3dGdmdlYktrU5wzGxlZcGWlxcgcNqIliAdPTZTogYCxnUNhcxwOLL+8cB6x0Pb3Di0Z8/37PmzPdvZSG13q2F7m3XLxwlETAzxE0EERVbAeBRCCCGEEEKI1yGOgqChsCmga6gnaLXG0Or1gQubhaUJrICoSe3uvVm7uzZjC4ttazTqsJp7d06mseV5Phn7upixHR30IGAObHvzwDZejuzly8LWYceHifW7tDQImSIUOoGqcj8PngshhBBCCCHE6xBB1NDRQnHjcsK1hUGo5JakY8uy3KehNdoTm5mLbPVeaqtriS2v1CFsOrAZa7XqEEZxWGcDMTMZDodG2365b0++3rSnX29B0MS2tdW2re0Zy8coEaUEGXNewIQKCCGEEEIIIcTrcKmCcKlBwUPx4arH6s3CVu4NbGVtYHfvJXb/waLb3HzbvTVZlll0fNyfHB4c2+Hhsb18fghRs29P/7Rv29spwjp2cNDx3JO4cCVVTV2rjkIIIYQQQgjxJgir/cORy1wK6JA0K2z+Tt9t+W5kD9+btYePZu3OUtvanYa1202LB/2h7e4c27OnEDOPj239RWybWzN2AEEzHNbKRTwUNKdCRoJGCCGEEEII8aaZ1hu+5oZOFQicwXFqe9t121yv2cvnuT1/dmQbLw/9NjN5Dq3S749c1Dx/cmBPn/RsfR2iZnvGvTSjYVaKmrCQh5lL0AghhBBCCCHeFpXmCNs+Q9Hgr3+c2P5OwzZfZLYOUfMCooYbm52ImoODvu3tjm17M0LE2Hrd2Io8RmKqF+YoISOEEEIIIYS4ekpF4hsJFOPIRoPYugdmO1sTWG77e0M77vYt3t/r2d5OYXtcQ7OfIWJkMeTQiXfGsxNCCCGEEEKI68HFDR4mOb02EbRL7MJmf29kR0fHpajZLWy3FDXDfuxz19IkbAwghBBCCCGEENcJRU0MKyBqel3OMIsgaiyImkOKmt2RHR/xxpux5ePYJhP6aYQQQgghhBDihsFpaHls42Fiw57ZcXdkBwcQNVxP0+0WNhryppoQNIUmnAkhhBBCCCFuHr7Vcx7ZeARRM4js+AiiZr/H6WcjKJwJTgTVw/2g5aoRQgghhBBC3DyCZskpavoQNd2xHRxA1IyGE5vkE18/45sDaB2NEEIIIYQQ4gZCpUJvDXdDG48j6/diO9qPKWrMioJipjgRNdrCWQghhBBCCHHjoKChtwZWiZrDAxc1wVMTQcxUN9gUQgghhBBCiBuJe2rMxnlsA05BO4Ko4UKbwv04IY4QQgghhBBC3HyCgJlA4UDU4Enhr4UQQgghhBDi1jDhPxc1ReQLbejCEUIIIYQQQohbg2sYiBp/IYQQQgghhBC3FIkaIYQQQgghxK1GokYIIYQQQghxq5GoEUIIIYQQQtxqJGqEEEIIIYQQtxqJGiGEEEIIIcStRqJGCCGEEEIIcauRqBFCCCGEEELcaiRqhBDirwzep+xdvd/yu9w2IYQQlyNRI4QQfyVMMNo/b+8SJ216B9smhBDi+5GoEUKIvwKqQb4fJlGwd4hSy6CdEY7vVtuEEEL8MBI1QghxS6g8EQUG7nkR2TiPzxjDeK6Kd0pkURRbkiY2M5va8lpqK/fwfD6xNLu9AiBC1eM4siSJrdFIbG4+s9W7md1Zzqwzk6JtsZ+PGFEIIcQ7jUSNEELcAlyoQJxQtBQQL3kpZEZTVgmb4K04FTYc1EdxbLVaYvN3UnvwfmaPPsxscSm2rHabB/yRxRA0aZZYq53a0kqGttVt7X7N5hZSb2+Sxmi7RI0QQrzrSNQIIcQtIXhgSi9NUQqZcXJiOcIoeApXNFMD+QgD+yixFIP8hUrUfERRk2Dgf3sH/JWnJoVwaXVSu7Ncs0fvN0pRk0GwQdRA9EDPCSGEeMdJ/v43//DP4xF+EGET/CAKIYS4GVBuxBAkMUblzWYKQZLZylrdlu/W3Fbu1vGaYTBOu7qTYDCfWLsTY6Af1pbkuVmWxdZoxjY7l9i9h5ndf1T36VlHBxM72JvYoM/CTqet3ZbZWvTS1JoQZq3U5u/U7O69mt1/WLcE7e31J3bYLdD+CX7bzPIxHoQQQrwTVOsn02yC37ccNpanRgghbixQF+6JiClUMlu717BPf9qyX/yqY1/8Xdt+/d+C/e1/hf2mZZ//qmWffNa09z5s2OJyzeqNxKercd1Ms202Ox/Z/EJqi4t1W1hs2MxMHT8Epx4Nqih38vDhFhAlZkkdwqaTWAvtml/ObAli785KzToLmdXaqSW4BhEEnitEIYQQ7ywSNUIIcUOJ8I+emjRJbIai5j5FTdt+DlHzy7/t2N/8BqKG9l9aEDVt+/yLpouah+83fLE8RQ3/NyvNzJqtyGbnzNeaLEDUzC9A1MzWEY7Bfw2Df4oaVzW3Z/TPtTJpJWrmUpu7Qw8WBBsEXWce7eqkfj6mqBFCCPFOo+lnQghxw/DNAGD0oCxwWtVaze49wvEBvRCZxYlZrzu2vZ2RHeyN7XB/bAewXq+wcVFYkpodHRZ2COseTdxTE0eT0gMT23Bktr2V25Nv+rbxfIi4IxuPCyvywj01FDd063NzgTiNLUE9sloMkRRZo4l6ZbFlEFoJBBfjsq5I6s/LvylvD1/RQl5pPQlTxmjMD8apcr6Y39OE+MzTwaF89gpMw6lynF4Ws8B8YsPexNafDezpdwPbfDGw3tHYRv3cihHahygUecw7Zv3ZrgbaAuHDttXrCOfGAu61iv0a4HL60cu7rCJCCCGulIumn0nUCCHEDYJj82ozgEYr8XUiDz+o232IGgoaelooQPZ2xhi0D21/F4JmL4ewyV3QpDWzZjuyw4MCQmdiR0eFD8YLDPjHo4mNIGiOuhPb2RrbBtLv7Qxt0MtRXhA91BWhDhjEY3DPzQWyegoRwnU5kbXaVgoa2ITT2wzlQk/kYdDPcX81+A8/OoQBEEcZ178kVp/JrI68gkgySyBOKEyKHEckoOjga6abzu88DPZ0ECz5EILmuLCj/QJCbWSb6wPbR9uGbBsFja+tCYKmmLAuEDMNtK2ZertYD9aHuwpMIGgK1Nfz5m5yOHoV8HBJVYQQQlwhEjVCCHELyDHo5mC63UntwXt1+/CThq09qPl9ZVrt2I67OQbtQ3v2uO/i5vCAllsUT1wstGYS29stIHgwyD/gYH7iA/vhkGbWPeYGARRDo+DJwLkJ1AQFiN/TBeZbQNchQFoY9HcylMv60ChqUsvixNIo9TTQC26VqJlWANzkIIEISlPmlVhzNrP2XGpNThmDkGi1Ihc1/EfRwUwolGi+FTVz8vxexcVXKdbGaNugZ3YMEbfvHqyR9Y9GHu6ChvmhLsyTGwywXc2ZFNcKxrbBuJkCPTioMCN7GfTUsJHeNpqHCiGEuE4uEjXRP/3jv0z6xzXrdzPLx/giF0IIcW1w8E0vDbdn5rqYz79ouXF3s7QW7iuz/mJgX33ZtS9hQwzkowLf3RBCndkYwie29kxsW+tjCJ+x7W7nliYTH6c3ICCWVuq2tFrzDQjWn/bdKIg4fazI6a1AHrMJ8qKlNjOX+fqUNCkgPmiIlCMzWDGObZ9T3yCqaEeHMAiJ4XBiWcYfm9iaEDJz86kbhUytHbw1KQSY+0Oi3Eb9MG1siOPOTm4722OIsrHlqBR3LeO0uIuIE5TRQF712OZQz+XlmlsPou8lrhGv03AQdkArxhNcm9Rm0ZZZiioXNIl7w1LUgW3jT+RoHMHC7mkH+/SAoU1oG8UfjflEEa2shBBCiCvFPfr8nYSwqUPQzC0MbG6xL1EjhBA3Cf+y5hQpfGEvrdTsl79u2S//pu0Ch24CnLLHj3v2+z8cwg5s0I0tylM33nOmVqeZ9XuFT70aDQv3QNRhnLr2/sdNe//DJkROZF/+v6798ffHtrkx8mlpo7FBfCS2dj+ze/fDfV+4i9rCUg01g7iA6plAYHDjAnpeIggpTmPb3RzbFvJ48XxgLyAkjo5ya0K8tCAYFu+kPnXuAawDMUFhxqlfQRRAHKDBBYRLDrFAwfD4u6E9/nZoTx8PbNDPbdAbow0QUhfAvBqzmTVmuK11zT58v2EffFC3/Z2xffXHnn31Hz07Rl1Go9w9Ntzu+eEHDdSl7h4aesKaLU4z83lmqE6B64vfwTiImg20iba1MbTtF0PbQttGEElcnxRDlAkhhLh6LhM1mn4mhBA3Do74uX4ltlUM1jlgp0ehwDc5v8x39ob2cnMA69tgYJaPYhsPEgiZiXUPOe1sbP0u15LkXBkSFuTTY7KY2SMM6j/+pGkLi6l7QyhGuJmAr2OBSKFH5cHDGoRP3e494H1w6nb3bg0ChV6icP+bWcSZv5NB7GRW5yL7GkQORNIxhNT+fm79wcQFAz0iK6s1ew95ffRpw71NMxATFFmNBi0x7tDGe+Zwq+klCLcx9EsfguL4OEyb4/ohCjNeEtdBU1AcUdA05iBq7tXt/Y8a9ulPGu4h2j8obGsLYgZCjReNed2DqPngY+4g13SRuIjr4R4k1KUOQVivJ+7J4f2AOnMJ8o8shtGD1esWvnZpNDz11JyvjxBCiKtBa2qEEOIWwC9qfmFzTcvMLAbdTW65HLlxUTuFRa2ccrWy1LDlpRoG6FwbEvvOZxQ+5W1n/KEGMcL4nG61slKzZU4/Q14vX4xtY31kA4ihOqeKIc7qamYP36/bIwgRCo4hBMr+bm4vng59R7Fvvx765gMDhI/HYT0L65PA9iBotrfHOFegbrxZaBAqi0vhpqBMQ2/O11/17cm3A3v2mB6ZoXUhGFjPJtpGMTOg1wYBzJ87uvW6wSvC9kxP+0pStKuVWtYMU9yWUdbKcmq948Jebowh+sY+fY0/fRR3a/drdv9Rw9Ygbvooh16m52gX60Hv0ItnIztEWQMIlxHblk8sw/XMIYwOIAB3NnOfIseN2uit0RQ0IYS4HiRqhBDiFsAva3pOfE0KBuz0kLhXohnbzBw3C0hd0Ny9WwqaBXocOCUsCBp6b8y3cKaHwnzLYlq7k7igoVEQbLwYQdRwy+OJC5pOC6Lmbg2CpmHvfdTAoD2y/R0ImidDe1IKmj9BkFCcFAV+TvCTQUHT9rUpMQQN8ns5co/RwmJmyyuZ3YHIoKDhGh1uaEBB84ffde3bP/Vd0Dx9PPI1L020jSJoCAExoSBDvn2Ik8N92EHuisa9I68javqFbUDUbEC0UNQkuBYJZBI9NQ/fq+PYcEHz7LuRff3lwKe8ffvN0J5D1FDQ4JJ52zLUYQZt42YEFDTrEIED5O2iJpaoEUKI6+IiUSMVI4QQNw0OlmFcZ8L7zWxigL65PvIF9JwCRc9Bu5Ha3eWaPbhft0cYqL/3QTlgf1Cz1bXM5hfp4Ul8gwBuCuC7mlXgKV8y3BfbQzBxetksBvDzEEcUSJyGRdHQPSpKL83QHn8zsO84+MdrTlvjIvoRRENWN2vNQmBAmNBjw3y5vofrVShWUjxnmT2Ina3NkX33dd+++c++Cxza+vOh7UO4cOoZp3w12igf9eeRN84MU+NQ7+CweS0oSiK0jenpvaLHxdcc+bS32Eajie3ujOzZkz4EW98eo07foX3Pnw19jRGFFHdNazUj67TRNqT1HdpQh1O/kRBCiJuCRI0QQtwkwvjfvQtFwZtnjm3rJadHDeyPv+/Zv/322P7v/+ral/9+BJHRxcB84PFm5iByIHA+/qxlX/xdxz78uGlLq5kv2M94U8nv2QeG51LEqXcw6G9R5FAEmQ/8OdWMU8qODiE6RtUOaBOvn0/BYgYUHdyOuRIfU7gWQbhvfoDYvEcMd3bjDm9MzXJcKMCgIXA+PH/bcI0Nd1WjJ4ebBMRoVwrjDXfG/dyGx+H+NqyL7+7MhnpjhRBC3EQkaoQQ4gbhY2cKBggH7jRGUbO5QVHTPxE1v/tXiJo/dCFqjmxvm6Jm4tsvc83Ix5817Ytft/3eNhQ1nBbGNTX0nlxGjF8CCp8GRE29HVlSela4NTPFzPZWboc48n42LmhgTJMgjv+IUIRUdsHIP5wKwiZsVx2MYqc6TzHDnZtd1Hjo28PrA7UStozO8YJbOucQNblNuDEBRM3Ib9rJysDC5RBCCHGDkagRQogbBr0XwYMx8e2Me91wo0zfNvnp0J4/Hrg9ezKwF8+HvtifwoPbMnMbZe6Wxt29uKMYxQ63c+a0sEtheQmESgrDkTfxZBjL52L5IcQMdyGjeCLB80LPShAq7q/x42WEcycemylBU8HzXMtSFvHWoVZxbw23ckbpYeG/B4YtpiFoeJ54Tc9WVwghxA1DokYIIW4qGEiHtS+UDRxwTyzHIJxrU/Z2C1t/lts3X43s97/r2//8H1376o99294c+bQqX8Df4VbJmW8swEXvl1F5LUbjMcTLOAz0UZx7cGoTa7QmOCJiHCFebKMitiGOfT53oRLyEUIIIa4LiRohhLihUIb4VLTSKD7oLeE2x7s7EDXPC/vmT0HU/Pa/H9l/QtTQm8MF7lkWl/d/qUHUJL4ZwGUEUcM1MxQ1XCBfei8SihqzRnNiKY7cbGBcRDbKIxtA2Axc4ATvixBCCHGdSNQIIcQNhNOj/EaX3ADgHu+vcrqz2Z2l1AVLliW+QxkX9me1cB8b7mZWSQw6XCiCuK0zhctlQM/4DS8PD2hFuFfMYOJT1nijTW6FzLvx33tYCzfkXK35ls3hHjqsww+LGo/BKV7+6iKCN8qngL0uyIxpeA8aWpjk9ob44SYJIYS4QUjUCCHEDYP6g8Nz3nyT94359Gdt+/yLtv3sFy376c9b9tGnTd++eRVi5wGOH/2kYT/7omWPPqj5Vs5xEpc3rsz93jB9Lnrn1mKXwLvudw8j294y294224e46R4Xfm+cpdW6ffLTjv30Fx37+S9Zj5Z9+lnDPngfIuduZvNzid+N//twsYKj/+BcEJVBwUph85rihPFiKyyNcktgfP79NXld3kwuQgghrg6JGiGEuGFwSM+F9LV6bCtrdYialv38Vx0XNZ/9vGkff9rwu/6vrkHUPIKogcj52S8hdD6o++YA9NZwgf/x8RiiZuTihiLnMsYjiJojsx2IGtrB/qmoWa5EzedtFzW/+KJpP3FRU7P7EDULEDUN1PP7CBsfBGHjguUVzVCKmejHiRLGpZBJDKIGR3pr/nKqGvyYmgghhLhuJGqEEOIG4cNyCBp6a7i0ZTiYWK8bpoNxoX69lVhnPvW77y+vhqloc/OxtdtmRZ7b3u7Inj7u28aLge1uUdTk1oNAYT6jIfLpF8gvt2PYYBDuxcI1OLxfC7ds7h7mtvF8aN9+NbCn3wxsc31oh3vj0/iIyx3Zhv0R8hr4OhzfWAAaoJIBnPLGe9z0j1EOzcvj3fjDHf7dw0KRUxrz7PcKO9rPvfwe0gwpxHifGOTlgocZn9MZLIdeJraN6VnO0dHIyxwOwi5mBcQcb1Y6yg31L0KdjlCX3tjb63si4GL77Dxec29feZ08z+DpYl04j487Y7swCz0lhBDihiBRI4QQNxQOrnd3cnv2ZGgvno5sbx/CA2PrpBZbZy61pZXM5hYSq9cxwC5yO9gb2vMnvXAPm2+5acDQjihqjiBIMEAf9icY0CPe/gg29AH7EAKFYmiCAXtkFDzcNnpg//G7Y/v3/3NsX/2hZ9981bMnyG/9GUTO5tC2Nvu2udFD/sd2eDiEOMjdG1OJDmgNFxBHKOtwP2xHfQjjPXcoiFgOd3SjsOFNPCkYuoi7s5Xb/u7YukhD4TWCiKKocSFxTtAQrhXiNeodmx0dFraPdLs7KAvt4zbY+bDwvCmwhkNzkXKIOuzvDazrbS8gHLn5wqmwGSMuBQ0FUvcAohB5dg9HXhfWO4phF9RFCCHE9ZL8/W/+4Z/HowRf5Al+IKRxhBDiWnEHQPBNcLcx3s5+hAH5uBQz9U7iN9RstiKbnYWgaSA8Cfdb2d0aQXgM7fE3fXv5YmQ7m2P3flBk0PvDbZ3bM7G1kJaDfd7fZmtj7EKHO55NkAcH9cdHBdJCANBDAxHQ7yGfQwzyEY/CYDSil2No4/HYd1lrNFNUM4GgovgauhCoZdy4wJ1Lfu8bGtf3bL1EvbbosTkVKy20iRsO8CahfQgKelmGEBF72xRDQeBUIuiMoEAGkzj23dcypG3yujQjv1HoNtq+uw3hgvzGED4UNjNzic3MRh5nYx3ibANCcTf3utBbxWufprFvuJDCanW8zswFDq8V6z2CEPIttvFzOV0VIYQQVwenaPN3Ms0m+A3KYWOJGiGEuElw0F5OtnJRw4E/PQn0KIww+Oag/4jej91gHGhvwyhgKGQoUnYwmOc0rv5xECmxi6MgCJgfp2wdQOxsYqC+vzP2aWW+S9pkAuEDkdJIrd2iByjsqFYgnKIAWgb5Gc6H7aLn5jIIpBripT7F69njoT2HqNmHEPF2IE+/eSe9KRBDFBmsJ8UNRYRXC8ad23hPHO7Cxuly9C4dIc7+Dr0l9NgE70hlp5TCD3gbIUrouWEZ2xAsFEQUNZzyRuGSQWgRemJePg8ihWVxyhnLpvZjPhSBvOasO6f90VvG/HjNOJ3NhdqZegghhLhKLhI10T/9479M+sc163czfOknZVQhhBDXBadB8cs6wUCfHgh6Q2qNxDK32Ld65jmax8UDbdAP08z6OLp3AkaPDDcOcO8D8qFXpAHBEmNUTi/MMcQPp2FRgDCPViu1+fm6LczX6NyxUV7YEOaCAuUxHTcpePg+t3euWa1G8RNbvzex//3brv3bb4/s6eMB6mxWo0GwZBBHNNaHZVJwTe/G1miGOtEIf6pYF65/oTDjVDb/+TonJLxOaFeEOtVxbZpI32wnnjfXETF9DjFGwUYRxbZ3ZhO/bw+9U/Q8MU7Y9pr1wXUqPTW87vVmMKZ1T9Vh8DBdVBchhBBXA3/3iiKyHD9SdQiauYWBzS32JWqEEOI2wP+V4o0v8+J0jy+Oq0+lAb0HYYpWEofQasexCv4QMH2OfDgqT6LTtS0V8/OZrd1t2tpaw/oQOztcpwKjyGCJHMx/9vO2/QT2wcdNn7ZGO0Cc3/1r1+3Jd/1QGIzpXJKg/hQDrFtybl0Kp4/xB4pHDy7rzfrTI8LjD8G0bBfbx/gsJ0U5pKxKKGcSpquFa8WF/0Gg0FjKpKxHFZ81uazeQgghrh7/fub3Pb6jp0VNXJ4XQghxw+Hg2gfiPPpwOxynrRIAPHcRQSgwLQfoIY9qAE9RECWxNdqxzS4mtnIvs/c/qttnnzftp7xHzi9w/LzlN+GcmQ1uov29kT35tmd/+mPXNtcHvqsY83QrBYPX7URAoLBzwoAvQ9zSqvR+9uJ2nMfzqMop009TCZeTvL2sEFbhTz0snD8rfF6vHkIIIa4HeWqEEOIWwCG1zyH+nrH1yaCcsf34KszDZ1qBMKjHC/xR0PB/vu7eq9unn7Xsk8+a1oS44dS1KC3jlw/tTmrtduJTtB5/fQzr2bPHfV+jsrM1sm7XtxPzOjuhCOciz0to01TbyooH8RGe/xBMWl0fJgnCxE85DPfsGQeHKg45H8+PjFGlAYxDcSOEEOJ64fe0PDVCCHFL4bibg+owDepim94hbGqcfgYO5E/iMy7C+EhBUE1LS+uRNTuxLSyltvawZh980vQbfH74acM+/KRhyyup1RuRb3O8ux08NV9/eWxbLwe+rqfyAjF/t7I82nlBQ7y+ZbyqDVU7XhdGZZrqOpxPy9cUVFVdqjgXxQtxQ5yq3nwthBDi5iJPjRBC/JVT/a8Xp6DNL2Z270Hd7j2sW3uGW0bHvgjfB//lwL7Iw05l3N74+eOe3xtn++Ww3EWMC/M9mhBCCPHGucxTI1EjhBB/5bhU4bQsPOEua6126lPMsnrsu4Fx17Rq8T7hbmAUNdwJ7Jh38IdxLQ03BWAeNCGEEOJtIFEjhBDiBwlrbsIOYdzDmdsl04g/QtzQU+NWTMod1LiYPrhnzk/nEkIIId4kl4karakRQghxhtP1MNxJLIeOKc2fc4PmHOdy4xbHFDTVOhkJGiGEENeFRI0QQogTKFC4P9iJoOGi/1LUWGkxwnjeRU0ZX4JGCCHEdSJRI4QQ4gwubCrzW2eWRi+Ne2qCqKGFeGVCIYQQ4pqQqBFCCCGEEELcaiRqhBBCCCGEELcaiRohhBBCCCHErUaiRgghhBBCCHGrkagRQgghhBBC3GriOA473AghhBBCCCHEbYI7cEZ4iOMUT+ivQQCljeSNEEIIIYQQ4qbjdxRwUWMWJ8kkiBoiRSOEEEIIIYS4JQQvDSzNOAeNeiayYhLZRMJGCCGEEEIIcVM58c6YZenEavWJxbUaAyhmIGqKcJSwEUIIIYQQQtw4KkETTSxNgqBptiBqMoqa2NxLk7ugQSwhhBBCCCGEuGFQqUCxuKjhMhqKmgZFzcxcYo1mjMDIIwkhhBBCCCHETSWGmInTwgVNqx3b7HzN4rn5xJqt2NIkqB6aEEIIIYQQQtw0eCuaOCksyXKrNSBqOqnNz9cpalJrNiNLuLVz8OcIIYQQQgghxM0DWiVKJhA1hdWaE2vPJDa30KCoadn8YmILd0Y2Mz+weiP3yNoJTQghhBBCCHEToC6hPuGtaJqtAvolt8Wlic0vpDYz0wqiZuFObIsrQ5tbHFq9OQ6ipgjbPAshhBBCCCHEdUE/S7VTM0UNNwZYWMrtzvLE5hayU1FDT83i8thmFyBqWsFT46trkIOcNUIIIYQQQohro9QkNN6KptWGqLmTQ7+YzUPUdChq6o0aXjRt7X7H7j1o2vJqbHN3htbqDC2r5aWrB5lMZSaEEEIIIYQQbxN6Z3LeRzOKrN7MbW5haEurI1u5m9rdtRlbXp61TqdhaZpY3KhnLmru3puxtQctRISoWRxA1AwspahBhpy/VgkbBkjYCCGEEEIIId4m1B/UIaTeLHypzNLq2FbWMhc1SxQ1M80gamoQNXPzTVtZ7djqWsuWVxO7s1zY7MLYmu3c0mxicTzx+Wu+xKZcZvOmhc1l+V2VgLpOoXbd0/xY9lWUf1kZV9X2a73GKPxayy+Pb5vLyrnu8q+Ca+/jKyr8smKuoniWcd3X+LrLvwouK+YqimcZ13qNSzvPVdXpOvv4sra/aa6qnMu4rPyrqpP6+Ps5SVdqjhj6I07M0ppZe7awhaXCVu4adEsNmqVjC4sda7XqliSxRXmeT4bDoY1GI9vf69nmy65twLY2xra9Wbj1upENerH1YUUR26QIC3V4J08vEw9eiXMt8C2ipwg/CCHQ74nDdAgLO61FYd9phPHoi4EY/yT8NP75PKY5/2apzod0fMICQg48V+3yRqvKng4nfO3heB7iMoB/r5ZPqnRkuvxKaXp+oTaeVxXubYSA5CmWxjQ8U9WJXJT3NNPnCeMwiOVU56av5fS1ZxjPMfykfISxrlU+4QF4+Kt4WrZnOh3Cpsupyq+uMW362ntYmXuVxzQ8P011PqTjE2YWcrisHJ6cviaM5+XjeYjLAP69Wj6p0pHp8qu+rPJjhaq2k7fWx1P5kdM+Pvs5Ytjt72NmwMCQw0k5vrnJ9/ext50v8HC+DeeZrsOZ8plnGebl4O98H/M/gs7E9fin5VyU9zTT5wnjeH6sbXnubfVxdd7bM50OYTeuj0F1jQnjne/jkO+r5ZPpOpyWH9pDPIzl4O+q+3g6P5Zx9vcwnDtTPsPKdvJ1eAAefpbqfMgvvKjKr9oZ+jeE34g+9rgh3uv2cRWn4rT8Mj/AsOlryTowGr+nvZwynNE9nPU9ySccyfmyyfR5wjieH3LicTq/UHY4MuzSPmZ8POfrk7YxvHxaUZ0P+YUX58t5pY/PXfsQ31MyAzyGsGkuaiM5SYcj8yJeDqcR+bnr6ePq/V217/v6uEpfcb5sclEcz49XC8fp/E4/R+9QHyNPwrzCE4SVfewv8bo6523kUw87vfbVOT+WcRN8/hJu2ZxOrNYsrO7bNkPI3E2CrdZtaaVtS8sda3coaJJg/wxiyCAaXTe1RmydTmqNJjJNR/hg91B44W/E4TBUKEfhnN/m/8rK+YVlTd2qx/IcqBpfNYAneI5peKGZfwgPF7sK45FhVTmM73l4PgjgYzic5n2O0/PMk6lO68382RaKtSrM4yKM7WQaBk3ncb4N04R28tnpOR69Pa/kF8rI8zIcYexkctJ25sNHPJzJmwc+q55M4XVkDE/IgBAWvkxCeMgvhOVoOwP5xuO19z4p4zJehAcvh/mUmfojH6YI9WO6MqBM5+WUZYXw832M8vGacT0+Xngeng8C+BgOp3kTPi/DT857fnxd1f3iPmb0v6iP/Ul5DsaDt6fKrwzj40kf4znDw5c16xPSMI4/4sHz9sxPy62O03gdmcoTnoZ5v5UBIb8QdqV9HP48/OTao4/5ujKWwS9XllclwJ9zkjfgc8YnIR3M6x0C/BzDvY3nyinjXtbHfJ+Qk7ZP4e30ZyFdeKjSIb8ynFZdS5bv4QjkdfZwZPLn9nFVjv+V58P7uwwH3pesk5f/ZvrYzzNPr+Npuqrtr9PHPMn43s6yrVUaEtof4HNPA7wchnm9Q0B17nwfs40e7uWz7SF9Gezhf0kfF2UAH6tr+bb6OOQXwqb7mEEM9/p4+Wg7I+HhpI/PxfV8vG0echJ+Bq9fqDs508dl+Z6XnwzhP9jHZR4Vof0BPq/O8ehJeC3PpXu1j0MmfM3vb8LwMrqXf9qGYGfAuenrUCX0a0YrA/jI5/yuOPnMMJzCFc9O+zjkxHJY99DG0/qfL5+nq3Km61dd45BbCOfr6T6u4oc2lnl4ihDOzEP9T/M4g9cv1J2cya8svwoj3/f5OulLnKjik5NwwOfVOR5ZNx9AM85UOubnnyOUQ0Ebygn1OdPHDEfai9pwBsaZug7+gDC/ZrQQWgaHcvh77PGnvyvLNB4XhVTlMI8QN7yeLp/VcpuKQ/P8Lvh997LRxqvqY69XGUYu+3wx3oV97OWfcmEfn8Q5Tce2TJd/WR9Pv8f8+lfPETdOC2gSiJlGmDnGHZpX7+d2/1HDHjyasdW1GeNGZ6123bIsdQ1DiyYgZIsMi9zGY3pthrazfWjrL/btxfN9296IbHszwzGzwSCyEcTNcBguSByaddI4EuqJkLLCATYmVJgRmJZvqNDJfJOxQlBlceEKzcPQeF6YhHcNPflfk3BheBWr/0mZ5rQ1gaoOJxcN+Xm9+XnC0d9geIMzTy8bypAXmmGsA/F6IZyvqjdq6JDQhvOwrKrzq/Ms1z/IyCXx8kP4GOWMyzc425mW4f7GgzG9t70MvyjvaarzPMN2ME51zZgnaxCuc7j2Y1x3hrMtKVUxrgHDWXa4JrweoZ2s+3Qfv1o+0716fbxsv56hj1OUwSPLvaiPGZ91/rP6uCyf+VftP+3joP7ZTjagmOpjL/vH9jGOjF+dr/qMuVRtId7HuM7ML2U7WT7+qvhs4/R7ourDN9LHeM33Fz9f1fv77fVxeC8xP5YR+jiEhXLO9THCPccybJof3cdl2exjfob8GuOc93tZjtcL4cyaP7ahDad5nOX0GjN1db66ZrxOrLP3Gf7Yv+zn1+pj/wv5/+g+Rl4ceLEGfi1hDDvp4/JzNN3HTBeu1ev1sZ+/4Pp42WV/hmuJPkb4aR+Xny+Yx0f6t9HHTBfexyGD6hqTKpxnfqiP2U5GZChTV+era0yYjnVgmSx/uo/5PeLhZfleV68vM0U9kZ7nf6iPSRWHYVV+fM22ME8OBMas15/Tx8zba3PKD/VxaE94H5/vY/98wTw+24Bw8pf3cfi8sp2s7vk+pjH5SR/jFO1N9DHzY9uq9xjrwuvLfq6uMcMZr7rObMNJ3nh6vmzi7UQwS6riXNbH1TWu+pjXmX1Qlf+j+xjxL7o+oS1lH5fvJe/jCz5fHp/5IJyNCPmcL6d8UsK6EG/7BX3MzxDLYXUv7GOcYhiv/2VtmObMdaD5eeYV0hHWOcGYr+pjvseYl39XT11jll/1xxvrY7YFYRf3cfidrMpnOi8bhldn28a8vSanXHZ9pvvYv6eZJ85d9Pny+MyH4fir3l/TXNbHIV04VmUwjzDew5Opcoi3HXZZHzMtM+H5Rn1idVirNbE7qyNbhC3djW11ddFtbq6DvIN3hmImYPb/AW/izAdn2trFAAAAAElFTkSuQmCC;" vertex="1" parent="1">
                    <mxGeometry x="396" y="455" width="285.27" height="33.01" as="geometry"/>
                </mxCell>
                <mxCell id="52" value="&lt;span style=&quot;color: rgb(240, 240, 240);&quot;&gt;&lt;font style=&quot;font-size: 10px;&quot;&gt;Sign up&lt;/font&gt;&lt;/span&gt;" style="rounded=1;whiteSpace=wrap;html=1;labelBackgroundColor=none;strokeColor=#6553D3;fontSize=9;fontColor=#FFFFFF;fillColor=#6553D3;" vertex="1" parent="1">
                    <mxGeometry x="396" y="455" width="285" height="33" as="geometry"/>
                </mxCell>
            </root>
        </mxGraphModel>
    </diagram>
</mxfile>